<?xml version="1.0" encoding="utf-8" standalone="no"?>
<!DOCTYPE svg PUBLIC "-//W3C//DTD SVG 1.1//EN"
  "http://www.w3.org/Graphics/SVG/1.1/DTD/svg11.dtd">
<svg xmlns:xlink="http://www.w3.org/1999/xlink" width="712.491475pt" height="424.542255pt" viewBox="0 0 712.491475 424.542255" xmlns="http://www.w3.org/2000/svg" version="1.1">
 <metadata>
  <rdf:RDF xmlns:dc="http://purl.org/dc/elements/1.1/" xmlns:cc="http://creativecommons.org/ns#" xmlns:rdf="http://www.w3.org/1999/02/22-rdf-syntax-ns#">
   <cc:Work>
    <dc:type rdf:resource="http://purl.org/dc/dcmitype/StillImage"/>
    <dc:date>2026-02-06T14:33:06.902958</dc:date>
    <dc:format>image/svg+xml</dc:format>
    <dc:creator>
     <cc:Agent>
      <dc:title>Matplotlib v3.10.8, https://matplotlib.org/</dc:title>
     </cc:Agent>
    </dc:creator>
   </cc:Work>
  </rdf:RDF>
 </metadata>
 <defs>
  <style type="text/css">*{stroke-linejoin: round; stroke-linecap: butt}</style>
 </defs>
 <g id="figure_1">
  <g id="patch_1">
   <path d="M 0 424.542255 
L 712.491475 424.542255 
L 712.491475 0 
L 0 0 
z
" style="fill: #ffffff"/>
  </g>
  <g id="axes_1">
   <g id="patch_2">
    <path d="M 46.51375 313.959467 
L 705.291475 313.959467 
L 705.291475 11.025781 
L 46.51375 11.025781 
z
" style="fill: #ffffff"/>
   </g>
   <g id="patch_3">
    <path d="M 76.458192 60900.696663 
L 143.001397 60900.696663 
L 143.001397 36.807187 
L 76.458192 36.807187 
z
" clip-path="url(#p2a80917bb4)" style="fill: #0066ff; stroke: #000000; stroke-linejoin: miter"/>
   </g>
   <g id="patch_4">
    <path d="M 209.544601 60900.696663 
L 276.087806 60900.696663 
L 276.087806 64.25755 
L 209.544601 64.25755 
z
" clip-path="url(#p2a80917bb4)" style="fill: #0066ff; stroke: #000000; stroke-linejoin: miter"/>
   </g>
   <g id="patch_5">
    <path d="M 342.63101 60900.696663 
L 409.174215 60900.696663 
L 409.174215 65.352412 
L 342.63101 65.352412 
z
" clip-path="url(#p2a80917bb4)" style="fill: #0066ff; stroke: #000000; stroke-linejoin: miter"/>
   </g>
   <g id="patch_6">
    <path d="M 475.71742 60900.696663 
L 542.260624 60900.696663 
L 542.260624 69.337728 
L 475.71742 69.337728 
z
" clip-path="url(#p2a80917bb4)" style="fill: #0066ff; stroke: #000000; stroke-linejoin: miter"/>
   </g>
   <g id="patch_7">
    <path d="M 608.803829 60900.696663 
L 675.347033 60900.696663 
L 675.347033 107.047256 
L 608.803829 107.047256 
z
" clip-path="url(#p2a80917bb4)" style="fill: #0066ff; stroke: #000000; stroke-linejoin: miter"/>
   </g>
   <g id="matplotlib.axis_1">
    <g id="xtick_1">
     <g id="line2d_1">
      <defs>
       <path id="m9c62955623" d="M 0 0 
L 0 3.5 
" style="stroke: #000000; stroke-width: 0.8"/>
      </defs>
      <g>
       <use xlink:href="#m9c62955623" x="109.729794" y="313.959467" style="stroke: #000000; stroke-width: 0.8"/>
      </g>
     </g>
     <g id="text_1">
      <!-- aten::linear -->
      <g transform="translate(43.321172 373.435084) rotate(-35) scale(0.11 -0.11)">
       <defs>
        <path id="DejaVuSansMono-61" d="M 2194 1759 
L 2003 1759 
Q 1500 1759 1245 1582 
Q 991 1406 991 1056 
Q 991 741 1181 566 
Q 1372 391 1709 391 
Q 2184 391 2456 720 
Q 2728 1050 2731 1631 
L 2731 1759 
L 2194 1759 
z
M 3309 1997 
L 3309 0 
L 2731 0 
L 2731 519 
Q 2547 206 2267 57 
Q 1988 -91 1588 -91 
Q 1053 -91 734 211 
Q 416 513 416 1019 
Q 416 1603 808 1906 
Q 1200 2209 1959 2209 
L 2731 2209 
L 2731 2300 
Q 2728 2719 2518 2908 
Q 2309 3097 1850 3097 
Q 1556 3097 1256 3012 
Q 956 2928 672 2766 
L 672 3341 
Q 991 3463 1283 3523 
Q 1575 3584 1850 3584 
Q 2284 3584 2592 3456 
Q 2900 3328 3091 3072 
Q 3209 2916 3259 2686 
Q 3309 2456 3309 1997 
z
" transform="scale(0.015625)"/>
        <path id="DejaVuSansMono-74" d="M 1919 4494 
L 1919 3500 
L 3225 3500 
L 3225 3053 
L 1919 3053 
L 1919 1153 
Q 1919 766 2066 612 
Q 2213 459 2578 459 
L 3225 459 
L 3225 0 
L 2522 0 
Q 1875 0 1609 259 
Q 1344 519 1344 1153 
L 1344 3053 
L 409 3053 
L 409 3500 
L 1344 3500 
L 1344 4494 
L 1919 4494 
z
" transform="scale(0.015625)"/>
        <path id="DejaVuSansMono-65" d="M 3475 1894 
L 3475 1613 
L 984 1613 
L 984 1594 
Q 984 1022 1282 709 
Q 1581 397 2125 397 
Q 2400 397 2700 484 
Q 3000 572 3341 750 
L 3341 178 
Q 3013 44 2708 -23 
Q 2403 -91 2119 -91 
Q 1303 -91 843 398 
Q 384 888 384 1747 
Q 384 2584 834 3084 
Q 1284 3584 2034 3584 
Q 2703 3584 3089 3131 
Q 3475 2678 3475 1894 
z
M 2900 2063 
Q 2888 2569 2661 2833 
Q 2434 3097 2009 3097 
Q 1594 3097 1325 2822 
Q 1056 2547 1006 2059 
L 2900 2063 
z
" transform="scale(0.015625)"/>
        <path id="DejaVuSansMono-6e" d="M 3284 2169 
L 3284 0 
L 2706 0 
L 2706 2169 
Q 2706 2641 2540 2862 
Q 2375 3084 2022 3084 
Q 1619 3084 1401 2798 
Q 1184 2513 1184 1978 
L 1184 0 
L 609 0 
L 609 3500 
L 1184 3500 
L 1184 2975 
Q 1338 3275 1600 3429 
Q 1863 3584 2222 3584 
Q 2756 3584 3020 3232 
Q 3284 2881 3284 2169 
z
" transform="scale(0.015625)"/>
        <path id="DejaVuSansMono-3a" d="M 1528 3322 
L 2316 3322 
L 2316 2375 
L 1528 2375 
L 1528 3322 
z
M 1528 953 
L 2316 953 
L 2316 0 
L 1528 0 
L 1528 953 
z
" transform="scale(0.015625)"/>
        <path id="DejaVuSansMono-6c" d="M 1997 1269 
Q 1997 881 2139 684 
Q 2281 488 2559 488 
L 3231 488 
L 3231 0 
L 2503 0 
Q 1988 0 1705 331 
Q 1422 663 1422 1269 
L 1422 4447 
L 500 4447 
L 500 4897 
L 1997 4897 
L 1997 1269 
z
" transform="scale(0.015625)"/>
        <path id="DejaVuSansMono-69" d="M 800 3500 
L 2272 3500 
L 2272 447 
L 3413 447 
L 3413 0 
L 556 0 
L 556 447 
L 1697 447 
L 1697 3053 
L 800 3053 
L 800 3500 
z
M 1697 4863 
L 2272 4863 
L 2272 4134 
L 1697 4134 
L 1697 4863 
z
" transform="scale(0.015625)"/>
        <path id="DejaVuSansMono-72" d="M 3609 2778 
Q 3425 2922 3234 2987 
Q 3044 3053 2816 3053 
Q 2278 3053 1993 2715 
Q 1709 2378 1709 1741 
L 1709 0 
L 1131 0 
L 1131 3500 
L 1709 3500 
L 1709 2816 
Q 1853 3188 2151 3386 
Q 2450 3584 2859 3584 
Q 3072 3584 3256 3531 
Q 3441 3478 3609 3366 
L 3609 2778 
z
" transform="scale(0.015625)"/>
       </defs>
       <use xlink:href="#DejaVuSansMono-61"/>
       <use xlink:href="#DejaVuSansMono-74" transform="translate(60.205078 0)"/>
       <use xlink:href="#DejaVuSansMono-65" transform="translate(120.410156 0)"/>
       <use xlink:href="#DejaVuSansMono-6e" transform="translate(180.615234 0)"/>
       <use xlink:href="#DejaVuSansMono-3a" transform="translate(240.820312 0)"/>
       <use xlink:href="#DejaVuSansMono-3a" transform="translate(301.025391 0)"/>
       <use xlink:href="#DejaVuSansMono-6c" transform="translate(361.230469 0)"/>
       <use xlink:href="#DejaVuSansMono-69" transform="translate(421.435547 0)"/>
       <use xlink:href="#DejaVuSansMono-6e" transform="translate(481.640625 0)"/>
       <use xlink:href="#DejaVuSansMono-65" transform="translate(541.845703 0)"/>
       <use xlink:href="#DejaVuSansMono-61" transform="translate(602.050781 0)"/>
       <use xlink:href="#DejaVuSansMono-72" transform="translate(662.255859 0)"/>
      </g>
     </g>
    </g>
    <g id="xtick_2">
     <g id="line2d_2">
      <g>
       <use xlink:href="#m9c62955623" x="242.816204" y="313.959467" style="stroke: #000000; stroke-width: 0.8"/>
      </g>
     </g>
     <g id="text_2">
      <!-- aten::layer_norm -->
      <g transform="translate(154.533277 388.628765) rotate(-35) scale(0.11 -0.11)">
       <defs>
        <path id="DejaVuSansMono-79" d="M 2681 1125 
Q 2538 759 2316 163 
Q 2006 -663 1900 -844 
Q 1756 -1088 1540 -1209 
Q 1325 -1331 1038 -1331 
L 575 -1331 
L 575 -850 
L 916 -850 
Q 1169 -850 1312 -703 
Q 1456 -556 1678 56 
L 325 3500 
L 934 3500 
L 1972 763 
L 2994 3500 
L 3603 3500 
L 2681 1125 
z
" transform="scale(0.015625)"/>
        <path id="DejaVuSansMono-5f" d="M 3853 -1259 
L 3853 -1509 
L 0 -1509 
L 0 -1259 
L 3853 -1259 
z
" transform="scale(0.015625)"/>
        <path id="DejaVuSansMono-6f" d="M 1925 3097 
Q 1488 3097 1263 2756 
Q 1038 2416 1038 1747 
Q 1038 1081 1263 739 
Q 1488 397 1925 397 
Q 2366 397 2591 739 
Q 2816 1081 2816 1747 
Q 2816 2416 2591 2756 
Q 2366 3097 1925 3097 
z
M 1925 3584 
Q 2653 3584 3039 3112 
Q 3425 2641 3425 1747 
Q 3425 850 3040 379 
Q 2656 -91 1925 -91 
Q 1197 -91 812 379 
Q 428 850 428 1747 
Q 428 2641 812 3112 
Q 1197 3584 1925 3584 
z
" transform="scale(0.015625)"/>
        <path id="DejaVuSansMono-6d" d="M 2113 3144 
Q 2219 3369 2383 3476 
Q 2547 3584 2778 3584 
Q 3200 3584 3373 3257 
Q 3547 2931 3547 2028 
L 3547 0 
L 3022 0 
L 3022 2003 
Q 3022 2744 2939 2923 
Q 2856 3103 2638 3103 
Q 2388 3103 2295 2911 
Q 2203 2719 2203 2003 
L 2203 0 
L 1678 0 
L 1678 2003 
Q 1678 2753 1589 2928 
Q 1500 3103 1269 3103 
Q 1041 3103 952 2911 
Q 863 2719 863 2003 
L 863 0 
L 341 0 
L 341 3500 
L 863 3500 
L 863 3200 
Q 966 3388 1120 3486 
Q 1275 3584 1472 3584 
Q 1709 3584 1867 3475 
Q 2025 3366 2113 3144 
z
" transform="scale(0.015625)"/>
       </defs>
       <use xlink:href="#DejaVuSansMono-61"/>
       <use xlink:href="#DejaVuSansMono-74" transform="translate(60.205078 0)"/>
       <use xlink:href="#DejaVuSansMono-65" transform="translate(120.410156 0)"/>
       <use xlink:href="#DejaVuSansMono-6e" transform="translate(180.615234 0)"/>
       <use xlink:href="#DejaVuSansMono-3a" transform="translate(240.820312 0)"/>
       <use xlink:href="#DejaVuSansMono-3a" transform="translate(301.025391 0)"/>
       <use xlink:href="#DejaVuSansMono-6c" transform="translate(361.230469 0)"/>
       <use xlink:href="#DejaVuSansMono-61" transform="translate(421.435547 0)"/>
       <use xlink:href="#DejaVuSansMono-79" transform="translate(481.640625 0)"/>
       <use xlink:href="#DejaVuSansMono-65" transform="translate(541.845703 0)"/>
       <use xlink:href="#DejaVuSansMono-72" transform="translate(602.050781 0)"/>
       <use xlink:href="#DejaVuSansMono-5f" transform="translate(662.255859 0)"/>
       <use xlink:href="#DejaVuSansMono-6e" transform="translate(722.460938 0)"/>
       <use xlink:href="#DejaVuSansMono-6f" transform="translate(782.666016 0)"/>
       <use xlink:href="#DejaVuSansMono-72" transform="translate(842.871094 0)"/>
       <use xlink:href="#DejaVuSansMono-6d" transform="translate(903.076172 0)"/>
      </g>
     </g>
    </g>
    <g id="xtick_3">
     <g id="line2d_3">
      <g>
       <use xlink:href="#m9c62955623" x="375.902613" y="313.959467" style="stroke: #000000; stroke-width: 0.8"/>
      </g>
     </g>
     <g id="text_3">
      <!-- aten::native_layer_norm -->
      <g transform="translate(249.646741 415.217707) rotate(-35) scale(0.11 -0.11)">
       <defs>
        <path id="DejaVuSansMono-76" d="M 313 3500 
L 909 3500 
L 1925 563 
L 2944 3500 
L 3541 3500 
L 2297 0 
L 1556 0 
L 313 3500 
z
" transform="scale(0.015625)"/>
       </defs>
       <use xlink:href="#DejaVuSansMono-61"/>
       <use xlink:href="#DejaVuSansMono-74" transform="translate(60.205078 0)"/>
       <use xlink:href="#DejaVuSansMono-65" transform="translate(120.410156 0)"/>
       <use xlink:href="#DejaVuSansMono-6e" transform="translate(180.615234 0)"/>
       <use xlink:href="#DejaVuSansMono-3a" transform="translate(240.820312 0)"/>
       <use xlink:href="#DejaVuSansMono-3a" transform="translate(301.025391 0)"/>
       <use xlink:href="#DejaVuSansMono-6e" transform="translate(361.230469 0)"/>
       <use xlink:href="#DejaVuSansMono-61" transform="translate(421.435547 0)"/>
       <use xlink:href="#DejaVuSansMono-74" transform="translate(481.640625 0)"/>
       <use xlink:href="#DejaVuSansMono-69" transform="translate(541.845703 0)"/>
       <use xlink:href="#DejaVuSansMono-76" transform="translate(602.050781 0)"/>
       <use xlink:href="#DejaVuSansMono-65" transform="translate(662.255859 0)"/>
       <use xlink:href="#DejaVuSansMono-5f" transform="translate(722.460938 0)"/>
       <use xlink:href="#DejaVuSansMono-6c" transform="translate(782.666016 0)"/>
       <use xlink:href="#DejaVuSansMono-61" transform="translate(842.871094 0)"/>
       <use xlink:href="#DejaVuSansMono-79" transform="translate(903.076172 0)"/>
       <use xlink:href="#DejaVuSansMono-65" transform="translate(963.28125 0)"/>
       <use xlink:href="#DejaVuSansMono-72" transform="translate(1023.486328 0)"/>
       <use xlink:href="#DejaVuSansMono-5f" transform="translate(1083.691406 0)"/>
       <use xlink:href="#DejaVuSansMono-6e" transform="translate(1143.896484 0)"/>
       <use xlink:href="#DejaVuSansMono-6f" transform="translate(1204.101562 0)"/>
       <use xlink:href="#DejaVuSansMono-72" transform="translate(1264.306641 0)"/>
       <use xlink:href="#DejaVuSansMono-6d" transform="translate(1324.511719 0)"/>
      </g>
     </g>
    </g>
    <g id="xtick_4">
     <g id="line2d_4">
      <g>
       <use xlink:href="#m9c62955623" x="508.989022" y="313.959467" style="stroke: #000000; stroke-width: 0.8"/>
      </g>
     </g>
     <g id="text_4">
      <!-- aten::sigmoid -->
      <g transform="translate(437.112316 377.185635) rotate(-35) scale(0.11 -0.11)">
       <defs>
        <path id="DejaVuSansMono-73" d="M 3041 3378 
L 3041 2816 
Q 2794 2959 2544 3031 
Q 2294 3103 2034 3103 
Q 1644 3103 1451 2976 
Q 1259 2850 1259 2591 
Q 1259 2356 1403 2240 
Q 1547 2125 2119 2016 
L 2350 1972 
Q 2778 1891 2998 1647 
Q 3219 1403 3219 1013 
Q 3219 494 2850 201 
Q 2481 -91 1825 -91 
Q 1566 -91 1281 -36 
Q 997 19 666 128 
L 666 722 
Q 988 556 1281 473 
Q 1575 391 1838 391 
Q 2219 391 2428 545 
Q 2638 700 2638 978 
Q 2638 1378 1872 1531 
L 1847 1538 
L 1631 1581 
Q 1134 1678 906 1908 
Q 678 2138 678 2534 
Q 678 3038 1018 3311 
Q 1359 3584 1991 3584 
Q 2272 3584 2531 3532 
Q 2791 3481 3041 3378 
z
" transform="scale(0.015625)"/>
        <path id="DejaVuSansMono-67" d="M 2681 1778 
Q 2681 2425 2470 2761 
Q 2259 3097 1856 3097 
Q 1434 3097 1212 2761 
Q 991 2425 991 1778 
Q 991 1131 1214 792 
Q 1438 453 1863 453 
Q 2259 453 2470 793 
Q 2681 1134 2681 1778 
z
M 3256 225 
Q 3256 -563 2884 -969 
Q 2513 -1375 1791 -1375 
Q 1553 -1375 1293 -1331 
Q 1034 -1288 775 -1203 
L 775 -634 
Q 1081 -778 1331 -847 
Q 1581 -916 1791 -916 
Q 2256 -916 2468 -662 
Q 2681 -409 2681 141 
L 2681 166 
L 2681 556 
Q 2544 263 2306 119 
Q 2069 -25 1728 -25 
Q 1116 -25 750 465 
Q 384 956 384 1778 
Q 384 2603 750 3093 
Q 1116 3584 1728 3584 
Q 2066 3584 2300 3450 
Q 2534 3316 2681 3034 
L 2681 3488 
L 3256 3488 
L 3256 225 
z
" transform="scale(0.015625)"/>
        <path id="DejaVuSansMono-64" d="M 2681 3053 
L 2681 4863 
L 3256 4863 
L 3256 0 
L 2681 0 
L 2681 441 
Q 2538 181 2298 45 
Q 2059 -91 1747 -91 
Q 1113 -91 748 401 
Q 384 894 384 1759 
Q 384 2613 750 3098 
Q 1116 3584 1747 3584 
Q 2063 3584 2303 3448 
Q 2544 3313 2681 3053 
z
M 991 1747 
Q 991 1078 1203 737 
Q 1416 397 1831 397 
Q 2247 397 2464 740 
Q 2681 1084 2681 1747 
Q 2681 2413 2464 2755 
Q 2247 3097 1831 3097 
Q 1416 3097 1203 2756 
Q 991 2416 991 1747 
z
" transform="scale(0.015625)"/>
       </defs>
       <use xlink:href="#DejaVuSansMono-61"/>
       <use xlink:href="#DejaVuSansMono-74" transform="translate(60.205078 0)"/>
       <use xlink:href="#DejaVuSansMono-65" transform="translate(120.410156 0)"/>
       <use xlink:href="#DejaVuSansMono-6e" transform="translate(180.615234 0)"/>
       <use xlink:href="#DejaVuSansMono-3a" transform="translate(240.820312 0)"/>
       <use xlink:href="#DejaVuSansMono-3a" transform="translate(301.025391 0)"/>
       <use xlink:href="#DejaVuSansMono-73" transform="translate(361.230469 0)"/>
       <use xlink:href="#DejaVuSansMono-69" transform="translate(421.435547 0)"/>
       <use xlink:href="#DejaVuSansMono-67" transform="translate(481.640625 0)"/>
       <use xlink:href="#DejaVuSansMono-6d" transform="translate(541.845703 0)"/>
       <use xlink:href="#DejaVuSansMono-6f" transform="translate(602.050781 0)"/>
       <use xlink:href="#DejaVuSansMono-69" transform="translate(662.255859 0)"/>
       <use xlink:href="#DejaVuSansMono-64" transform="translate(722.460938 0)"/>
      </g>
     </g>
    </g>
    <g id="xtick_5">
     <g id="line2d_5">
      <g>
       <use xlink:href="#m9c62955623" x="642.075431" y="313.959467" style="stroke: #000000; stroke-width: 0.8"/>
      </g>
     </g>
     <g id="text_5">
      <!-- aten::silu -->
      <g transform="translate(586.516221 365.838243) rotate(-35) scale(0.11 -0.11)">
       <defs>
        <path id="DejaVuSansMono-75" d="M 609 1325 
L 609 3494 
L 1184 3494 
L 1184 1325 
Q 1184 853 1351 631 
Q 1519 409 1869 409 
Q 2275 409 2490 695 
Q 2706 981 2706 1516 
L 2706 3494 
L 3284 3494 
L 3284 0 
L 2706 0 
L 2706 525 
Q 2553 222 2289 65 
Q 2025 -91 1672 -91 
Q 1134 -91 871 261 
Q 609 613 609 1325 
z
" transform="scale(0.015625)"/>
       </defs>
       <use xlink:href="#DejaVuSansMono-61"/>
       <use xlink:href="#DejaVuSansMono-74" transform="translate(60.205078 0)"/>
       <use xlink:href="#DejaVuSansMono-65" transform="translate(120.410156 0)"/>
       <use xlink:href="#DejaVuSansMono-6e" transform="translate(180.615234 0)"/>
       <use xlink:href="#DejaVuSansMono-3a" transform="translate(240.820312 0)"/>
       <use xlink:href="#DejaVuSansMono-3a" transform="translate(301.025391 0)"/>
       <use xlink:href="#DejaVuSansMono-73" transform="translate(361.230469 0)"/>
       <use xlink:href="#DejaVuSansMono-69" transform="translate(421.435547 0)"/>
       <use xlink:href="#DejaVuSansMono-6c" transform="translate(481.640625 0)"/>
       <use xlink:href="#DejaVuSansMono-75" transform="translate(541.845703 0)"/>
      </g>
     </g>
    </g>
   </g>
   <g id="matplotlib.axis_2">
    <g id="ytick_1">
     <g id="line2d_6">
      <path d="M 46.51375 313.959467 
L 705.291475 313.959467 
" clip-path="url(#p2a80917bb4)" style="fill: none; stroke: #b0b0b0; stroke-opacity: 0.3; stroke-width: 0.8; stroke-linecap: square"/>
     </g>
     <g id="line2d_7">
      <defs>
       <path id="mb535705075" d="M 0 0 
L -3.5 0 
" style="stroke: #000000; stroke-width: 0.8"/>
      </defs>
      <g>
       <use xlink:href="#mb535705075" x="46.51375" y="313.959467" style="stroke: #000000; stroke-width: 0.8"/>
      </g>
     </g>
     <g id="text_6">
      <!-- $\mathdefault{10^{0}}$ -->
      <g transform="translate(22.81375 317.785248) scale(0.1 -0.1)">
       <defs>
        <path id="DejaVuSansMono-31" d="M 844 531 
L 1825 531 
L 1825 4097 
L 769 3859 
L 769 4434 
L 1819 4666 
L 2450 4666 
L 2450 531 
L 3419 531 
L 3419 0 
L 844 0 
L 844 531 
z
" transform="scale(0.015625)"/>
        <path id="DejaVuSansMono-30" d="M 1509 2344 
Q 1509 2516 1629 2641 
Q 1750 2766 1919 2766 
Q 2094 2766 2219 2641 
Q 2344 2516 2344 2344 
Q 2344 2169 2220 2047 
Q 2097 1925 1919 1925 
Q 1744 1925 1626 2044 
Q 1509 2163 1509 2344 
z
M 1925 4250 
Q 1484 4250 1267 3775 
Q 1050 3300 1050 2328 
Q 1050 1359 1267 884 
Q 1484 409 1925 409 
Q 2369 409 2586 884 
Q 2803 1359 2803 2328 
Q 2803 3300 2586 3775 
Q 2369 4250 1925 4250 
z
M 1925 4750 
Q 2672 4750 3055 4137 
Q 3438 3525 3438 2328 
Q 3438 1134 3055 521 
Q 2672 -91 1925 -91 
Q 1178 -91 797 521 
Q 416 1134 416 2328 
Q 416 3525 797 4137 
Q 1178 4750 1925 4750 
z
" transform="scale(0.015625)"/>
       </defs>
       <use xlink:href="#DejaVuSansMono-31" transform="translate(0 0.765625)"/>
       <use xlink:href="#DejaVuSansMono-30" transform="translate(60.205078 0.765625)"/>
       <use xlink:href="#DejaVuSansMono-30" transform="translate(121.367188 39.046875) scale(0.7)"/>
      </g>
     </g>
    </g>
    <g id="ytick_2">
     <g id="line2d_8">
      <path d="M 46.51375 253.37273 
L 705.291475 253.37273 
" clip-path="url(#p2a80917bb4)" style="fill: none; stroke: #b0b0b0; stroke-opacity: 0.3; stroke-width: 0.8; stroke-linecap: square"/>
     </g>
     <g id="line2d_9">
      <g>
       <use xlink:href="#mb535705075" x="46.51375" y="253.37273" style="stroke: #000000; stroke-width: 0.8"/>
      </g>
     </g>
     <g id="text_7">
      <!-- $\mathdefault{10^{1}}$ -->
      <g transform="translate(22.81375 257.198511) scale(0.1 -0.1)">
       <use xlink:href="#DejaVuSansMono-31" transform="translate(0 0.684375)"/>
       <use xlink:href="#DejaVuSansMono-30" transform="translate(60.205078 0.684375)"/>
       <use xlink:href="#DejaVuSansMono-31" transform="translate(121.367188 38.965625) scale(0.7)"/>
      </g>
     </g>
    </g>
    <g id="ytick_3">
     <g id="line2d_10">
      <path d="M 46.51375 192.785993 
L 705.291475 192.785993 
" clip-path="url(#p2a80917bb4)" style="fill: none; stroke: #b0b0b0; stroke-opacity: 0.3; stroke-width: 0.8; stroke-linecap: square"/>
     </g>
     <g id="line2d_11">
      <g>
       <use xlink:href="#mb535705075" x="46.51375" y="192.785993" style="stroke: #000000; stroke-width: 0.8"/>
      </g>
     </g>
     <g id="text_8">
      <!-- $\mathdefault{10^{2}}$ -->
      <g transform="translate(22.81375 196.611774) scale(0.1 -0.1)">
       <defs>
        <path id="DejaVuSansMono-32" d="M 1166 531 
L 3309 531 
L 3309 0 
L 475 0 
L 475 531 
Q 1059 1147 1496 1619 
Q 1934 2091 2100 2284 
Q 2413 2666 2522 2902 
Q 2631 3138 2631 3384 
Q 2631 3775 2401 3997 
Q 2172 4219 1772 4219 
Q 1488 4219 1175 4116 
Q 863 4013 513 3803 
L 513 4441 
Q 834 4594 1145 4672 
Q 1456 4750 1759 4750 
Q 2444 4750 2861 4386 
Q 3278 4022 3278 3431 
Q 3278 3131 3139 2831 
Q 3000 2531 2688 2169 
Q 2513 1966 2180 1606 
Q 1847 1247 1166 531 
z
" transform="scale(0.015625)"/>
       </defs>
       <use xlink:href="#DejaVuSansMono-31" transform="translate(0 0.765625)"/>
       <use xlink:href="#DejaVuSansMono-30" transform="translate(60.205078 0.765625)"/>
       <use xlink:href="#DejaVuSansMono-32" transform="translate(121.367188 39.046875) scale(0.7)"/>
      </g>
     </g>
    </g>
    <g id="ytick_4">
     <g id="line2d_12">
      <path d="M 46.51375 132.199256 
L 705.291475 132.199256 
" clip-path="url(#p2a80917bb4)" style="fill: none; stroke: #b0b0b0; stroke-opacity: 0.3; stroke-width: 0.8; stroke-linecap: square"/>
     </g>
     <g id="line2d_13">
      <g>
       <use xlink:href="#mb535705075" x="46.51375" y="132.199256" style="stroke: #000000; stroke-width: 0.8"/>
      </g>
     </g>
     <g id="text_9">
      <!-- $\mathdefault{10^{3}}$ -->
      <g transform="translate(22.81375 136.025037) scale(0.1 -0.1)">
       <defs>
        <path id="DejaVuSansMono-33" d="M 2425 2497 
Q 2884 2375 3128 2064 
Q 3372 1753 3372 1288 
Q 3372 644 2939 276 
Q 2506 -91 1741 -91 
Q 1419 -91 1084 -31 
Q 750 28 428 141 
L 428 769 
Q 747 603 1056 522 
Q 1366 441 1672 441 
Q 2191 441 2469 675 
Q 2747 909 2747 1350 
Q 2747 1756 2469 1995 
Q 2191 2234 1716 2234 
L 1234 2234 
L 1234 2753 
L 1716 2753 
Q 2150 2753 2394 2943 
Q 2638 3134 2638 3475 
Q 2638 3834 2411 4026 
Q 2184 4219 1766 4219 
Q 1488 4219 1191 4156 
Q 894 4094 569 3969 
L 569 4550 
Q 947 4650 1242 4700 
Q 1538 4750 1766 4750 
Q 2447 4750 2855 4408 
Q 3263 4066 3263 3500 
Q 3263 3116 3048 2859 
Q 2834 2603 2425 2497 
z
" transform="scale(0.015625)"/>
       </defs>
       <use xlink:href="#DejaVuSansMono-31" transform="translate(0 0.765625)"/>
       <use xlink:href="#DejaVuSansMono-30" transform="translate(60.205078 0.765625)"/>
       <use xlink:href="#DejaVuSansMono-33" transform="translate(121.367188 39.046875) scale(0.7)"/>
      </g>
     </g>
    </g>
    <g id="ytick_5">
     <g id="line2d_14">
      <path d="M 46.51375 71.612518 
L 705.291475 71.612518 
" clip-path="url(#p2a80917bb4)" style="fill: none; stroke: #b0b0b0; stroke-opacity: 0.3; stroke-width: 0.8; stroke-linecap: square"/>
     </g>
     <g id="line2d_15">
      <g>
       <use xlink:href="#mb535705075" x="46.51375" y="71.612518" style="stroke: #000000; stroke-width: 0.8"/>
      </g>
     </g>
     <g id="text_10">
      <!-- $\mathdefault{10^{4}}$ -->
      <g transform="translate(22.81375 75.4383) scale(0.1 -0.1)">
       <defs>
        <path id="DejaVuSansMono-34" d="M 2297 4091 
L 825 1625 
L 2297 1625 
L 2297 4091 
z
M 2194 4666 
L 2925 4666 
L 2925 1625 
L 3547 1625 
L 3547 1113 
L 2925 1113 
L 2925 0 
L 2297 0 
L 2297 1113 
L 319 1113 
L 319 1709 
L 2194 4666 
z
" transform="scale(0.015625)"/>
       </defs>
       <use xlink:href="#DejaVuSansMono-31" transform="translate(0 0.684375)"/>
       <use xlink:href="#DejaVuSansMono-30" transform="translate(60.205078 0.684375)"/>
       <use xlink:href="#DejaVuSansMono-34" transform="translate(121.367188 38.965625) scale(0.7)"/>
      </g>
     </g>
    </g>
    <g id="ytick_6">
     <g id="line2d_16">
      <path d="M 46.51375 11.025781 
L 705.291475 11.025781 
" clip-path="url(#p2a80917bb4)" style="fill: none; stroke: #b0b0b0; stroke-opacity: 0.3; stroke-width: 0.8; stroke-linecap: square"/>
     </g>
     <g id="line2d_17">
      <g>
       <use xlink:href="#mb535705075" x="46.51375" y="11.025781" style="stroke: #000000; stroke-width: 0.8"/>
      </g>
     </g>
     <g id="text_11">
      <!-- $\mathdefault{10^{5}}$ -->
      <g transform="translate(22.81375 14.851562) scale(0.1 -0.1)">
       <defs>
        <path id="DejaVuSansMono-35" d="M 647 4666 
L 3009 4666 
L 3009 4134 
L 1222 4134 
L 1222 2988 
Q 1356 3038 1492 3061 
Q 1628 3084 1766 3084 
Q 2491 3084 2916 2656 
Q 3341 2228 3341 1497 
Q 3341 759 2895 334 
Q 2450 -91 1678 -91 
Q 1306 -91 998 -41 
Q 691 9 447 109 
L 447 750 
Q 734 594 1025 517 
Q 1316 441 1619 441 
Q 2141 441 2423 716 
Q 2706 991 2706 1497 
Q 2706 1997 2414 2275 
Q 2122 2553 1600 2553 
Q 1347 2553 1106 2495 
Q 866 2438 647 2322 
L 647 4666 
z
" transform="scale(0.015625)"/>
       </defs>
       <use xlink:href="#DejaVuSansMono-31" transform="translate(0 0.684375)"/>
       <use xlink:href="#DejaVuSansMono-30" transform="translate(60.205078 0.684375)"/>
       <use xlink:href="#DejaVuSansMono-35" transform="translate(121.367188 38.965625) scale(0.7)"/>
      </g>
     </g>
    </g>
    <g id="ytick_7">
     <g id="line2d_18">
      <defs>
       <path id="m6274daea13" d="M 0 0 
L -2 0 
" style="stroke: #000000; stroke-width: 0.6"/>
      </defs>
      <g>
       <use xlink:href="#m6274daea13" x="46.51375" y="295.721042" style="stroke: #000000; stroke-width: 0.6"/>
      </g>
     </g>
    </g>
    <g id="ytick_8">
     <g id="line2d_19">
      <g>
       <use xlink:href="#m6274daea13" x="46.51375" y="285.052247" style="stroke: #000000; stroke-width: 0.6"/>
      </g>
     </g>
    </g>
    <g id="ytick_9">
     <g id="line2d_20">
      <g>
       <use xlink:href="#m6274daea13" x="46.51375" y="277.482617" style="stroke: #000000; stroke-width: 0.6"/>
      </g>
     </g>
    </g>
    <g id="ytick_10">
     <g id="line2d_21">
      <g>
       <use xlink:href="#m6274daea13" x="46.51375" y="271.611155" style="stroke: #000000; stroke-width: 0.6"/>
      </g>
     </g>
    </g>
    <g id="ytick_11">
     <g id="line2d_22">
      <g>
       <use xlink:href="#m6274daea13" x="46.51375" y="266.813822" style="stroke: #000000; stroke-width: 0.6"/>
      </g>
     </g>
    </g>
    <g id="ytick_12">
     <g id="line2d_23">
      <g>
       <use xlink:href="#m6274daea13" x="46.51375" y="262.757734" style="stroke: #000000; stroke-width: 0.6"/>
      </g>
     </g>
    </g>
    <g id="ytick_13">
     <g id="line2d_24">
      <g>
       <use xlink:href="#m6274daea13" x="46.51375" y="259.244192" style="stroke: #000000; stroke-width: 0.6"/>
      </g>
     </g>
    </g>
    <g id="ytick_14">
     <g id="line2d_25">
      <g>
       <use xlink:href="#m6274daea13" x="46.51375" y="256.145027" style="stroke: #000000; stroke-width: 0.6"/>
      </g>
     </g>
    </g>
    <g id="ytick_15">
     <g id="line2d_26">
      <g>
       <use xlink:href="#m6274daea13" x="46.51375" y="235.134305" style="stroke: #000000; stroke-width: 0.6"/>
      </g>
     </g>
    </g>
    <g id="ytick_16">
     <g id="line2d_27">
      <g>
       <use xlink:href="#m6274daea13" x="46.51375" y="224.46551" style="stroke: #000000; stroke-width: 0.6"/>
      </g>
     </g>
    </g>
    <g id="ytick_17">
     <g id="line2d_28">
      <g>
       <use xlink:href="#m6274daea13" x="46.51375" y="216.89588" style="stroke: #000000; stroke-width: 0.6"/>
      </g>
     </g>
    </g>
    <g id="ytick_18">
     <g id="line2d_29">
      <g>
       <use xlink:href="#m6274daea13" x="46.51375" y="211.024418" style="stroke: #000000; stroke-width: 0.6"/>
      </g>
     </g>
    </g>
    <g id="ytick_19">
     <g id="line2d_30">
      <g>
       <use xlink:href="#m6274daea13" x="46.51375" y="206.227085" style="stroke: #000000; stroke-width: 0.6"/>
      </g>
     </g>
    </g>
    <g id="ytick_20">
     <g id="line2d_31">
      <g>
       <use xlink:href="#m6274daea13" x="46.51375" y="202.170997" style="stroke: #000000; stroke-width: 0.6"/>
      </g>
     </g>
    </g>
    <g id="ytick_21">
     <g id="line2d_32">
      <g>
       <use xlink:href="#m6274daea13" x="46.51375" y="198.657454" style="stroke: #000000; stroke-width: 0.6"/>
      </g>
     </g>
    </g>
    <g id="ytick_22">
     <g id="line2d_33">
      <g>
       <use xlink:href="#m6274daea13" x="46.51375" y="195.55829" style="stroke: #000000; stroke-width: 0.6"/>
      </g>
     </g>
    </g>
    <g id="ytick_23">
     <g id="line2d_34">
      <g>
       <use xlink:href="#m6274daea13" x="46.51375" y="174.547568" style="stroke: #000000; stroke-width: 0.6"/>
      </g>
     </g>
    </g>
    <g id="ytick_24">
     <g id="line2d_35">
      <g>
       <use xlink:href="#m6274daea13" x="46.51375" y="163.878773" style="stroke: #000000; stroke-width: 0.6"/>
      </g>
     </g>
    </g>
    <g id="ytick_25">
     <g id="line2d_36">
      <g>
       <use xlink:href="#m6274daea13" x="46.51375" y="156.309142" style="stroke: #000000; stroke-width: 0.6"/>
      </g>
     </g>
    </g>
    <g id="ytick_26">
     <g id="line2d_37">
      <g>
       <use xlink:href="#m6274daea13" x="46.51375" y="150.437681" style="stroke: #000000; stroke-width: 0.6"/>
      </g>
     </g>
    </g>
    <g id="ytick_27">
     <g id="line2d_38">
      <g>
       <use xlink:href="#m6274daea13" x="46.51375" y="145.640348" style="stroke: #000000; stroke-width: 0.6"/>
      </g>
     </g>
    </g>
    <g id="ytick_28">
     <g id="line2d_39">
      <g>
       <use xlink:href="#m6274daea13" x="46.51375" y="141.58426" style="stroke: #000000; stroke-width: 0.6"/>
      </g>
     </g>
    </g>
    <g id="ytick_29">
     <g id="line2d_40">
      <g>
       <use xlink:href="#m6274daea13" x="46.51375" y="138.070717" style="stroke: #000000; stroke-width: 0.6"/>
      </g>
     </g>
    </g>
    <g id="ytick_30">
     <g id="line2d_41">
      <g>
       <use xlink:href="#m6274daea13" x="46.51375" y="134.971553" style="stroke: #000000; stroke-width: 0.6"/>
      </g>
     </g>
    </g>
    <g id="ytick_31">
     <g id="line2d_42">
      <g>
       <use xlink:href="#m6274daea13" x="46.51375" y="113.96083" style="stroke: #000000; stroke-width: 0.6"/>
      </g>
     </g>
    </g>
    <g id="ytick_32">
     <g id="line2d_43">
      <g>
       <use xlink:href="#m6274daea13" x="46.51375" y="103.292036" style="stroke: #000000; stroke-width: 0.6"/>
      </g>
     </g>
    </g>
    <g id="ytick_33">
     <g id="line2d_44">
      <g>
       <use xlink:href="#m6274daea13" x="46.51375" y="95.722405" style="stroke: #000000; stroke-width: 0.6"/>
      </g>
     </g>
    </g>
    <g id="ytick_34">
     <g id="line2d_45">
      <g>
       <use xlink:href="#m6274daea13" x="46.51375" y="89.850944" style="stroke: #000000; stroke-width: 0.6"/>
      </g>
     </g>
    </g>
    <g id="ytick_35">
     <g id="line2d_46">
      <g>
       <use xlink:href="#m6274daea13" x="46.51375" y="85.05361" style="stroke: #000000; stroke-width: 0.6"/>
      </g>
     </g>
    </g>
    <g id="ytick_36">
     <g id="line2d_47">
      <g>
       <use xlink:href="#m6274daea13" x="46.51375" y="80.997523" style="stroke: #000000; stroke-width: 0.6"/>
      </g>
     </g>
    </g>
    <g id="ytick_37">
     <g id="line2d_48">
      <g>
       <use xlink:href="#m6274daea13" x="46.51375" y="77.48398" style="stroke: #000000; stroke-width: 0.6"/>
      </g>
     </g>
    </g>
    <g id="ytick_38">
     <g id="line2d_49">
      <g>
       <use xlink:href="#m6274daea13" x="46.51375" y="74.384816" style="stroke: #000000; stroke-width: 0.6"/>
      </g>
     </g>
    </g>
    <g id="ytick_39">
     <g id="line2d_50">
      <g>
       <use xlink:href="#m6274daea13" x="46.51375" y="53.374093" style="stroke: #000000; stroke-width: 0.6"/>
      </g>
     </g>
    </g>
    <g id="ytick_40">
     <g id="line2d_51">
      <g>
       <use xlink:href="#m6274daea13" x="46.51375" y="42.705298" style="stroke: #000000; stroke-width: 0.6"/>
      </g>
     </g>
    </g>
    <g id="ytick_41">
     <g id="line2d_52">
      <g>
       <use xlink:href="#m6274daea13" x="46.51375" y="35.135668" style="stroke: #000000; stroke-width: 0.6"/>
      </g>
     </g>
    </g>
    <g id="ytick_42">
     <g id="line2d_53">
      <g>
       <use xlink:href="#m6274daea13" x="46.51375" y="29.264206" style="stroke: #000000; stroke-width: 0.6"/>
      </g>
     </g>
    </g>
    <g id="ytick_43">
     <g id="line2d_54">
      <g>
       <use xlink:href="#m6274daea13" x="46.51375" y="24.466873" style="stroke: #000000; stroke-width: 0.6"/>
      </g>
     </g>
    </g>
    <g id="ytick_44">
     <g id="line2d_55">
      <g>
       <use xlink:href="#m6274daea13" x="46.51375" y="20.410786" style="stroke: #000000; stroke-width: 0.6"/>
      </g>
     </g>
    </g>
    <g id="ytick_45">
     <g id="line2d_56">
      <g>
       <use xlink:href="#m6274daea13" x="46.51375" y="16.897243" style="stroke: #000000; stroke-width: 0.6"/>
      </g>
     </g>
    </g>
    <g id="ytick_46">
     <g id="line2d_57">
      <g>
       <use xlink:href="#m6274daea13" x="46.51375" y="13.798078" style="stroke: #000000; stroke-width: 0.6"/>
      </g>
     </g>
    </g>
    <g id="text_12">
     <!-- Call Count (Log Scale) -->
     <g transform="translate(16.318125 241.960749) rotate(-90) scale(0.12 -0.12)">
      <defs>
       <path id="DejaVuSansMono-Bold-43" d="M 3378 134 
Q 3159 22 2918 -34 
Q 2678 -91 2413 -91 
Q 1469 -91 972 531 
Q 475 1153 475 2328 
Q 475 3506 972 4128 
Q 1469 4750 2413 4750 
Q 2678 4750 2922 4694 
Q 3166 4638 3378 4525 
L 3378 3500 
Q 3141 3719 2917 3820 
Q 2694 3922 2456 3922 
Q 1950 3922 1692 3520 
Q 1434 3119 1434 2328 
Q 1434 1541 1692 1139 
Q 1950 738 2456 738 
Q 2694 738 2917 839 
Q 3141 941 3378 1159 
L 3378 134 
z
" transform="scale(0.015625)"/>
       <path id="DejaVuSansMono-Bold-61" d="M 2188 1644 
Q 1675 1644 1472 1512 
Q 1269 1381 1269 1063 
Q 1269 825 1409 684 
Q 1550 544 1791 544 
Q 2153 544 2353 817 
Q 2553 1091 2553 1581 
L 2553 1644 
L 2188 1644 
z
M 3463 1997 
L 3463 0 
L 2553 0 
L 2553 391 
Q 2388 159 2128 34 
Q 1869 -91 1556 -91 
Q 959 -91 626 225 
Q 294 541 294 1106 
Q 294 1719 691 2011 
Q 1088 2303 1919 2303 
L 2553 2303 
L 2553 2456 
Q 2553 2678 2392 2792 
Q 2231 2906 1919 2906 
Q 1591 2906 1283 2823 
Q 975 2741 641 2559 
L 641 3341 
Q 944 3466 1256 3525 
Q 1569 3584 1919 3584 
Q 2772 3584 3117 3237 
Q 3463 2891 3463 1997 
z
" transform="scale(0.015625)"/>
       <path id="DejaVuSansMono-Bold-6c" d="M 1209 1459 
L 1209 4159 
L 281 4159 
L 281 4863 
L 2125 4863 
L 2125 1459 
Q 2125 1047 2253 875 
Q 2381 703 2688 703 
L 3419 703 
L 3419 0 
L 2431 0 
Q 1778 0 1493 337 
Q 1209 675 1209 1459 
z
" transform="scale(0.015625)"/>
       <path id="DejaVuSansMono-Bold-20" transform="scale(0.015625)"/>
       <path id="DejaVuSansMono-Bold-6f" d="M 1925 2841 
Q 1597 2841 1409 2552 
Q 1222 2263 1222 1747 
Q 1222 1231 1409 942 
Q 1597 653 1925 653 
Q 2256 653 2443 942 
Q 2631 1231 2631 1747 
Q 2631 2263 2443 2552 
Q 2256 2841 1925 2841 
z
M 306 1747 
Q 306 2594 745 3089 
Q 1184 3584 1925 3584 
Q 2669 3584 3108 3089 
Q 3547 2594 3547 1747 
Q 3547 900 3108 404 
Q 2669 -91 1925 -91 
Q 1184 -91 745 404 
Q 306 900 306 1747 
z
" transform="scale(0.015625)"/>
       <path id="DejaVuSansMono-Bold-75" d="M 500 1222 
L 500 3500 
L 1416 3500 
L 1416 1363 
Q 1416 984 1522 821 
Q 1628 659 1875 659 
Q 2122 659 2261 878 
Q 2400 1097 2400 1491 
L 2400 3500 
L 3316 3500 
L 3316 0 
L 2400 0 
L 2400 519 
Q 2303 228 2070 68 
Q 1838 -91 1509 -91 
Q 1009 -91 754 240 
Q 500 572 500 1222 
z
" transform="scale(0.015625)"/>
       <path id="DejaVuSansMono-Bold-6e" d="M 3347 2272 
L 3347 0 
L 2438 0 
L 2438 2131 
Q 2438 2513 2330 2677 
Q 2222 2841 1978 2841 
Q 1731 2841 1589 2619 
Q 1447 2397 1447 2003 
L 1447 0 
L 538 0 
L 538 3500 
L 1447 3500 
L 1447 2975 
Q 1544 3266 1778 3425 
Q 2013 3584 2344 3584 
Q 2841 3584 3094 3254 
Q 3347 2925 3347 2272 
z
" transform="scale(0.015625)"/>
       <path id="DejaVuSansMono-Bold-74" d="M 2156 4494 
L 2156 3500 
L 3353 3500 
L 3353 2797 
L 2156 2797 
L 2156 1141 
Q 2156 906 2270 804 
Q 2384 703 2650 703 
L 3353 703 
L 3353 0 
L 2584 0 
Q 1797 0 1519 251 
Q 1241 503 1241 1184 
L 1241 2797 
L 347 2797 
L 347 3500 
L 1241 3500 
L 1241 4494 
L 2156 4494 
z
" transform="scale(0.015625)"/>
       <path id="DejaVuSansMono-Bold-28" d="M 2888 4856 
Q 2475 4109 2275 3409 
Q 2075 2709 2075 2009 
Q 2075 1316 2275 611 
Q 2475 -94 2888 -844 
L 2175 -844 
Q 1678 -122 1437 579 
Q 1197 1281 1197 2009 
Q 1197 2734 1439 3439 
Q 1681 4144 2175 4856 
L 2888 4856 
z
" transform="scale(0.015625)"/>
       <path id="DejaVuSansMono-Bold-4c" d="M 703 0 
L 703 4666 
L 1625 4666 
L 1625 813 
L 3597 813 
L 3597 0 
L 703 0 
z
" transform="scale(0.015625)"/>
       <path id="DejaVuSansMono-Bold-67" d="M 2509 1806 
Q 2509 2275 2331 2558 
Q 2153 2841 1863 2841 
Q 1575 2841 1398 2559 
Q 1222 2278 1222 1806 
Q 1222 1331 1398 1050 
Q 1575 769 1863 769 
Q 2153 769 2331 1051 
Q 2509 1334 2509 1806 
z
M 3425 263 
Q 3425 -578 3045 -951 
Q 2666 -1325 1813 -1325 
Q 1525 -1325 1244 -1283 
Q 963 -1241 672 -1153 
L 672 -313 
Q 931 -456 1200 -525 
Q 1469 -594 1753 -594 
Q 2141 -594 2325 -411 
Q 2509 -228 2509 159 
L 2509 538 
Q 2375 288 2153 166 
Q 1931 44 1613 44 
Q 1013 44 659 512 
Q 306 981 306 1784 
Q 306 2616 659 3103 
Q 1013 3591 1606 3591 
Q 1906 3591 2140 3450 
Q 2375 3309 2509 3053 
L 2509 3500 
L 3425 3500 
L 3425 263 
z
" transform="scale(0.015625)"/>
       <path id="DejaVuSansMono-Bold-53" d="M 1594 2047 
Q 897 2313 650 2605 
Q 403 2897 403 3391 
Q 403 4025 809 4387 
Q 1216 4750 1925 4750 
Q 2247 4750 2569 4676 
Q 2891 4603 3206 4459 
L 3206 3559 
Q 2909 3769 2603 3878 
Q 2297 3988 1997 3988 
Q 1663 3988 1484 3853 
Q 1306 3719 1306 3469 
Q 1306 3275 1436 3148 
Q 1566 3022 1978 2869 
L 2375 2719 
Q 2938 2513 3203 2172 
Q 3469 1831 3469 1313 
Q 3469 606 3051 257 
Q 2634 -91 1791 -91 
Q 1444 -91 1095 -8 
Q 747 75 422 238 
L 422 1191 
Q 791 928 1136 800 
Q 1481 672 1819 672 
Q 2159 672 2346 826 
Q 2534 981 2534 1259 
Q 2534 1469 2409 1626 
Q 2284 1784 2047 1875 
L 1594 2047 
z
" transform="scale(0.015625)"/>
       <path id="DejaVuSansMono-Bold-63" d="M 3316 178 
Q 3084 44 2818 -23 
Q 2553 -91 2247 -91 
Q 1438 -91 981 396 
Q 525 884 525 1747 
Q 525 2613 984 3102 
Q 1444 3591 2253 3591 
Q 2534 3591 2795 3525 
Q 3056 3459 3316 3322 
L 3316 2484 
Q 3116 2656 2877 2748 
Q 2638 2841 2381 2841 
Q 1934 2841 1693 2556 
Q 1453 2272 1453 1747 
Q 1453 1222 1693 940 
Q 1934 659 2381 659 
Q 2647 659 2878 748 
Q 3109 838 3316 1019 
L 3316 178 
z
" transform="scale(0.015625)"/>
       <path id="DejaVuSansMono-Bold-65" d="M 3444 172 
Q 3125 41 2794 -25 
Q 2463 -91 2094 -91 
Q 1216 -91 752 379 
Q 288 850 288 1734 
Q 288 2591 734 3087 
Q 1181 3584 1953 3584 
Q 2731 3584 3161 3123 
Q 3591 2663 3591 1825 
L 3591 1453 
L 1219 1453 
Q 1222 1041 1462 837 
Q 1703 634 2181 634 
Q 2497 634 2803 725 
Q 3109 816 3444 1013 
L 3444 172 
z
M 2669 2141 
Q 2663 2503 2483 2689 
Q 2303 2875 1953 2875 
Q 1638 2875 1450 2683 
Q 1263 2491 1228 2138 
L 2669 2141 
z
" transform="scale(0.015625)"/>
       <path id="DejaVuSansMono-Bold-29" d="M 966 4856 
L 1678 4856 
Q 2172 4144 2414 3439 
Q 2656 2734 2656 2009 
Q 2656 1281 2415 579 
Q 2175 -122 1678 -844 
L 966 -844 
Q 1378 -94 1578 611 
Q 1778 1316 1778 2009 
Q 1778 2709 1578 3409 
Q 1378 4109 966 4856 
z
" transform="scale(0.015625)"/>
      </defs>
      <use xlink:href="#DejaVuSansMono-Bold-43"/>
      <use xlink:href="#DejaVuSansMono-Bold-61" transform="translate(60.205078 0)"/>
      <use xlink:href="#DejaVuSansMono-Bold-6c" transform="translate(120.410156 0)"/>
      <use xlink:href="#DejaVuSansMono-Bold-6c" transform="translate(180.615234 0)"/>
      <use xlink:href="#DejaVuSansMono-Bold-20" transform="translate(240.820312 0)"/>
      <use xlink:href="#DejaVuSansMono-Bold-43" transform="translate(301.025391 0)"/>
      <use xlink:href="#DejaVuSansMono-Bold-6f" transform="translate(361.230469 0)"/>
      <use xlink:href="#DejaVuSansMono-Bold-75" transform="translate(421.435547 0)"/>
      <use xlink:href="#DejaVuSansMono-Bold-6e" transform="translate(481.640625 0)"/>
      <use xlink:href="#DejaVuSansMono-Bold-74" transform="translate(541.845703 0)"/>
      <use xlink:href="#DejaVuSansMono-Bold-20" transform="translate(602.050781 0)"/>
      <use xlink:href="#DejaVuSansMono-Bold-28" transform="translate(662.255859 0)"/>
      <use xlink:href="#DejaVuSansMono-Bold-4c" transform="translate(722.460938 0)"/>
      <use xlink:href="#DejaVuSansMono-Bold-6f" transform="translate(782.666016 0)"/>
      <use xlink:href="#DejaVuSansMono-Bold-67" transform="translate(842.871094 0)"/>
      <use xlink:href="#DejaVuSansMono-Bold-20" transform="translate(903.076172 0)"/>
      <use xlink:href="#DejaVuSansMono-Bold-53" transform="translate(963.28125 0)"/>
      <use xlink:href="#DejaVuSansMono-Bold-63" transform="translate(1023.486328 0)"/>
      <use xlink:href="#DejaVuSansMono-Bold-61" transform="translate(1083.691406 0)"/>
      <use xlink:href="#DejaVuSansMono-Bold-6c" transform="translate(1143.896484 0)"/>
      <use xlink:href="#DejaVuSansMono-Bold-65" transform="translate(1204.101562 0)"/>
      <use xlink:href="#DejaVuSansMono-Bold-29" transform="translate(1264.306641 0)"/>
     </g>
    </g>
   </g>
   <g id="patch_8">
    <path d="M 46.51375 313.959467 
L 46.51375 11.025781 
" style="fill: none; stroke: #000000; stroke-width: 0.8; stroke-linejoin: miter; stroke-linecap: square"/>
   </g>
   <g id="patch_9">
    <path d="M 705.291475 313.959467 
L 705.291475 11.025781 
" style="fill: none; stroke: #000000; stroke-width: 0.8; stroke-linejoin: miter; stroke-linecap: square"/>
   </g>
   <g id="patch_10">
    <path d="M 46.51375 313.959467 
L 705.291475 313.959467 
" style="fill: none; stroke: #000000; stroke-width: 0.8; stroke-linejoin: miter; stroke-linecap: square"/>
   </g>
   <g id="patch_11">
    <path d="M 46.51375 11.025781 
L 705.291475 11.025781 
" style="fill: none; stroke: #000000; stroke-width: 0.8; stroke-linejoin: miter; stroke-linecap: square"/>
   </g>
   <g id="text_13">
    <!-- 37538 -->
    <g transform="translate(93.173935 31.519531) scale(0.11 -0.11)">
     <defs>
      <path id="DejaVuSansMono-Bold-33" d="M 1716 2088 
L 1222 2088 
L 1222 2900 
L 1716 2900 
Q 2059 2900 2248 3036 
Q 2438 3172 2438 3419 
Q 2438 3678 2248 3823 
Q 2059 3969 1716 3969 
Q 1453 3969 1153 3903 
Q 853 3838 531 3713 
L 531 4550 
Q 853 4647 1165 4698 
Q 1478 4750 1766 4750 
Q 2503 4750 2915 4428 
Q 3328 4106 3328 3541 
Q 3328 3125 3090 2861 
Q 2853 2597 2413 2516 
Q 2913 2428 3175 2117 
Q 3438 1806 3438 1300 
Q 3438 622 3003 265 
Q 2569 -91 1741 -91 
Q 1388 -91 1045 -31 
Q 703 28 391 141 
L 391 997 
Q 684 850 1025 773 
Q 1366 697 1741 697 
Q 2116 697 2334 870 
Q 2553 1044 2553 1338 
Q 2553 1697 2334 1892 
Q 2116 2088 1716 2088 
z
" transform="scale(0.015625)"/>
      <path id="DejaVuSansMono-Bold-37" d="M 422 4666 
L 3372 4666 
L 3372 4013 
L 1791 0 
L 850 0 
L 2369 3853 
L 422 3853 
L 422 4666 
z
" transform="scale(0.015625)"/>
      <path id="DejaVuSansMono-Bold-35" d="M 603 4666 
L 3138 4666 
L 3138 3853 
L 1350 3853 
L 1350 2988 
Q 1463 3031 1591 3051 
Q 1719 3072 1863 3072 
Q 2556 3072 2987 2634 
Q 3419 2197 3419 1497 
Q 3419 763 2951 336 
Q 2484 -91 1678 -91 
Q 1378 -91 1072 -41 
Q 766 9 447 109 
L 447 941 
Q 706 813 979 748 
Q 1253 684 1528 684 
Q 2016 684 2269 892 
Q 2522 1100 2522 1497 
Q 2522 1863 2270 2083 
Q 2019 2303 1600 2303 
Q 1353 2303 1104 2242 
Q 856 2181 603 2059 
L 603 4666 
z
" transform="scale(0.015625)"/>
      <path id="DejaVuSansMono-Bold-38" d="M 1925 2081 
Q 1616 2081 1425 1886 
Q 1234 1691 1234 1369 
Q 1234 1047 1425 850 
Q 1616 653 1925 653 
Q 2234 653 2426 853 
Q 2619 1053 2619 1369 
Q 2619 1691 2428 1886 
Q 2238 2081 1925 2081 
z
M 1241 2472 
Q 888 2594 703 2855 
Q 519 3116 519 3494 
Q 519 4075 897 4412 
Q 1275 4750 1925 4750 
Q 2578 4750 2956 4412 
Q 3334 4075 3334 3494 
Q 3334 3119 3153 2858 
Q 2972 2597 2625 2472 
Q 3013 2353 3231 2047 
Q 3450 1741 3450 1313 
Q 3450 641 3053 275 
Q 2656 -91 1925 -91 
Q 1197 -91 800 275 
Q 403 641 403 1313 
Q 403 1744 625 2050 
Q 847 2356 1241 2472 
z
M 1338 3419 
Q 1338 3144 1495 2983 
Q 1653 2822 1925 2822 
Q 2200 2822 2358 2983 
Q 2516 3144 2516 3419 
Q 2516 3691 2358 3848 
Q 2200 4006 1925 4006 
Q 1656 4006 1497 3847 
Q 1338 3688 1338 3419 
z
" transform="scale(0.015625)"/>
     </defs>
     <use xlink:href="#DejaVuSansMono-Bold-33"/>
     <use xlink:href="#DejaVuSansMono-Bold-37" transform="translate(60.205078 0)"/>
     <use xlink:href="#DejaVuSansMono-Bold-35" transform="translate(120.410156 0)"/>
     <use xlink:href="#DejaVuSansMono-Bold-33" transform="translate(180.615234 0)"/>
     <use xlink:href="#DejaVuSansMono-Bold-38" transform="translate(240.820312 0)"/>
    </g>
   </g>
   <g id="text_14">
    <!-- 13225 -->
    <g transform="translate(226.260344 58.969894) scale(0.11 -0.11)">
     <defs>
      <path id="DejaVuSansMono-Bold-31" d="M 588 813 
L 1619 813 
L 1619 3841 
L 659 3603 
L 659 4434 
L 1625 4666 
L 2516 4666 
L 2516 813 
L 3547 813 
L 3547 0 
L 588 0 
L 588 813 
z
" transform="scale(0.015625)"/>
      <path id="DejaVuSansMono-Bold-32" d="M 1356 813 
L 3322 813 
L 3322 0 
L 359 0 
L 359 788 
L 859 1319 
Q 1750 2266 1941 2484 
Q 2175 2753 2278 2961 
Q 2381 3169 2381 3372 
Q 2381 3684 2192 3854 
Q 2003 4025 1656 4025 
Q 1409 4025 1101 3926 
Q 794 3828 459 3641 
L 459 4500 
Q 794 4622 1114 4686 
Q 1434 4750 1728 4750 
Q 2469 4750 2892 4404 
Q 3316 4059 3316 3463 
Q 3316 3188 3223 2947 
Q 3131 2706 2906 2413 
Q 2741 2200 1997 1456 
Q 1594 1053 1356 813 
z
" transform="scale(0.015625)"/>
     </defs>
     <use xlink:href="#DejaVuSansMono-Bold-31"/>
     <use xlink:href="#DejaVuSansMono-Bold-33" transform="translate(60.205078 0)"/>
     <use xlink:href="#DejaVuSansMono-Bold-32" transform="translate(120.410156 0)"/>
     <use xlink:href="#DejaVuSansMono-Bold-32" transform="translate(180.615234 0)"/>
     <use xlink:href="#DejaVuSansMono-Bold-35" transform="translate(240.820312 0)"/>
    </g>
   </g>
   <g id="text_15">
    <!-- 12686 -->
    <g transform="translate(359.346753 60.064755) scale(0.11 -0.11)">
     <defs>
      <path id="DejaVuSansMono-Bold-36" d="M 2009 2338 
Q 1709 2338 1551 2120 
Q 1394 1903 1394 1491 
Q 1394 1081 1551 864 
Q 1709 647 2009 647 
Q 2309 647 2470 864 
Q 2631 1081 2631 1491 
Q 2631 1900 2470 2119 
Q 2309 2338 2009 2338 
z
M 3219 4556 
L 3219 3719 
Q 2972 3859 2745 3929 
Q 2519 4000 2309 4000 
Q 1809 4000 1548 3664 
Q 1288 3328 1275 2672 
Q 1422 2875 1650 2976 
Q 1878 3078 2188 3078 
Q 2819 3078 3162 2679 
Q 3506 2281 3506 1550 
Q 3506 766 3120 334 
Q 2734 -97 2034 -97 
Q 1181 -97 795 475 
Q 409 1047 409 2322 
Q 409 3534 881 4139 
Q 1353 4744 2297 4744 
Q 2516 4744 2748 4697 
Q 2981 4650 3219 4556 
z
" transform="scale(0.015625)"/>
     </defs>
     <use xlink:href="#DejaVuSansMono-Bold-31"/>
     <use xlink:href="#DejaVuSansMono-Bold-32" transform="translate(60.205078 0)"/>
     <use xlink:href="#DejaVuSansMono-Bold-36" transform="translate(120.410156 0)"/>
     <use xlink:href="#DejaVuSansMono-Bold-38" transform="translate(180.615234 0)"/>
     <use xlink:href="#DejaVuSansMono-Bold-36" transform="translate(240.820312 0)"/>
    </g>
   </g>
   <g id="text_16">
    <!-- 10903 -->
    <g transform="translate(492.433162 64.050072) scale(0.11 -0.11)">
     <defs>
      <path id="DejaVuSansMono-Bold-30" d="M 1538 2328 
Q 1538 2494 1650 2606 
Q 1763 2719 1925 2719 
Q 2091 2719 2203 2606 
Q 2316 2494 2316 2328 
Q 2316 2166 2203 2053 
Q 2091 1941 1925 1941 
Q 1763 1941 1650 2052 
Q 1538 2163 1538 2328 
z
M 1925 3969 
Q 1606 3969 1459 3578 
Q 1313 3188 1313 2328 
Q 1313 1472 1459 1081 
Q 1606 691 1925 691 
Q 2247 691 2394 1081 
Q 2541 1472 2541 2328 
Q 2541 3188 2394 3578 
Q 2247 3969 1925 3969 
z
M 384 2328 
Q 384 3541 768 4145 
Q 1153 4750 1925 4750 
Q 2700 4750 3084 4147 
Q 3469 3544 3469 2328 
Q 3469 1116 3084 512 
Q 2700 -91 1925 -91 
Q 1153 -91 768 514 
Q 384 1119 384 2328 
z
" transform="scale(0.015625)"/>
      <path id="DejaVuSansMono-Bold-39" d="M 634 63 
L 634 903 
Q 881 759 1107 690 
Q 1334 622 1544 622 
Q 2041 622 2302 955 
Q 2563 1288 2578 1950 
Q 2431 1747 2203 1645 
Q 1975 1544 1663 1544 
Q 1034 1544 690 1942 
Q 347 2341 347 3072 
Q 347 3853 731 4281 
Q 1116 4709 1819 4709 
Q 2672 4709 3058 4139 
Q 3444 3569 3444 2297 
Q 3444 1088 2972 483 
Q 2500 -122 1556 -122 
Q 1338 -122 1105 -75 
Q 872 -28 634 63 
z
M 1844 2316 
Q 2141 2316 2298 2533 
Q 2456 2750 2456 3163 
Q 2456 3572 2298 3789 
Q 2141 4006 1844 4006 
Q 1544 4006 1383 3789 
Q 1222 3572 1222 3163 
Q 1222 2753 1383 2534 
Q 1544 2316 1844 2316 
z
" transform="scale(0.015625)"/>
     </defs>
     <use xlink:href="#DejaVuSansMono-Bold-31"/>
     <use xlink:href="#DejaVuSansMono-Bold-30" transform="translate(60.205078 0)"/>
     <use xlink:href="#DejaVuSansMono-Bold-39" transform="translate(120.410156 0)"/>
     <use xlink:href="#DejaVuSansMono-Bold-30" transform="translate(180.615234 0)"/>
     <use xlink:href="#DejaVuSansMono-Bold-33" transform="translate(240.820312 0)"/>
    </g>
   </g>
   <g id="text_17">
    <!-- 2601 -->
    <g transform="translate(628.830744 101.7596) scale(0.11 -0.11)">
     <use xlink:href="#DejaVuSansMono-Bold-32"/>
     <use xlink:href="#DejaVuSansMono-Bold-36" transform="translate(60.205078 0)"/>
     <use xlink:href="#DejaVuSansMono-Bold-30" transform="translate(120.410156 0)"/>
     <use xlink:href="#DejaVuSansMono-Bold-31" transform="translate(180.615234 0)"/>
    </g>
   </g>
  </g>
 </g>
 <defs>
  <clipPath id="p2a80917bb4">
   <rect x="46.51375" y="11.025781" width="658.777725" height="302.933686"/>
  </clipPath>
 </defs>
</svg>
