<?xml version="1.0" encoding="utf-8" standalone="no"?>
<!DOCTYPE svg PUBLIC "-//W3C//DTD SVG 1.1//EN"
  "http://www.w3.org/Graphics/SVG/1.1/DTD/svg11.dtd">
<svg xmlns:xlink="http://www.w3.org/1999/xlink" width="709.20279pt" height="424.185pt" viewBox="0 0 709.20279 424.185" xmlns="http://www.w3.org/2000/svg" version="1.1">
 <metadata>
  <rdf:RDF xmlns:dc="http://purl.org/dc/elements/1.1/" xmlns:cc="http://creativecommons.org/ns#" xmlns:rdf="http://www.w3.org/1999/02/22-rdf-syntax-ns#">
   <cc:Work>
    <dc:type rdf:resource="http://purl.org/dc/dcmitype/StillImage"/>
    <dc:date>2026-02-06T10:38:10.143422</dc:date>
    <dc:format>image/svg+xml</dc:format>
    <dc:creator>
     <cc:Agent>
      <dc:title>Matplotlib v3.10.8, https://matplotlib.org/</dc:title>
     </cc:Agent>
    </dc:creator>
   </cc:Work>
  </rdf:RDF>
 </metadata>
 <defs>
  <style type="text/css">*{stroke-linejoin: round; stroke-linecap: butt}</style>
 </defs>
 <g id="figure_1">
  <g id="patch_1">
   <path d="M 0 424.185 
L 709.20279 424.185 
L 709.20279 0 
L 0 0 
z
" style="fill: #ffffff"/>
  </g>
  <g id="axes_1">
   <g id="patch_2">
    <path d="M 47.874688 384.64 
L 702.00279 384.64 
L 702.00279 7.2 
L 47.874688 7.2 
z
" style="fill: #ffffff"/>
   </g>
   <g id="patch_3">
    <path d="M 77.607783 384.64 
L 155.17238 384.64 
L 155.17238 338.305986 
L 77.607783 338.305986 
z
" clip-path="url(#pd3208c2146)" style="fill: #0066ff; stroke: #000000; stroke-linejoin: miter"/>
   </g>
   <g id="patch_4">
    <path d="M 206.882112 384.64 
L 284.446709 384.64 
L 284.446709 297.438345 
L 206.882112 297.438345 
z
" clip-path="url(#pd3208c2146)" style="fill: #0066ff; stroke: #000000; stroke-linejoin: miter"/>
   </g>
   <g id="patch_5">
    <path d="M 336.15644 384.64 
L 413.721037 384.64 
L 413.721037 247.460083 
L 336.15644 247.460083 
z
" clip-path="url(#pd3208c2146)" style="fill: #0066ff; stroke: #000000; stroke-linejoin: miter"/>
   </g>
   <g id="patch_6">
    <path d="M 465.430769 384.64 
L 542.995366 384.64 
L 542.995366 183.685738 
L 465.430769 183.685738 
z
" clip-path="url(#pd3208c2146)" style="fill: #0066ff; stroke: #000000; stroke-linejoin: miter"/>
   </g>
   <g id="patch_7">
    <path d="M 594.705098 384.64 
L 672.269695 384.64 
L 672.269695 105.074097 
L 594.705098 105.074097 
z
" clip-path="url(#pd3208c2146)" style="fill: #0066ff; stroke: #000000; stroke-linejoin: miter"/>
   </g>
   <g id="patch_8">
    <path d="M 77.607783 338.305986 
L 155.17238 338.305986 
L 155.17238 330.236579 
L 77.607783 330.236579 
z
" clip-path="url(#pd3208c2146)" style="fill: #33cc66; stroke: #000000; stroke-linejoin: miter"/>
   </g>
   <g id="patch_9">
    <path d="M 206.882112 297.438345 
L 284.446709 297.438345 
L 284.446709 289.368938 
L 206.882112 289.368938 
z
" clip-path="url(#pd3208c2146)" style="fill: #33cc66; stroke: #000000; stroke-linejoin: miter"/>
   </g>
   <g id="patch_10">
    <path d="M 336.15644 247.460083 
L 413.721037 247.460083 
L 413.721037 239.390676 
L 336.15644 239.390676 
z
" clip-path="url(#pd3208c2146)" style="fill: #33cc66; stroke: #000000; stroke-linejoin: miter"/>
   </g>
   <g id="patch_11">
    <path d="M 465.430769 183.685738 
L 542.995366 183.685738 
L 542.995366 175.616331 
L 465.430769 175.616331 
z
" clip-path="url(#pd3208c2146)" style="fill: #33cc66; stroke: #000000; stroke-linejoin: miter"/>
   </g>
   <g id="patch_12">
    <path d="M 594.705098 105.074097 
L 672.269695 105.074097 
L 672.269695 97.00469 
L 594.705098 97.00469 
z
" clip-path="url(#pd3208c2146)" style="fill: #33cc66; stroke: #000000; stroke-linejoin: miter"/>
   </g>
   <g id="patch_13">
    <path d="M 77.607783 330.236579 
L 155.17238 330.236579 
L 155.17238 322.167172 
L 77.607783 322.167172 
z
" clip-path="url(#pd3208c2146)" style="fill: #ff0066; stroke: #000000; stroke-linejoin: miter"/>
   </g>
   <g id="patch_14">
    <path d="M 206.882112 289.368938 
L 284.446709 289.368938 
L 284.446709 281.299531 
L 206.882112 281.299531 
z
" clip-path="url(#pd3208c2146)" style="fill: #ff0066; stroke: #000000; stroke-linejoin: miter"/>
   </g>
   <g id="patch_15">
    <path d="M 336.15644 239.390676 
L 413.721037 239.390676 
L 413.721037 231.321269 
L 336.15644 231.321269 
z
" clip-path="url(#pd3208c2146)" style="fill: #ff0066; stroke: #000000; stroke-linejoin: miter"/>
   </g>
   <g id="patch_16">
    <path d="M 465.430769 175.616331 
L 542.995366 175.616331 
L 542.995366 167.546924 
L 465.430769 167.546924 
z
" clip-path="url(#pd3208c2146)" style="fill: #ff0066; stroke: #000000; stroke-linejoin: miter"/>
   </g>
   <g id="patch_17">
    <path d="M 594.705098 97.00469 
L 672.269695 97.00469 
L 672.269695 88.935283 
L 594.705098 88.935283 
z
" clip-path="url(#pd3208c2146)" style="fill: #ff0066; stroke: #000000; stroke-linejoin: miter"/>
   </g>
   <g id="patch_18">
    <path d="M 77.607783 322.167172 
L 155.17238 322.167172 
L 155.17238 311.546792 
L 77.607783 311.546792 
z
" clip-path="url(#pd3208c2146)" style="fill: #ffaa00; stroke: #000000; stroke-linejoin: miter"/>
   </g>
   <g id="patch_19">
    <path d="M 206.882112 281.299531 
L 284.446709 281.299531 
L 284.446709 270.67915 
L 206.882112 270.67915 
z
" clip-path="url(#pd3208c2146)" style="fill: #ffaa00; stroke: #000000; stroke-linejoin: miter"/>
   </g>
   <g id="patch_20">
    <path d="M 336.15644 231.321269 
L 413.721037 231.321269 
L 413.721037 220.700888 
L 336.15644 220.700888 
z
" clip-path="url(#pd3208c2146)" style="fill: #ffaa00; stroke: #000000; stroke-linejoin: miter"/>
   </g>
   <g id="patch_21">
    <path d="M 465.430769 167.546924 
L 542.995366 167.546924 
L 542.995366 156.926543 
L 465.430769 156.926543 
z
" clip-path="url(#pd3208c2146)" style="fill: #ffaa00; stroke: #000000; stroke-linejoin: miter"/>
   </g>
   <g id="patch_22">
    <path d="M 594.705098 88.935283 
L 672.269695 88.935283 
L 672.269695 78.314902 
L 594.705098 78.314902 
z
" clip-path="url(#pd3208c2146)" style="fill: #ffaa00; stroke: #000000; stroke-linejoin: miter"/>
   </g>
   <g id="matplotlib.axis_1">
    <g id="xtick_1">
     <g id="line2d_1">
      <defs>
       <path id="m2a341bb840" d="M 0 0 
L 0 3.5 
" style="stroke: #000000; stroke-width: 0.8"/>
      </defs>
      <g>
       <use xlink:href="#m2a341bb840" x="116.390082" y="384.64" style="stroke: #000000; stroke-width: 0.8"/>
      </g>
     </g>
     <g id="text_1">
      <!-- 64 -->
      <g transform="translate(110.369769 399.291562) scale(0.1 -0.1)">
       <defs>
        <path id="DejaVuSansMono-36" d="M 3097 4563 
L 3097 3981 
Q 2900 4097 2678 4158 
Q 2456 4219 2216 4219 
Q 1616 4219 1306 3767 
Q 997 3316 997 2438 
Q 1147 2750 1412 2917 
Q 1678 3084 2022 3084 
Q 2697 3084 3067 2670 
Q 3438 2256 3438 1497 
Q 3438 741 3056 325 
Q 2675 -91 1984 -91 
Q 1172 -91 794 492 
Q 416 1075 416 2328 
Q 416 3509 870 4129 
Q 1325 4750 2188 4750 
Q 2419 4750 2650 4701 
Q 2881 4653 3097 4563 
z
M 1972 2591 
Q 1569 2591 1337 2300 
Q 1106 2009 1106 1497 
Q 1106 984 1337 693 
Q 1569 403 1972 403 
Q 2391 403 2603 679 
Q 2816 956 2816 1497 
Q 2816 2041 2603 2316 
Q 2391 2591 1972 2591 
z
" transform="scale(0.015625)"/>
        <path id="DejaVuSansMono-34" d="M 2297 4091 
L 825 1625 
L 2297 1625 
L 2297 4091 
z
M 2194 4666 
L 2925 4666 
L 2925 1625 
L 3547 1625 
L 3547 1113 
L 2925 1113 
L 2925 0 
L 2297 0 
L 2297 1113 
L 319 1113 
L 319 1709 
L 2194 4666 
z
" transform="scale(0.015625)"/>
       </defs>
       <use xlink:href="#DejaVuSansMono-36"/>
       <use xlink:href="#DejaVuSansMono-34" transform="translate(60.205078 0)"/>
      </g>
     </g>
    </g>
    <g id="xtick_2">
     <g id="line2d_2">
      <g>
       <use xlink:href="#m2a341bb840" x="245.66441" y="384.64" style="stroke: #000000; stroke-width: 0.8"/>
      </g>
     </g>
     <g id="text_2">
      <!-- 96 -->
      <g transform="translate(239.644098 399.291562) scale(0.1 -0.1)">
       <defs>
        <path id="DejaVuSansMono-39" d="M 1863 2069 
Q 2266 2069 2495 2359 
Q 2725 2650 2725 3163 
Q 2725 3675 2495 3965 
Q 2266 4256 1863 4256 
Q 1444 4256 1231 3979 
Q 1019 3703 1019 3163 
Q 1019 2619 1230 2344 
Q 1441 2069 1863 2069 
z
M 738 97 
L 738 678 
Q 934 563 1156 502 
Q 1378 441 1619 441 
Q 2219 441 2526 892 
Q 2834 1344 2834 2222 
Q 2688 1909 2422 1742 
Q 2156 1575 1813 1575 
Q 1138 1575 767 1990 
Q 397 2406 397 3169 
Q 397 3922 776 4336 
Q 1156 4750 1850 4750 
Q 2663 4750 3041 4165 
Q 3419 3581 3419 2328 
Q 3419 1150 2964 529 
Q 2509 -91 1644 -91 
Q 1416 -91 1184 -42 
Q 953 6 738 97 
z
" transform="scale(0.015625)"/>
       </defs>
       <use xlink:href="#DejaVuSansMono-39"/>
       <use xlink:href="#DejaVuSansMono-36" transform="translate(60.205078 0)"/>
      </g>
     </g>
    </g>
    <g id="xtick_3">
     <g id="line2d_3">
      <g>
       <use xlink:href="#m2a341bb840" x="374.938739" y="384.64" style="stroke: #000000; stroke-width: 0.8"/>
      </g>
     </g>
     <g id="text_3">
      <!-- 128 -->
      <g transform="translate(365.90827 399.291562) scale(0.1 -0.1)">
       <defs>
        <path id="DejaVuSansMono-31" d="M 844 531 
L 1825 531 
L 1825 4097 
L 769 3859 
L 769 4434 
L 1819 4666 
L 2450 4666 
L 2450 531 
L 3419 531 
L 3419 0 
L 844 0 
L 844 531 
z
" transform="scale(0.015625)"/>
        <path id="DejaVuSansMono-32" d="M 1166 531 
L 3309 531 
L 3309 0 
L 475 0 
L 475 531 
Q 1059 1147 1496 1619 
Q 1934 2091 2100 2284 
Q 2413 2666 2522 2902 
Q 2631 3138 2631 3384 
Q 2631 3775 2401 3997 
Q 2172 4219 1772 4219 
Q 1488 4219 1175 4116 
Q 863 4013 513 3803 
L 513 4441 
Q 834 4594 1145 4672 
Q 1456 4750 1759 4750 
Q 2444 4750 2861 4386 
Q 3278 4022 3278 3431 
Q 3278 3131 3139 2831 
Q 3000 2531 2688 2169 
Q 2513 1966 2180 1606 
Q 1847 1247 1166 531 
z
" transform="scale(0.015625)"/>
        <path id="DejaVuSansMono-38" d="M 1925 2216 
Q 1503 2216 1273 1980 
Q 1044 1744 1044 1313 
Q 1044 881 1276 642 
Q 1509 403 1925 403 
Q 2350 403 2579 639 
Q 2809 875 2809 1313 
Q 2809 1741 2576 1978 
Q 2344 2216 1925 2216 
z
M 1375 2478 
Q 972 2581 745 2862 
Q 519 3144 519 3541 
Q 519 4097 897 4423 
Q 1275 4750 1925 4750 
Q 2578 4750 2956 4423 
Q 3334 4097 3334 3541 
Q 3334 3144 3107 2862 
Q 2881 2581 2478 2478 
Q 2947 2375 3195 2062 
Q 3444 1750 3444 1253 
Q 3444 622 3041 265 
Q 2638 -91 1925 -91 
Q 1213 -91 811 264 
Q 409 619 409 1247 
Q 409 1747 657 2061 
Q 906 2375 1375 2478 
z
M 1147 3481 
Q 1147 3106 1347 2909 
Q 1547 2713 1925 2713 
Q 2306 2713 2506 2909 
Q 2706 3106 2706 3481 
Q 2706 3863 2507 4063 
Q 2309 4263 1925 4263 
Q 1547 4263 1347 4061 
Q 1147 3859 1147 3481 
z
" transform="scale(0.015625)"/>
       </defs>
       <use xlink:href="#DejaVuSansMono-31"/>
       <use xlink:href="#DejaVuSansMono-32" transform="translate(60.205078 0)"/>
       <use xlink:href="#DejaVuSansMono-38" transform="translate(120.410156 0)"/>
      </g>
     </g>
    </g>
    <g id="xtick_4">
     <g id="line2d_4">
      <g>
       <use xlink:href="#m2a341bb840" x="504.213067" y="384.64" style="stroke: #000000; stroke-width: 0.8"/>
      </g>
     </g>
     <g id="text_4">
      <!-- 160 -->
      <g transform="translate(495.182599 399.291562) scale(0.1 -0.1)">
       <defs>
        <path id="DejaVuSansMono-30" d="M 1509 2344 
Q 1509 2516 1629 2641 
Q 1750 2766 1919 2766 
Q 2094 2766 2219 2641 
Q 2344 2516 2344 2344 
Q 2344 2169 2220 2047 
Q 2097 1925 1919 1925 
Q 1744 1925 1626 2044 
Q 1509 2163 1509 2344 
z
M 1925 4250 
Q 1484 4250 1267 3775 
Q 1050 3300 1050 2328 
Q 1050 1359 1267 884 
Q 1484 409 1925 409 
Q 2369 409 2586 884 
Q 2803 1359 2803 2328 
Q 2803 3300 2586 3775 
Q 2369 4250 1925 4250 
z
M 1925 4750 
Q 2672 4750 3055 4137 
Q 3438 3525 3438 2328 
Q 3438 1134 3055 521 
Q 2672 -91 1925 -91 
Q 1178 -91 797 521 
Q 416 1134 416 2328 
Q 416 3525 797 4137 
Q 1178 4750 1925 4750 
z
" transform="scale(0.015625)"/>
       </defs>
       <use xlink:href="#DejaVuSansMono-31"/>
       <use xlink:href="#DejaVuSansMono-36" transform="translate(60.205078 0)"/>
       <use xlink:href="#DejaVuSansMono-30" transform="translate(120.410156 0)"/>
      </g>
     </g>
    </g>
    <g id="xtick_5">
     <g id="line2d_5">
      <g>
       <use xlink:href="#m2a341bb840" x="633.487396" y="384.64" style="stroke: #000000; stroke-width: 0.8"/>
      </g>
     </g>
     <g id="text_5">
      <!-- 192 -->
      <g transform="translate(624.456927 399.291562) scale(0.1 -0.1)">
       <use xlink:href="#DejaVuSansMono-31"/>
       <use xlink:href="#DejaVuSansMono-39" transform="translate(60.205078 0)"/>
       <use xlink:href="#DejaVuSansMono-32" transform="translate(120.410156 0)"/>
      </g>
     </g>
    </g>
    <g id="text_6">
     <!-- Sequence Length -->
     <g transform="translate(320.755926 414.489375) scale(0.12 -0.12)">
      <defs>
       <path id="DejaVuSansMono-Bold-53" d="M 1594 2047 
Q 897 2313 650 2605 
Q 403 2897 403 3391 
Q 403 4025 809 4387 
Q 1216 4750 1925 4750 
Q 2247 4750 2569 4676 
Q 2891 4603 3206 4459 
L 3206 3559 
Q 2909 3769 2603 3878 
Q 2297 3988 1997 3988 
Q 1663 3988 1484 3853 
Q 1306 3719 1306 3469 
Q 1306 3275 1436 3148 
Q 1566 3022 1978 2869 
L 2375 2719 
Q 2938 2513 3203 2172 
Q 3469 1831 3469 1313 
Q 3469 606 3051 257 
Q 2634 -91 1791 -91 
Q 1444 -91 1095 -8 
Q 747 75 422 238 
L 422 1191 
Q 791 928 1136 800 
Q 1481 672 1819 672 
Q 2159 672 2346 826 
Q 2534 981 2534 1259 
Q 2534 1469 2409 1626 
Q 2284 1784 2047 1875 
L 1594 2047 
z
" transform="scale(0.015625)"/>
       <path id="DejaVuSansMono-Bold-65" d="M 3444 172 
Q 3125 41 2794 -25 
Q 2463 -91 2094 -91 
Q 1216 -91 752 379 
Q 288 850 288 1734 
Q 288 2591 734 3087 
Q 1181 3584 1953 3584 
Q 2731 3584 3161 3123 
Q 3591 2663 3591 1825 
L 3591 1453 
L 1219 1453 
Q 1222 1041 1462 837 
Q 1703 634 2181 634 
Q 2497 634 2803 725 
Q 3109 816 3444 1013 
L 3444 172 
z
M 2669 2141 
Q 2663 2503 2483 2689 
Q 2303 2875 1953 2875 
Q 1638 2875 1450 2683 
Q 1263 2491 1228 2138 
L 2669 2141 
z
" transform="scale(0.015625)"/>
       <path id="DejaVuSansMono-Bold-71" d="M 1197 1753 
Q 1197 1247 1365 959 
Q 1534 672 1831 672 
Q 2128 672 2300 959 
Q 2472 1247 2472 1753 
Q 2472 2259 2300 2546 
Q 2128 2834 1831 2834 
Q 1534 2834 1365 2546 
Q 1197 2259 1197 1753 
z
M 2472 494 
Q 2303 200 2079 54 
Q 1856 -91 1575 -91 
Q 953 -91 617 384 
Q 281 859 281 1747 
Q 281 2622 612 3103 
Q 944 3584 1544 3584 
Q 1859 3584 2092 3431 
Q 2325 3278 2472 2975 
L 2472 3500 
L 3384 3500 
L 3384 -1331 
L 2472 -1331 
L 2472 494 
z
" transform="scale(0.015625)"/>
       <path id="DejaVuSansMono-Bold-75" d="M 500 1222 
L 500 3500 
L 1416 3500 
L 1416 1363 
Q 1416 984 1522 821 
Q 1628 659 1875 659 
Q 2122 659 2261 878 
Q 2400 1097 2400 1491 
L 2400 3500 
L 3316 3500 
L 3316 0 
L 2400 0 
L 2400 519 
Q 2303 228 2070 68 
Q 1838 -91 1509 -91 
Q 1009 -91 754 240 
Q 500 572 500 1222 
z
" transform="scale(0.015625)"/>
       <path id="DejaVuSansMono-Bold-6e" d="M 3347 2272 
L 3347 0 
L 2438 0 
L 2438 2131 
Q 2438 2513 2330 2677 
Q 2222 2841 1978 2841 
Q 1731 2841 1589 2619 
Q 1447 2397 1447 2003 
L 1447 0 
L 538 0 
L 538 3500 
L 1447 3500 
L 1447 2975 
Q 1544 3266 1778 3425 
Q 2013 3584 2344 3584 
Q 2841 3584 3094 3254 
Q 3347 2925 3347 2272 
z
" transform="scale(0.015625)"/>
       <path id="DejaVuSansMono-Bold-63" d="M 3316 178 
Q 3084 44 2818 -23 
Q 2553 -91 2247 -91 
Q 1438 -91 981 396 
Q 525 884 525 1747 
Q 525 2613 984 3102 
Q 1444 3591 2253 3591 
Q 2534 3591 2795 3525 
Q 3056 3459 3316 3322 
L 3316 2484 
Q 3116 2656 2877 2748 
Q 2638 2841 2381 2841 
Q 1934 2841 1693 2556 
Q 1453 2272 1453 1747 
Q 1453 1222 1693 940 
Q 1934 659 2381 659 
Q 2647 659 2878 748 
Q 3109 838 3316 1019 
L 3316 178 
z
" transform="scale(0.015625)"/>
       <path id="DejaVuSansMono-Bold-20" transform="scale(0.015625)"/>
       <path id="DejaVuSansMono-Bold-4c" d="M 703 0 
L 703 4666 
L 1625 4666 
L 1625 813 
L 3597 813 
L 3597 0 
L 703 0 
z
" transform="scale(0.015625)"/>
       <path id="DejaVuSansMono-Bold-67" d="M 2509 1806 
Q 2509 2275 2331 2558 
Q 2153 2841 1863 2841 
Q 1575 2841 1398 2559 
Q 1222 2278 1222 1806 
Q 1222 1331 1398 1050 
Q 1575 769 1863 769 
Q 2153 769 2331 1051 
Q 2509 1334 2509 1806 
z
M 3425 263 
Q 3425 -578 3045 -951 
Q 2666 -1325 1813 -1325 
Q 1525 -1325 1244 -1283 
Q 963 -1241 672 -1153 
L 672 -313 
Q 931 -456 1200 -525 
Q 1469 -594 1753 -594 
Q 2141 -594 2325 -411 
Q 2509 -228 2509 159 
L 2509 538 
Q 2375 288 2153 166 
Q 1931 44 1613 44 
Q 1013 44 659 512 
Q 306 981 306 1784 
Q 306 2616 659 3103 
Q 1013 3591 1606 3591 
Q 1906 3591 2140 3450 
Q 2375 3309 2509 3053 
L 2509 3500 
L 3425 3500 
L 3425 263 
z
" transform="scale(0.015625)"/>
       <path id="DejaVuSansMono-Bold-74" d="M 2156 4494 
L 2156 3500 
L 3353 3500 
L 3353 2797 
L 2156 2797 
L 2156 1141 
Q 2156 906 2270 804 
Q 2384 703 2650 703 
L 3353 703 
L 3353 0 
L 2584 0 
Q 1797 0 1519 251 
Q 1241 503 1241 1184 
L 1241 2797 
L 347 2797 
L 347 3500 
L 1241 3500 
L 1241 4494 
L 2156 4494 
z
" transform="scale(0.015625)"/>
       <path id="DejaVuSansMono-Bold-68" d="M 3347 2272 
L 3347 0 
L 2438 0 
L 2438 2131 
Q 2438 2509 2330 2671 
Q 2222 2834 1978 2834 
Q 1728 2834 1587 2614 
Q 1447 2394 1447 2003 
L 1447 0 
L 538 0 
L 538 4863 
L 1447 4863 
L 1447 2975 
Q 1544 3266 1778 3425 
Q 2013 3584 2344 3584 
Q 2841 3584 3094 3254 
Q 3347 2925 3347 2272 
z
" transform="scale(0.015625)"/>
      </defs>
      <use xlink:href="#DejaVuSansMono-Bold-53"/>
      <use xlink:href="#DejaVuSansMono-Bold-65" transform="translate(60.205078 0)"/>
      <use xlink:href="#DejaVuSansMono-Bold-71" transform="translate(120.410156 0)"/>
      <use xlink:href="#DejaVuSansMono-Bold-75" transform="translate(180.615234 0)"/>
      <use xlink:href="#DejaVuSansMono-Bold-65" transform="translate(240.820312 0)"/>
      <use xlink:href="#DejaVuSansMono-Bold-6e" transform="translate(301.025391 0)"/>
      <use xlink:href="#DejaVuSansMono-Bold-63" transform="translate(361.230469 0)"/>
      <use xlink:href="#DejaVuSansMono-Bold-65" transform="translate(421.435547 0)"/>
      <use xlink:href="#DejaVuSansMono-Bold-20" transform="translate(481.640625 0)"/>
      <use xlink:href="#DejaVuSansMono-Bold-4c" transform="translate(541.845703 0)"/>
      <use xlink:href="#DejaVuSansMono-Bold-65" transform="translate(602.050781 0)"/>
      <use xlink:href="#DejaVuSansMono-Bold-6e" transform="translate(662.255859 0)"/>
      <use xlink:href="#DejaVuSansMono-Bold-67" transform="translate(722.460938 0)"/>
      <use xlink:href="#DejaVuSansMono-Bold-74" transform="translate(782.666016 0)"/>
      <use xlink:href="#DejaVuSansMono-Bold-68" transform="translate(842.871094 0)"/>
     </g>
    </g>
   </g>
   <g id="matplotlib.axis_2">
    <g id="ytick_1">
     <g id="line2d_6">
      <path d="M 47.874688 384.64 
L 702.00279 384.64 
" clip-path="url(#pd3208c2146)" style="fill: none; stroke: #b0b0b0; stroke-opacity: 0.3; stroke-width: 0.8; stroke-linecap: square"/>
     </g>
     <g id="line2d_7">
      <defs>
       <path id="mbf4d44478b" d="M 0 0 
L -3.5 0 
" style="stroke: #000000; stroke-width: 0.8"/>
      </defs>
      <g>
       <use xlink:href="#mbf4d44478b" x="47.874688" y="384.64" style="stroke: #000000; stroke-width: 0.8"/>
      </g>
     </g>
     <g id="text_7">
      <!-- 0 -->
      <g transform="translate(34.854375 388.465781) scale(0.1 -0.1)">
       <use xlink:href="#DejaVuSansMono-30"/>
      </g>
     </g>
    </g>
    <g id="ytick_2">
     <g id="line2d_8">
      <path d="M 47.874688 332.57931 
L 702.00279 332.57931 
" clip-path="url(#pd3208c2146)" style="fill: none; stroke: #b0b0b0; stroke-opacity: 0.3; stroke-width: 0.8; stroke-linecap: square"/>
     </g>
     <g id="line2d_9">
      <g>
       <use xlink:href="#mbf4d44478b" x="47.874688" y="332.57931" style="stroke: #000000; stroke-width: 0.8"/>
      </g>
     </g>
     <g id="text_8">
      <!-- 20 -->
      <g transform="translate(28.834063 336.405092) scale(0.1 -0.1)">
       <use xlink:href="#DejaVuSansMono-32"/>
       <use xlink:href="#DejaVuSansMono-30" transform="translate(60.205078 0)"/>
      </g>
     </g>
    </g>
    <g id="ytick_3">
     <g id="line2d_10">
      <path d="M 47.874688 280.518621 
L 702.00279 280.518621 
" clip-path="url(#pd3208c2146)" style="fill: none; stroke: #b0b0b0; stroke-opacity: 0.3; stroke-width: 0.8; stroke-linecap: square"/>
     </g>
     <g id="line2d_11">
      <g>
       <use xlink:href="#mbf4d44478b" x="47.874688" y="280.518621" style="stroke: #000000; stroke-width: 0.8"/>
      </g>
     </g>
     <g id="text_9">
      <!-- 40 -->
      <g transform="translate(28.834063 284.344402) scale(0.1 -0.1)">
       <use xlink:href="#DejaVuSansMono-34"/>
       <use xlink:href="#DejaVuSansMono-30" transform="translate(60.205078 0)"/>
      </g>
     </g>
    </g>
    <g id="ytick_4">
     <g id="line2d_12">
      <path d="M 47.874688 228.457931 
L 702.00279 228.457931 
" clip-path="url(#pd3208c2146)" style="fill: none; stroke: #b0b0b0; stroke-opacity: 0.3; stroke-width: 0.8; stroke-linecap: square"/>
     </g>
     <g id="line2d_13">
      <g>
       <use xlink:href="#mbf4d44478b" x="47.874688" y="228.457931" style="stroke: #000000; stroke-width: 0.8"/>
      </g>
     </g>
     <g id="text_10">
      <!-- 60 -->
      <g transform="translate(28.834063 232.283712) scale(0.1 -0.1)">
       <use xlink:href="#DejaVuSansMono-36"/>
       <use xlink:href="#DejaVuSansMono-30" transform="translate(60.205078 0)"/>
      </g>
     </g>
    </g>
    <g id="ytick_5">
     <g id="line2d_14">
      <path d="M 47.874688 176.397241 
L 702.00279 176.397241 
" clip-path="url(#pd3208c2146)" style="fill: none; stroke: #b0b0b0; stroke-opacity: 0.3; stroke-width: 0.8; stroke-linecap: square"/>
     </g>
     <g id="line2d_15">
      <g>
       <use xlink:href="#mbf4d44478b" x="47.874688" y="176.397241" style="stroke: #000000; stroke-width: 0.8"/>
      </g>
     </g>
     <g id="text_11">
      <!-- 80 -->
      <g transform="translate(28.834063 180.223023) scale(0.1 -0.1)">
       <use xlink:href="#DejaVuSansMono-38"/>
       <use xlink:href="#DejaVuSansMono-30" transform="translate(60.205078 0)"/>
      </g>
     </g>
    </g>
    <g id="ytick_6">
     <g id="line2d_16">
      <path d="M 47.874688 124.336552 
L 702.00279 124.336552 
" clip-path="url(#pd3208c2146)" style="fill: none; stroke: #b0b0b0; stroke-opacity: 0.3; stroke-width: 0.8; stroke-linecap: square"/>
     </g>
     <g id="line2d_17">
      <g>
       <use xlink:href="#mbf4d44478b" x="47.874688" y="124.336552" style="stroke: #000000; stroke-width: 0.8"/>
      </g>
     </g>
     <g id="text_12">
      <!-- 100 -->
      <g transform="translate(22.81375 128.162333) scale(0.1 -0.1)">
       <use xlink:href="#DejaVuSansMono-31"/>
       <use xlink:href="#DejaVuSansMono-30" transform="translate(60.205078 0)"/>
       <use xlink:href="#DejaVuSansMono-30" transform="translate(120.410156 0)"/>
      </g>
     </g>
    </g>
    <g id="ytick_7">
     <g id="line2d_18">
      <path d="M 47.874688 72.275862 
L 702.00279 72.275862 
" clip-path="url(#pd3208c2146)" style="fill: none; stroke: #b0b0b0; stroke-opacity: 0.3; stroke-width: 0.8; stroke-linecap: square"/>
     </g>
     <g id="line2d_19">
      <g>
       <use xlink:href="#mbf4d44478b" x="47.874688" y="72.275862" style="stroke: #000000; stroke-width: 0.8"/>
      </g>
     </g>
     <g id="text_13">
      <!-- 120 -->
      <g transform="translate(22.81375 76.101643) scale(0.1 -0.1)">
       <use xlink:href="#DejaVuSansMono-31"/>
       <use xlink:href="#DejaVuSansMono-32" transform="translate(60.205078 0)"/>
       <use xlink:href="#DejaVuSansMono-30" transform="translate(120.410156 0)"/>
      </g>
     </g>
    </g>
    <g id="ytick_8">
     <g id="line2d_20">
      <path d="M 47.874688 20.215172 
L 702.00279 20.215172 
" clip-path="url(#pd3208c2146)" style="fill: none; stroke: #b0b0b0; stroke-opacity: 0.3; stroke-width: 0.8; stroke-linecap: square"/>
     </g>
     <g id="line2d_21">
      <g>
       <use xlink:href="#mbf4d44478b" x="47.874688" y="20.215172" style="stroke: #000000; stroke-width: 0.8"/>
      </g>
     </g>
     <g id="text_14">
      <!-- 140 -->
      <g transform="translate(22.81375 24.040954) scale(0.1 -0.1)">
       <use xlink:href="#DejaVuSansMono-31"/>
       <use xlink:href="#DejaVuSansMono-34" transform="translate(60.205078 0)"/>
       <use xlink:href="#DejaVuSansMono-30" transform="translate(120.410156 0)"/>
      </g>
     </g>
    </g>
    <g id="text_15">
     <!-- End-to-End Memory Usage (GB) -->
     <g transform="translate(16.318125 297.06125) rotate(-90) scale(0.12 -0.12)">
      <defs>
       <path id="DejaVuSansMono-Bold-45" d="M 3431 0 
L 525 0 
L 525 4666 
L 3431 4666 
L 3431 3853 
L 1447 3853 
L 1447 2847 
L 3244 2847 
L 3244 2034 
L 1447 2034 
L 1447 813 
L 3431 813 
L 3431 0 
z
" transform="scale(0.015625)"/>
       <path id="DejaVuSansMono-Bold-64" d="M 2472 3003 
L 2472 4863 
L 3384 4863 
L 3384 0 
L 2472 0 
L 2472 519 
Q 2325 216 2092 62 
Q 1859 -91 1544 -91 
Q 944 -91 612 390 
Q 281 872 281 1747 
Q 281 2634 617 3109 
Q 953 3584 1575 3584 
Q 1856 3584 2079 3439 
Q 2303 3294 2472 3003 
z
M 1197 1741 
Q 1197 1234 1365 946 
Q 1534 659 1831 659 
Q 2128 659 2300 946 
Q 2472 1234 2472 1741 
Q 2472 2247 2300 2534 
Q 2128 2822 1831 2822 
Q 1534 2822 1365 2534 
Q 1197 2247 1197 1741 
z
" transform="scale(0.015625)"/>
       <path id="DejaVuSansMono-Bold-2d" d="M 941 2297 
L 2913 2297 
L 2913 1388 
L 941 1388 
L 941 2297 
z
" transform="scale(0.015625)"/>
       <path id="DejaVuSansMono-Bold-6f" d="M 1925 2841 
Q 1597 2841 1409 2552 
Q 1222 2263 1222 1747 
Q 1222 1231 1409 942 
Q 1597 653 1925 653 
Q 2256 653 2443 942 
Q 2631 1231 2631 1747 
Q 2631 2263 2443 2552 
Q 2256 2841 1925 2841 
z
M 306 1747 
Q 306 2594 745 3089 
Q 1184 3584 1925 3584 
Q 2669 3584 3108 3089 
Q 3547 2594 3547 1747 
Q 3547 900 3108 404 
Q 2669 -91 1925 -91 
Q 1184 -91 745 404 
Q 306 900 306 1747 
z
" transform="scale(0.015625)"/>
       <path id="DejaVuSansMono-Bold-4d" d="M 269 4666 
L 1369 4666 
L 1925 2619 
L 2478 4666 
L 3584 4666 
L 3584 0 
L 2791 0 
L 2791 3738 
L 2297 1697 
L 1563 1697 
L 1063 3738 
L 1063 0 
L 269 0 
L 269 4666 
z
" transform="scale(0.015625)"/>
       <path id="DejaVuSansMono-Bold-6d" d="M 2156 3150 
Q 2259 3372 2418 3478 
Q 2578 3584 2809 3584 
Q 3263 3584 3436 3271 
Q 3609 2959 3609 1972 
L 3609 0 
L 2859 0 
L 2859 2247 
Q 2859 2638 2800 2769 
Q 2741 2900 2584 2900 
Q 2428 2900 2365 2765 
Q 2303 2631 2303 2247 
L 2303 0 
L 1563 0 
L 1563 2247 
Q 1563 2631 1500 2765 
Q 1438 2900 1281 2900 
Q 1125 2900 1065 2769 
Q 1006 2638 1006 2247 
L 1006 0 
L 256 0 
L 256 3500 
L 922 3500 
L 922 3138 
Q 1000 3344 1172 3464 
Q 1344 3584 1556 3584 
Q 1769 3584 1944 3457 
Q 2119 3331 2156 3150 
z
" transform="scale(0.015625)"/>
       <path id="DejaVuSansMono-Bold-72" d="M 3597 2534 
Q 3447 2672 3245 2740 
Q 3044 2809 2803 2809 
Q 2513 2809 2295 2707 
Q 2078 2606 1959 2413 
Q 1884 2294 1854 2125 
Q 1825 1956 1825 1613 
L 1825 0 
L 909 0 
L 909 3500 
L 1825 3500 
L 1825 2956 
Q 1959 3256 2237 3420 
Q 2516 3584 2888 3584 
Q 3075 3584 3254 3539 
Q 3434 3494 3597 3406 
L 3597 2534 
z
" transform="scale(0.015625)"/>
       <path id="DejaVuSansMono-Bold-79" d="M 2222 -378 
Q 2038 -872 1780 -1098 
Q 1522 -1325 1153 -1325 
L 397 -1325 
L 397 -628 
L 769 -628 
Q 1050 -628 1181 -533 
Q 1313 -438 1447 -91 
L 1516 97 
L 184 3500 
L 1147 3500 
L 1947 1228 
L 2713 3500 
L 3675 3500 
L 2222 -378 
z
" transform="scale(0.015625)"/>
       <path id="DejaVuSansMono-Bold-55" d="M 331 1722 
L 331 4666 
L 1253 4666 
L 1253 1491 
Q 1253 1141 1431 942 
Q 1609 744 1925 744 
Q 2241 744 2419 942 
Q 2597 1141 2597 1491 
L 2597 4666 
L 3519 4666 
L 3519 1722 
Q 3519 772 3141 340 
Q 2763 -91 1925 -91 
Q 1091 -91 711 340 
Q 331 772 331 1722 
z
" transform="scale(0.015625)"/>
       <path id="DejaVuSansMono-Bold-73" d="M 3097 3391 
L 3097 2591 
Q 2844 2753 2570 2836 
Q 2297 2919 2022 2919 
Q 1716 2919 1559 2830 
Q 1403 2741 1403 2566 
Q 1403 2316 2072 2159 
L 2106 2150 
L 2369 2088 
Q 2869 1969 3101 1705 
Q 3334 1441 3334 991 
Q 3334 450 2979 179 
Q 2625 -91 1913 -91 
Q 1597 -91 1265 -36 
Q 934 19 594 128 
L 594 928 
Q 897 756 1211 665 
Q 1525 575 1819 575 
Q 2141 575 2306 669 
Q 2472 763 2472 941 
Q 2472 1116 2355 1209 
Q 2238 1303 1797 1409 
L 1544 1466 
Q 1019 1584 778 1837 
Q 538 2091 538 2516 
Q 538 3022 903 3303 
Q 1269 3584 1931 3584 
Q 2228 3584 2523 3536 
Q 2819 3488 3097 3391 
z
" transform="scale(0.015625)"/>
       <path id="DejaVuSansMono-Bold-61" d="M 2188 1644 
Q 1675 1644 1472 1512 
Q 1269 1381 1269 1063 
Q 1269 825 1409 684 
Q 1550 544 1791 544 
Q 2153 544 2353 817 
Q 2553 1091 2553 1581 
L 2553 1644 
L 2188 1644 
z
M 3463 1997 
L 3463 0 
L 2553 0 
L 2553 391 
Q 2388 159 2128 34 
Q 1869 -91 1556 -91 
Q 959 -91 626 225 
Q 294 541 294 1106 
Q 294 1719 691 2011 
Q 1088 2303 1919 2303 
L 2553 2303 
L 2553 2456 
Q 2553 2678 2392 2792 
Q 2231 2906 1919 2906 
Q 1591 2906 1283 2823 
Q 975 2741 641 2559 
L 641 3341 
Q 944 3466 1256 3525 
Q 1569 3584 1919 3584 
Q 2772 3584 3117 3237 
Q 3463 2891 3463 1997 
z
" transform="scale(0.015625)"/>
       <path id="DejaVuSansMono-Bold-28" d="M 2888 4856 
Q 2475 4109 2275 3409 
Q 2075 2709 2075 2009 
Q 2075 1316 2275 611 
Q 2475 -94 2888 -844 
L 2175 -844 
Q 1678 -122 1437 579 
Q 1197 1281 1197 2009 
Q 1197 2734 1439 3439 
Q 1681 4144 2175 4856 
L 2888 4856 
z
" transform="scale(0.015625)"/>
       <path id="DejaVuSansMono-Bold-47" d="M 2725 844 
L 2725 1734 
L 2094 1734 
L 2094 2509 
L 3531 2509 
L 3531 372 
Q 3266 144 2945 26 
Q 2625 -91 2259 -91 
Q 1353 -91 859 539 
Q 366 1169 366 2328 
Q 366 3506 864 4128 
Q 1363 4750 2303 4750 
Q 2584 4750 2856 4670 
Q 3128 4591 3366 4441 
L 3366 3419 
Q 3172 3669 2920 3795 
Q 2669 3922 2369 3922 
Q 1844 3922 1584 3526 
Q 1325 3131 1325 2328 
Q 1325 1550 1575 1144 
Q 1825 738 2303 738 
Q 2447 738 2553 764 
Q 2659 791 2725 844 
z
" transform="scale(0.015625)"/>
       <path id="DejaVuSansMono-Bold-42" d="M 1281 2119 
L 1281 738 
L 1894 738 
Q 2334 738 2511 888 
Q 2688 1038 2688 1409 
Q 2688 1788 2503 1953 
Q 2319 2119 1894 2119 
L 1281 2119 
z
M 1281 3938 
L 1281 2853 
L 1894 2853 
Q 2244 2853 2392 2978 
Q 2541 3103 2541 3391 
Q 2541 3678 2389 3808 
Q 2238 3938 1894 3938 
L 1281 3938 
z
M 391 4672 
L 1894 4672 
Q 2672 4672 3064 4376 
Q 3456 4081 3456 3494 
Q 3456 3044 3225 2791 
Q 2994 2538 2547 2497 
Q 3081 2444 3351 2137 
Q 3622 1831 3622 1281 
Q 3622 606 3215 303 
Q 2809 0 1894 0 
L 391 0 
L 391 4672 
z
" transform="scale(0.015625)"/>
       <path id="DejaVuSansMono-Bold-29" d="M 966 4856 
L 1678 4856 
Q 2172 4144 2414 3439 
Q 2656 2734 2656 2009 
Q 2656 1281 2415 579 
Q 2175 -122 1678 -844 
L 966 -844 
Q 1378 -94 1578 611 
Q 1778 1316 1778 2009 
Q 1778 2709 1578 3409 
Q 1378 4109 966 4856 
z
" transform="scale(0.015625)"/>
      </defs>
      <use xlink:href="#DejaVuSansMono-Bold-45"/>
      <use xlink:href="#DejaVuSansMono-Bold-6e" transform="translate(60.205078 0)"/>
      <use xlink:href="#DejaVuSansMono-Bold-64" transform="translate(120.410156 0)"/>
      <use xlink:href="#DejaVuSansMono-Bold-2d" transform="translate(180.615234 0)"/>
      <use xlink:href="#DejaVuSansMono-Bold-74" transform="translate(240.820312 0)"/>
      <use xlink:href="#DejaVuSansMono-Bold-6f" transform="translate(301.025391 0)"/>
      <use xlink:href="#DejaVuSansMono-Bold-2d" transform="translate(361.230469 0)"/>
      <use xlink:href="#DejaVuSansMono-Bold-45" transform="translate(421.435547 0)"/>
      <use xlink:href="#DejaVuSansMono-Bold-6e" transform="translate(481.640625 0)"/>
      <use xlink:href="#DejaVuSansMono-Bold-64" transform="translate(541.845703 0)"/>
      <use xlink:href="#DejaVuSansMono-Bold-20" transform="translate(602.050781 0)"/>
      <use xlink:href="#DejaVuSansMono-Bold-4d" transform="translate(662.255859 0)"/>
      <use xlink:href="#DejaVuSansMono-Bold-65" transform="translate(722.460938 0)"/>
      <use xlink:href="#DejaVuSansMono-Bold-6d" transform="translate(782.666016 0)"/>
      <use xlink:href="#DejaVuSansMono-Bold-6f" transform="translate(842.871094 0)"/>
      <use xlink:href="#DejaVuSansMono-Bold-72" transform="translate(903.076172 0)"/>
      <use xlink:href="#DejaVuSansMono-Bold-79" transform="translate(963.28125 0)"/>
      <use xlink:href="#DejaVuSansMono-Bold-20" transform="translate(1023.486328 0)"/>
      <use xlink:href="#DejaVuSansMono-Bold-55" transform="translate(1083.691406 0)"/>
      <use xlink:href="#DejaVuSansMono-Bold-73" transform="translate(1143.896484 0)"/>
      <use xlink:href="#DejaVuSansMono-Bold-61" transform="translate(1204.101562 0)"/>
      <use xlink:href="#DejaVuSansMono-Bold-67" transform="translate(1264.306641 0)"/>
      <use xlink:href="#DejaVuSansMono-Bold-65" transform="translate(1324.511719 0)"/>
      <use xlink:href="#DejaVuSansMono-Bold-20" transform="translate(1384.716797 0)"/>
      <use xlink:href="#DejaVuSansMono-Bold-28" transform="translate(1444.921875 0)"/>
      <use xlink:href="#DejaVuSansMono-Bold-47" transform="translate(1505.126953 0)"/>
      <use xlink:href="#DejaVuSansMono-Bold-42" transform="translate(1565.332031 0)"/>
      <use xlink:href="#DejaVuSansMono-Bold-29" transform="translate(1625.537109 0)"/>
     </g>
    </g>
   </g>
   <g id="patch_23">
    <path d="M 47.874688 384.64 
L 47.874688 7.2 
" style="fill: none; stroke: #000000; stroke-width: 0.8; stroke-linejoin: miter; stroke-linecap: square"/>
   </g>
   <g id="patch_24">
    <path d="M 702.00279 384.64 
L 702.00279 7.2 
" style="fill: none; stroke: #000000; stroke-width: 0.8; stroke-linejoin: miter; stroke-linecap: square"/>
   </g>
   <g id="patch_25">
    <path d="M 47.874688 384.64 
L 702.00279 384.64 
" style="fill: none; stroke: #000000; stroke-width: 0.8; stroke-linejoin: miter; stroke-linecap: square"/>
   </g>
   <g id="patch_26">
    <path d="M 47.874688 7.2 
L 702.00279 7.2 
" style="fill: none; stroke: #000000; stroke-width: 0.8; stroke-linejoin: miter; stroke-linecap: square"/>
   </g>
   <g id="text_16">
    <path d="M 104.596019 363.624868 
L 106.282113 363.624868 
L 106.282113 357.495806 
L 104.467113 357.904868 
L 104.467113 356.916587 
L 106.2718 356.517837 
L 107.356332 356.517837 
L 107.356332 363.624868 
L 109.0218 363.624868 
L 109.0218 364.537524 
L 104.596019 364.537524 
L 104.596019 363.624868 
z
M 110.51389 356.517837 
L 115.563578 356.517837 
L 115.563578 356.980181 
L 112.694984 364.537524 
L 111.562328 364.537524 
L 114.355297 357.432212 
L 110.51389 357.432212 
L 110.51389 356.517837 
z
M 119.016761 362.899556 
L 120.371136 362.899556 
L 120.371136 364.537524 
L 119.016761 364.537524 
L 119.016761 362.899556 
z
M 126.321664 360.728774 
Q 125.596351 360.728774 125.201039 361.134399 
Q 124.807445 361.540024 124.807445 362.280806 
Q 124.807445 363.023306 125.206195 363.434087 
Q 125.606664 363.844868 126.321664 363.844868 
Q 127.052132 363.844868 127.445726 363.439243 
Q 127.841039 363.033618 127.841039 362.280806 
Q 127.841039 361.545181 127.44057 361.137837 
Q 127.04182 360.728774 126.321664 360.728774 
z
M 125.376351 360.278462 
Q 124.683695 360.101431 124.293539 359.618462 
Q 123.905101 359.133774 123.905101 358.451431 
Q 123.905101 357.495806 124.554789 356.935493 
Q 125.204476 356.373462 126.321664 356.373462 
Q 127.444007 356.373462 128.093695 356.935493 
Q 128.743382 357.495806 128.743382 358.451431 
Q 128.743382 359.133774 128.353226 359.618462 
Q 127.964789 360.101431 127.272132 360.278462 
Q 128.078226 360.455493 128.504476 360.993462 
Q 128.932445 361.529712 128.932445 362.383931 
Q 128.932445 363.468462 128.239789 364.082056 
Q 127.547132 364.693931 126.321664 364.693931 
Q 125.097914 364.693931 124.406976 364.083774 
Q 123.716039 363.473618 123.716039 362.394243 
Q 123.716039 361.534868 124.142289 360.995181 
Q 124.570257 360.455493 125.376351 360.278462 
z
M 124.984476 358.554556 
Q 124.984476 359.199087 125.328226 359.537681 
Q 125.671976 359.874556 126.321664 359.874556 
Q 126.976507 359.874556 127.320257 359.537681 
Q 127.664007 359.199087 127.664007 358.554556 
Q 127.664007 357.897993 127.321976 357.554243 
Q 126.981664 357.210493 126.321664 357.210493 
Q 125.671976 357.210493 125.328226 357.557681 
Q 124.984476 357.904868 124.984476 358.554556 
z
" style="stroke: #ffffff; stroke-width: 3"/>
    <path d="M 104.596019 363.624868 
L 106.282113 363.624868 
L 106.282113 357.495806 
L 104.467113 357.904868 
L 104.467113 356.916587 
L 106.2718 356.517837 
L 107.356332 356.517837 
L 107.356332 363.624868 
L 109.0218 363.624868 
L 109.0218 364.537524 
L 104.596019 364.537524 
L 104.596019 363.624868 
z
M 110.51389 356.517837 
L 115.563578 356.517837 
L 115.563578 356.980181 
L 112.694984 364.537524 
L 111.562328 364.537524 
L 114.355297 357.432212 
L 110.51389 357.432212 
L 110.51389 356.517837 
z
M 119.016761 362.899556 
L 120.371136 362.899556 
L 120.371136 364.537524 
L 119.016761 364.537524 
L 119.016761 362.899556 
z
M 126.321664 360.728774 
Q 125.596351 360.728774 125.201039 361.134399 
Q 124.807445 361.540024 124.807445 362.280806 
Q 124.807445 363.023306 125.206195 363.434087 
Q 125.606664 363.844868 126.321664 363.844868 
Q 127.052132 363.844868 127.445726 363.439243 
Q 127.841039 363.033618 127.841039 362.280806 
Q 127.841039 361.545181 127.44057 361.137837 
Q 127.04182 360.728774 126.321664 360.728774 
z
M 125.376351 360.278462 
Q 124.683695 360.101431 124.293539 359.618462 
Q 123.905101 359.133774 123.905101 358.451431 
Q 123.905101 357.495806 124.554789 356.935493 
Q 125.204476 356.373462 126.321664 356.373462 
Q 127.444007 356.373462 128.093695 356.935493 
Q 128.743382 357.495806 128.743382 358.451431 
Q 128.743382 359.133774 128.353226 359.618462 
Q 127.964789 360.101431 127.272132 360.278462 
Q 128.078226 360.455493 128.504476 360.993462 
Q 128.932445 361.529712 128.932445 362.383931 
Q 128.932445 363.468462 128.239789 364.082056 
Q 127.547132 364.693931 126.321664 364.693931 
Q 125.097914 364.693931 124.406976 364.083774 
Q 123.716039 363.473618 123.716039 362.394243 
Q 123.716039 361.534868 124.142289 360.995181 
Q 124.570257 360.455493 125.376351 360.278462 
z
M 124.984476 358.554556 
Q 124.984476 359.199087 125.328226 359.537681 
Q 125.671976 359.874556 126.321664 359.874556 
Q 126.976507 359.874556 127.320257 359.537681 
Q 127.664007 359.199087 127.664007 358.554556 
Q 127.664007 357.897993 127.321976 357.554243 
Q 126.981664 357.210493 126.321664 357.210493 
Q 125.671976 357.210493 125.328226 357.557681 
Q 124.984476 357.904868 124.984476 358.554556 
z
"/>
   </g>
   <g id="text_17">
    <!-- 4.08 -->
    <g transform="translate(157.757867 319.817392) scale(0.11 -0.11)">
     <defs>
      <path id="DejaVuSansMono-2e" d="M 1528 953 
L 2316 953 
L 2316 0 
L 1528 0 
L 1528 953 
z
" transform="scale(0.015625)"/>
     </defs>
     <use xlink:href="#DejaVuSansMono-34"/>
     <use xlink:href="#DejaVuSansMono-2e" transform="translate(60.205078 0)"/>
     <use xlink:href="#DejaVuSansMono-30" transform="translate(120.410156 0)"/>
     <use xlink:href="#DejaVuSansMono-38" transform="translate(180.615234 0)"/>
    </g>
   </g>
   <g id="text_18">
    <path d="M 236.587692 339.811985 
Q 237.376598 340.021672 237.795973 340.556204 
Q 238.215348 341.090735 238.215348 341.889954 
Q 238.215348 342.996829 237.471129 343.629329 
Q 236.72691 344.26011 235.412067 344.26011 
Q 234.858629 344.26011 234.282848 344.156985 
Q 233.708785 344.055579 233.155348 343.86136 
L 233.155348 342.781985 
Q 233.703629 343.067297 234.234723 343.206516 
Q 234.767535 343.345735 235.293473 343.345735 
Q 236.185504 343.345735 236.663317 342.943547 
Q 237.141129 342.54136 237.141129 341.783391 
Q 237.141129 341.085579 236.663317 340.674797 
Q 236.185504 340.264016 235.369098 340.264016 
L 234.54066 340.264016 
L 234.54066 339.371985 
L 235.369098 339.371985 
Q 236.115035 339.371985 236.53441 339.045422 
Q 236.953785 338.717141 236.953785 338.131047 
Q 236.953785 337.514016 236.563629 337.184016 
Q 236.173473 336.852297 235.455035 336.852297 
Q 234.977223 336.852297 234.466754 336.960579 
Q 233.956285 337.067141 233.397692 337.281985 
L 233.397692 336.283391 
Q 234.047379 336.111516 234.55441 336.025579 
Q 235.06316 335.939641 235.455035 335.939641 
Q 236.625504 335.939641 237.326754 336.527454 
Q 238.028004 337.115266 238.028004 338.088079 
Q 238.028004 338.748079 237.658473 339.189797 
Q 237.29066 339.629797 236.587692 339.811985 
z
M 243.21025 339.811985 
Q 243.999156 340.021672 244.418531 340.556204 
Q 244.837906 341.090735 244.837906 341.889954 
Q 244.837906 342.996829 244.093688 343.629329 
Q 243.349469 344.26011 242.034625 344.26011 
Q 241.481188 344.26011 240.905406 344.156985 
Q 240.331344 344.055579 239.777906 343.86136 
L 239.777906 342.781985 
Q 240.326188 343.067297 240.857281 343.206516 
Q 241.390094 343.345735 241.916031 343.345735 
Q 242.808063 343.345735 243.285875 342.943547 
Q 243.763688 342.54136 243.763688 341.783391 
Q 243.763688 341.085579 243.285875 340.674797 
Q 242.808063 340.264016 241.991656 340.264016 
L 241.163219 340.264016 
L 241.163219 339.371985 
L 241.991656 339.371985 
Q 242.737594 339.371985 243.156969 339.045422 
Q 243.576344 338.717141 243.576344 338.131047 
Q 243.576344 337.514016 243.186188 337.184016 
Q 242.796031 336.852297 242.077594 336.852297 
Q 241.599781 336.852297 241.089313 336.960579 
Q 240.578844 337.067141 240.02025 337.281985 
L 240.02025 336.283391 
Q 240.669938 336.111516 241.176969 336.025579 
Q 241.685719 335.939641 242.077594 335.939641 
Q 243.248063 335.939641 243.949313 336.527454 
Q 244.650563 337.115266 244.650563 338.088079 
Q 244.650563 338.748079 244.281031 339.189797 
Q 243.913219 339.629797 243.21025 339.811985 
z
M 248.29109 342.465735 
L 249.645465 342.465735 
L 249.645465 344.103704 
L 248.29109 344.103704 
L 248.29109 342.465735 
z
M 253.39943 336.084016 
L 257.459117 336.084016 
L 257.459117 336.998391 
L 254.387711 336.998391 
L 254.387711 338.968079 
Q 254.618024 338.882141 254.851774 338.84261 
Q 255.085524 338.803079 255.322711 338.803079 
Q 256.568805 338.803079 257.299274 339.538704 
Q 258.029742 340.274329 258.029742 341.530735 
Q 258.029742 342.799172 257.26318 343.529641 
Q 256.498336 344.26011 255.171461 344.26011 
Q 254.532086 344.26011 254.002711 344.174172 
Q 253.475055 344.088235 253.05568 343.91636 
L 253.05568 342.814641 
Q 253.548961 343.082766 254.049117 343.21511 
Q 254.549274 343.345735 255.070055 343.345735 
Q 255.967242 343.345735 256.45193 342.873079 
Q 256.938336 342.400422 256.938336 341.530735 
Q 256.938336 340.67136 256.436461 340.193547 
Q 255.934586 339.715735 255.037399 339.715735 
Q 254.602555 339.715735 254.188336 339.815422 
Q 253.775836 339.913391 253.39943 340.112766 
L 253.39943 336.084016 
z
" style="stroke: #ffffff; stroke-width: 3"/>
    <path d="M 236.587692 339.811985 
Q 237.376598 340.021672 237.795973 340.556204 
Q 238.215348 341.090735 238.215348 341.889954 
Q 238.215348 342.996829 237.471129 343.629329 
Q 236.72691 344.26011 235.412067 344.26011 
Q 234.858629 344.26011 234.282848 344.156985 
Q 233.708785 344.055579 233.155348 343.86136 
L 233.155348 342.781985 
Q 233.703629 343.067297 234.234723 343.206516 
Q 234.767535 343.345735 235.293473 343.345735 
Q 236.185504 343.345735 236.663317 342.943547 
Q 237.141129 342.54136 237.141129 341.783391 
Q 237.141129 341.085579 236.663317 340.674797 
Q 236.185504 340.264016 235.369098 340.264016 
L 234.54066 340.264016 
L 234.54066 339.371985 
L 235.369098 339.371985 
Q 236.115035 339.371985 236.53441 339.045422 
Q 236.953785 338.717141 236.953785 338.131047 
Q 236.953785 337.514016 236.563629 337.184016 
Q 236.173473 336.852297 235.455035 336.852297 
Q 234.977223 336.852297 234.466754 336.960579 
Q 233.956285 337.067141 233.397692 337.281985 
L 233.397692 336.283391 
Q 234.047379 336.111516 234.55441 336.025579 
Q 235.06316 335.939641 235.455035 335.939641 
Q 236.625504 335.939641 237.326754 336.527454 
Q 238.028004 337.115266 238.028004 338.088079 
Q 238.028004 338.748079 237.658473 339.189797 
Q 237.29066 339.629797 236.587692 339.811985 
z
M 243.21025 339.811985 
Q 243.999156 340.021672 244.418531 340.556204 
Q 244.837906 341.090735 244.837906 341.889954 
Q 244.837906 342.996829 244.093688 343.629329 
Q 243.349469 344.26011 242.034625 344.26011 
Q 241.481188 344.26011 240.905406 344.156985 
Q 240.331344 344.055579 239.777906 343.86136 
L 239.777906 342.781985 
Q 240.326188 343.067297 240.857281 343.206516 
Q 241.390094 343.345735 241.916031 343.345735 
Q 242.808063 343.345735 243.285875 342.943547 
Q 243.763688 342.54136 243.763688 341.783391 
Q 243.763688 341.085579 243.285875 340.674797 
Q 242.808063 340.264016 241.991656 340.264016 
L 241.163219 340.264016 
L 241.163219 339.371985 
L 241.991656 339.371985 
Q 242.737594 339.371985 243.156969 339.045422 
Q 243.576344 338.717141 243.576344 338.131047 
Q 243.576344 337.514016 243.186188 337.184016 
Q 242.796031 336.852297 242.077594 336.852297 
Q 241.599781 336.852297 241.089313 336.960579 
Q 240.578844 337.067141 240.02025 337.281985 
L 240.02025 336.283391 
Q 240.669938 336.111516 241.176969 336.025579 
Q 241.685719 335.939641 242.077594 335.939641 
Q 243.248063 335.939641 243.949313 336.527454 
Q 244.650563 337.115266 244.650563 338.088079 
Q 244.650563 338.748079 244.281031 339.189797 
Q 243.913219 339.629797 243.21025 339.811985 
z
M 248.29109 342.465735 
L 249.645465 342.465735 
L 249.645465 344.103704 
L 248.29109 344.103704 
L 248.29109 342.465735 
z
M 253.39943 336.084016 
L 257.459117 336.084016 
L 257.459117 336.998391 
L 254.387711 336.998391 
L 254.387711 338.968079 
Q 254.618024 338.882141 254.851774 338.84261 
Q 255.085524 338.803079 255.322711 338.803079 
Q 256.568805 338.803079 257.299274 339.538704 
Q 258.029742 340.274329 258.029742 341.530735 
Q 258.029742 342.799172 257.26318 343.529641 
Q 256.498336 344.26011 255.171461 344.26011 
Q 254.532086 344.26011 254.002711 344.174172 
Q 253.475055 344.088235 253.05568 343.91636 
L 253.05568 342.814641 
Q 253.548961 343.082766 254.049117 343.21511 
Q 254.549274 343.345735 255.070055 343.345735 
Q 255.967242 343.345735 256.45193 342.873079 
Q 256.938336 342.400422 256.938336 341.530735 
Q 256.938336 340.67136 256.436461 340.193547 
Q 255.934586 339.715735 255.037399 339.715735 
Q 254.602555 339.715735 254.188336 339.815422 
Q 253.775836 339.913391 253.39943 340.112766 
L 253.39943 336.084016 
z
"/>
   </g>
   <g id="text_19">
    <!-- 4.08 -->
    <g transform="translate(287.032195 278.949751) scale(0.11 -0.11)">
     <use xlink:href="#DejaVuSansMono-34"/>
     <use xlink:href="#DejaVuSansMono-2e" transform="translate(60.205078 0)"/>
     <use xlink:href="#DejaVuSansMono-30" transform="translate(120.410156 0)"/>
     <use xlink:href="#DejaVuSansMono-38" transform="translate(180.615234 0)"/>
    </g>
   </g>
   <g id="text_20">
    <path d="M 362.806083 311.094885 
L 366.86577 311.094885 
L 366.86577 312.00926 
L 363.794364 312.00926 
L 363.794364 313.978948 
Q 364.024676 313.89301 364.258426 313.853479 
Q 364.492176 313.813948 364.729364 313.813948 
Q 365.975458 313.813948 366.705926 314.549573 
Q 367.436395 315.285198 367.436395 316.541604 
Q 367.436395 317.810041 366.669833 318.54051 
Q 365.904989 319.270979 364.578114 319.270979 
Q 363.938739 319.270979 363.409364 319.185041 
Q 362.881708 319.099104 362.462333 318.927229 
L 362.462333 317.82551 
Q 362.955614 318.093635 363.45577 318.225979 
Q 363.955926 318.356604 364.476708 318.356604 
Q 365.373895 318.356604 365.858583 317.883948 
Q 366.344989 317.411291 366.344989 316.541604 
Q 366.344989 315.682229 365.843114 315.204416 
Q 365.341239 314.726604 364.444051 314.726604 
Q 364.009208 314.726604 363.594989 314.826291 
Q 363.182489 314.92426 362.806083 315.123635 
L 362.806083 311.094885 
z
M 370.320672 318.201916 
L 374.003954 318.201916 
L 374.003954 319.114573 
L 369.133016 319.114573 
L 369.133016 318.201916 
Q 370.136766 317.143166 370.88786 316.331916 
Q 371.640672 315.520666 371.925985 315.188948 
Q 372.463954 314.532385 372.651297 314.12676 
Q 372.838641 313.721135 372.838641 313.298323 
Q 372.838641 312.626291 372.443329 312.244729 
Q 372.049735 311.863166 371.362235 311.863166 
Q 370.87411 311.863166 370.336141 312.040198 
Q 369.799891 312.217229 369.198329 312.578166 
L 369.198329 311.481604 
Q 369.750047 311.218635 370.284579 311.084573 
Q 370.81911 310.95051 371.339891 310.95051 
Q 372.517235 310.95051 373.233954 311.576135 
Q 373.950672 312.20176 373.950672 313.217541 
Q 373.950672 313.733166 373.711766 314.248791 
Q 373.47286 314.764416 372.93661 315.386604 
Q 372.635829 315.73551 372.063485 316.35426 
Q 371.491141 316.971291 370.320672 318.201916 
z
M 377.565419 317.476604 
L 378.919794 317.476604 
L 378.919794 319.114573 
L 377.565419 319.114573 
L 377.565419 317.476604 
z
M 382.307665 311.094885 
L 387.357352 311.094885 
L 387.357352 311.557229 
L 384.488758 319.114573 
L 383.356102 319.114573 
L 386.149071 312.00926 
L 382.307665 312.00926 
L 382.307665 311.094885 
z
" style="stroke: #ffffff; stroke-width: 3"/>
    <path d="M 362.806083 311.094885 
L 366.86577 311.094885 
L 366.86577 312.00926 
L 363.794364 312.00926 
L 363.794364 313.978948 
Q 364.024676 313.89301 364.258426 313.853479 
Q 364.492176 313.813948 364.729364 313.813948 
Q 365.975458 313.813948 366.705926 314.549573 
Q 367.436395 315.285198 367.436395 316.541604 
Q 367.436395 317.810041 366.669833 318.54051 
Q 365.904989 319.270979 364.578114 319.270979 
Q 363.938739 319.270979 363.409364 319.185041 
Q 362.881708 319.099104 362.462333 318.927229 
L 362.462333 317.82551 
Q 362.955614 318.093635 363.45577 318.225979 
Q 363.955926 318.356604 364.476708 318.356604 
Q 365.373895 318.356604 365.858583 317.883948 
Q 366.344989 317.411291 366.344989 316.541604 
Q 366.344989 315.682229 365.843114 315.204416 
Q 365.341239 314.726604 364.444051 314.726604 
Q 364.009208 314.726604 363.594989 314.826291 
Q 363.182489 314.92426 362.806083 315.123635 
L 362.806083 311.094885 
z
M 370.320672 318.201916 
L 374.003954 318.201916 
L 374.003954 319.114573 
L 369.133016 319.114573 
L 369.133016 318.201916 
Q 370.136766 317.143166 370.88786 316.331916 
Q 371.640672 315.520666 371.925985 315.188948 
Q 372.463954 314.532385 372.651297 314.12676 
Q 372.838641 313.721135 372.838641 313.298323 
Q 372.838641 312.626291 372.443329 312.244729 
Q 372.049735 311.863166 371.362235 311.863166 
Q 370.87411 311.863166 370.336141 312.040198 
Q 369.799891 312.217229 369.198329 312.578166 
L 369.198329 311.481604 
Q 369.750047 311.218635 370.284579 311.084573 
Q 370.81911 310.95051 371.339891 310.95051 
Q 372.517235 310.95051 373.233954 311.576135 
Q 373.950672 312.20176 373.950672 313.217541 
Q 373.950672 313.733166 373.711766 314.248791 
Q 373.47286 314.764416 372.93661 315.386604 
Q 372.635829 315.73551 372.063485 316.35426 
Q 371.491141 316.971291 370.320672 318.201916 
z
M 377.565419 317.476604 
L 378.919794 317.476604 
L 378.919794 319.114573 
L 377.565419 319.114573 
L 377.565419 317.476604 
z
M 382.307665 311.094885 
L 387.357352 311.094885 
L 387.357352 311.557229 
L 384.488758 319.114573 
L 383.356102 319.114573 
L 386.149071 312.00926 
L 382.307665 312.00926 
L 382.307665 311.094885 
z
"/>
   </g>
   <g id="text_21">
    <!-- 4.08 -->
    <g transform="translate(416.306524 228.971488) scale(0.11 -0.11)">
     <use xlink:href="#DejaVuSansMono-34"/>
     <use xlink:href="#DejaVuSansMono-2e" transform="translate(60.205078 0)"/>
     <use xlink:href="#DejaVuSansMono-30" transform="translate(120.410156 0)"/>
     <use xlink:href="#DejaVuSansMono-38" transform="translate(180.615234 0)"/>
    </g>
   </g>
   <g id="text_22">
    <path d="M 491.714317 279.207713 
L 496.764005 279.207713 
L 496.764005 279.670056 
L 493.895411 287.2274 
L 492.762755 287.2274 
L 495.555724 280.122088 
L 491.714317 280.122088 
L 491.714317 279.207713 
z
M 498.336876 279.207713 
L 503.386564 279.207713 
L 503.386564 279.670056 
L 500.51797 287.2274 
L 499.385314 287.2274 
L 502.178282 280.122088 
L 498.336876 280.122088 
L 498.336876 279.207713 
z
M 506.839747 285.589431 
L 508.194122 285.589431 
L 508.194122 287.2274 
L 506.839747 287.2274 
L 506.839747 285.589431 
z
M 512.840118 286.314744 
L 516.5234 286.314744 
L 516.5234 287.2274 
L 511.652462 287.2274 
L 511.652462 286.314744 
Q 512.656212 285.255994 513.407306 284.444744 
Q 514.160118 283.633494 514.445431 283.301775 
Q 514.9834 282.645213 515.170743 282.239588 
Q 515.358087 281.833963 515.358087 281.41115 
Q 515.358087 280.739119 514.962775 280.357556 
Q 514.569181 279.975994 513.881681 279.975994 
Q 513.393556 279.975994 512.855587 280.153025 
Q 512.319337 280.330056 511.717775 280.690994 
L 511.717775 279.594431 
Q 512.269493 279.331463 512.804025 279.1974 
Q 513.338556 279.063338 513.859337 279.063338 
Q 515.036681 279.063338 515.7534 279.688963 
Q 516.470118 280.314588 516.470118 281.330369 
Q 516.470118 281.845994 516.231212 282.361619 
Q 515.992306 282.877244 515.456056 283.499431 
Q 515.155275 283.848338 514.582931 284.467088 
Q 514.010587 285.084119 512.840118 286.314744 
z
" style="stroke: #ffffff; stroke-width: 3"/>
    <path d="M 491.714317 279.207713 
L 496.764005 279.207713 
L 496.764005 279.670056 
L 493.895411 287.2274 
L 492.762755 287.2274 
L 495.555724 280.122088 
L 491.714317 280.122088 
L 491.714317 279.207713 
z
M 498.336876 279.207713 
L 503.386564 279.207713 
L 503.386564 279.670056 
L 500.51797 287.2274 
L 499.385314 287.2274 
L 502.178282 280.122088 
L 498.336876 280.122088 
L 498.336876 279.207713 
z
M 506.839747 285.589431 
L 508.194122 285.589431 
L 508.194122 287.2274 
L 506.839747 287.2274 
L 506.839747 285.589431 
z
M 512.840118 286.314744 
L 516.5234 286.314744 
L 516.5234 287.2274 
L 511.652462 287.2274 
L 511.652462 286.314744 
Q 512.656212 285.255994 513.407306 284.444744 
Q 514.160118 283.633494 514.445431 283.301775 
Q 514.9834 282.645213 515.170743 282.239588 
Q 515.358087 281.833963 515.358087 281.41115 
Q 515.358087 280.739119 514.962775 280.357556 
Q 514.569181 279.975994 513.881681 279.975994 
Q 513.393556 279.975994 512.855587 280.153025 
Q 512.319337 280.330056 511.717775 280.690994 
L 511.717775 279.594431 
Q 512.269493 279.331463 512.804025 279.1974 
Q 513.338556 279.063338 513.859337 279.063338 
Q 515.036681 279.063338 515.7534 279.688963 
Q 516.470118 280.314588 516.470118 281.330369 
Q 516.470118 281.845994 516.231212 282.361619 
Q 515.992306 282.877244 515.456056 283.499431 
Q 515.155275 283.848338 514.582931 284.467088 
Q 514.010587 285.084119 512.840118 286.314744 
z
"/>
   </g>
   <g id="text_23">
    <!-- 4.08 -->
    <g transform="translate(545.580853 165.197144) scale(0.11 -0.11)">
     <use xlink:href="#DejaVuSansMono-34"/>
     <use xlink:href="#DejaVuSansMono-2e" transform="translate(60.205078 0)"/>
     <use xlink:href="#DejaVuSansMono-30" transform="translate(120.410156 0)"/>
     <use xlink:href="#DejaVuSansMono-38" transform="translate(180.615234 0)"/>
    </g>
   </g>
   <g id="text_24">
    <path d="M 618.382162 247.008923 
L 620.068255 247.008923 
L 620.068255 240.879861 
L 618.253255 241.288923 
L 618.253255 240.300642 
L 620.057943 239.901892 
L 621.142474 239.901892 
L 621.142474 247.008923 
L 622.807943 247.008923 
L 622.807943 247.92158 
L 618.382162 247.92158 
L 618.382162 247.008923 
z
M 626.147689 243.89283 
Q 626.147689 243.597205 626.353939 243.382361 
Q 626.561908 243.167517 626.852377 243.167517 
Q 627.153158 243.167517 627.368002 243.382361 
Q 627.582845 243.597205 627.582845 243.89283 
Q 627.582845 244.193611 627.36972 244.403298 
Q 627.158314 244.612986 626.852377 244.612986 
Q 626.551595 244.612986 626.348783 244.408455 
Q 626.147689 244.203923 626.147689 243.89283 
z
M 626.862689 240.616892 
Q 626.10472 240.616892 625.731752 241.433298 
Q 625.358783 242.249705 625.358783 243.92033 
Q 625.358783 245.585798 625.731752 246.402205 
Q 626.10472 247.218611 626.862689 247.218611 
Q 627.625814 247.218611 627.998783 246.402205 
Q 628.371752 245.585798 628.371752 243.92033 
Q 628.371752 242.249705 627.998783 241.433298 
Q 627.625814 240.616892 626.862689 240.616892 
z
M 626.862689 239.757517 
Q 628.146595 239.757517 628.804877 240.811111 
Q 629.463158 241.862986 629.463158 243.92033 
Q 629.463158 245.972517 628.804877 247.026111 
Q 628.146595 248.077986 626.862689 248.077986 
Q 625.578783 248.077986 624.923939 247.026111 
Q 624.269095 245.972517 624.269095 243.92033 
Q 624.269095 241.862986 624.923939 240.811111 
Q 625.578783 239.757517 626.862689 239.757517 
z
M 630.922591 239.901892 
L 635.972279 239.901892 
L 635.972279 240.364236 
L 633.103685 247.92158 
L 631.971029 247.92158 
L 634.763998 240.816267 
L 630.922591 240.816267 
L 630.922591 239.901892 
z
M 639.425463 246.283611 
L 640.779838 246.283611 
L 640.779838 247.92158 
L 639.425463 247.92158 
L 639.425463 246.283611 
z
M 647.36974 240.890173 
L 644.83974 245.128611 
L 647.36974 245.128611 
L 647.36974 240.890173 
z
M 647.192709 239.901892 
L 648.449115 239.901892 
L 648.449115 245.128611 
L 649.518177 245.128611 
L 649.518177 246.008611 
L 648.449115 246.008611 
L 648.449115 247.92158 
L 647.36974 247.92158 
L 647.36974 246.008611 
L 643.970052 246.008611 
L 643.970052 244.984236 
L 647.192709 239.901892 
z
" style="stroke: #ffffff; stroke-width: 3"/>
    <path d="M 618.382162 247.008923 
L 620.068255 247.008923 
L 620.068255 240.879861 
L 618.253255 241.288923 
L 618.253255 240.300642 
L 620.057943 239.901892 
L 621.142474 239.901892 
L 621.142474 247.008923 
L 622.807943 247.008923 
L 622.807943 247.92158 
L 618.382162 247.92158 
L 618.382162 247.008923 
z
M 626.147689 243.89283 
Q 626.147689 243.597205 626.353939 243.382361 
Q 626.561908 243.167517 626.852377 243.167517 
Q 627.153158 243.167517 627.368002 243.382361 
Q 627.582845 243.597205 627.582845 243.89283 
Q 627.582845 244.193611 627.36972 244.403298 
Q 627.158314 244.612986 626.852377 244.612986 
Q 626.551595 244.612986 626.348783 244.408455 
Q 626.147689 244.203923 626.147689 243.89283 
z
M 626.862689 240.616892 
Q 626.10472 240.616892 625.731752 241.433298 
Q 625.358783 242.249705 625.358783 243.92033 
Q 625.358783 245.585798 625.731752 246.402205 
Q 626.10472 247.218611 626.862689 247.218611 
Q 627.625814 247.218611 627.998783 246.402205 
Q 628.371752 245.585798 628.371752 243.92033 
Q 628.371752 242.249705 627.998783 241.433298 
Q 627.625814 240.616892 626.862689 240.616892 
z
M 626.862689 239.757517 
Q 628.146595 239.757517 628.804877 240.811111 
Q 629.463158 241.862986 629.463158 243.92033 
Q 629.463158 245.972517 628.804877 247.026111 
Q 628.146595 248.077986 626.862689 248.077986 
Q 625.578783 248.077986 624.923939 247.026111 
Q 624.269095 245.972517 624.269095 243.92033 
Q 624.269095 241.862986 624.923939 240.811111 
Q 625.578783 239.757517 626.862689 239.757517 
z
M 630.922591 239.901892 
L 635.972279 239.901892 
L 635.972279 240.364236 
L 633.103685 247.92158 
L 631.971029 247.92158 
L 634.763998 240.816267 
L 630.922591 240.816267 
L 630.922591 239.901892 
z
M 639.425463 246.283611 
L 640.779838 246.283611 
L 640.779838 247.92158 
L 639.425463 247.92158 
L 639.425463 246.283611 
z
M 647.36974 240.890173 
L 644.83974 245.128611 
L 647.36974 245.128611 
L 647.36974 240.890173 
z
M 647.192709 239.901892 
L 648.449115 239.901892 
L 648.449115 245.128611 
L 649.518177 245.128611 
L 649.518177 246.008611 
L 648.449115 246.008611 
L 648.449115 247.92158 
L 647.36974 247.92158 
L 647.36974 246.008611 
L 643.970052 246.008611 
L 643.970052 244.984236 
L 647.192709 239.901892 
z
"/>
   </g>
   <g id="text_25">
    <!-- 4.08 -->
    <g transform="translate(674.855181 86.585502) scale(0.11 -0.11)">
     <use xlink:href="#DejaVuSansMono-34"/>
     <use xlink:href="#DejaVuSansMono-2e" transform="translate(60.205078 0)"/>
     <use xlink:href="#DejaVuSansMono-30" transform="translate(120.410156 0)"/>
     <use xlink:href="#DejaVuSansMono-38" transform="translate(180.615234 0)"/>
    </g>
   </g>
   <g id="legend_1">
    <g id="patch_27">
     <path d="M 55.574688 48.484375 
L 362.112031 48.484375 
Q 364.312031 48.484375 364.312031 46.284375 
L 364.312031 14.9 
Q 364.312031 12.7 362.112031 12.7 
L 55.574688 12.7 
Q 53.374688 12.7 53.374688 14.9 
L 53.374688 46.284375 
Q 53.374688 48.484375 55.574688 48.484375 
z
" style="fill: #ffffff; opacity: 0.8; stroke: #cccccc; stroke-linejoin: miter"/>
    </g>
    <g id="patch_28">
     <path d="M 57.774688 25.516719 
L 79.774687 25.516719 
L 79.774687 17.816719 
L 57.774688 17.816719 
z
" style="fill: #0066ff; stroke: #000000; stroke-linejoin: miter"/>
    </g>
    <g id="text_26">
     <!-- Activation Memory -->
     <g transform="translate(88.574688 25.516719) scale(0.11 -0.11)">
      <defs>
       <path id="DejaVuSansMono-41" d="M 1925 4109 
L 1259 1722 
L 2591 1722 
L 1925 4109 
z
M 1544 4666 
L 2309 4666 
L 3738 0 
L 3084 0 
L 2741 1216 
L 1106 1216 
L 769 0 
L 116 0 
L 1544 4666 
z
" transform="scale(0.015625)"/>
       <path id="DejaVuSansMono-63" d="M 3316 178 
Q 3084 44 2839 -23 
Q 2594 -91 2338 -91 
Q 1525 -91 1067 396 
Q 609 884 609 1747 
Q 609 2609 1067 3096 
Q 1525 3584 2338 3584 
Q 2591 3584 2831 3518 
Q 3072 3453 3316 3316 
L 3316 2713 
Q 3088 2916 2858 3006 
Q 2628 3097 2338 3097 
Q 1797 3097 1506 2747 
Q 1216 2397 1216 1747 
Q 1216 1100 1508 748 
Q 1800 397 2338 397 
Q 2638 397 2875 489 
Q 3113 581 3316 775 
L 3316 178 
z
" transform="scale(0.015625)"/>
       <path id="DejaVuSansMono-74" d="M 1919 4494 
L 1919 3500 
L 3225 3500 
L 3225 3053 
L 1919 3053 
L 1919 1153 
Q 1919 766 2066 612 
Q 2213 459 2578 459 
L 3225 459 
L 3225 0 
L 2522 0 
Q 1875 0 1609 259 
Q 1344 519 1344 1153 
L 1344 3053 
L 409 3053 
L 409 3500 
L 1344 3500 
L 1344 4494 
L 1919 4494 
z
" transform="scale(0.015625)"/>
       <path id="DejaVuSansMono-69" d="M 800 3500 
L 2272 3500 
L 2272 447 
L 3413 447 
L 3413 0 
L 556 0 
L 556 447 
L 1697 447 
L 1697 3053 
L 800 3053 
L 800 3500 
z
M 1697 4863 
L 2272 4863 
L 2272 4134 
L 1697 4134 
L 1697 4863 
z
" transform="scale(0.015625)"/>
       <path id="DejaVuSansMono-76" d="M 313 3500 
L 909 3500 
L 1925 563 
L 2944 3500 
L 3541 3500 
L 2297 0 
L 1556 0 
L 313 3500 
z
" transform="scale(0.015625)"/>
       <path id="DejaVuSansMono-61" d="M 2194 1759 
L 2003 1759 
Q 1500 1759 1245 1582 
Q 991 1406 991 1056 
Q 991 741 1181 566 
Q 1372 391 1709 391 
Q 2184 391 2456 720 
Q 2728 1050 2731 1631 
L 2731 1759 
L 2194 1759 
z
M 3309 1997 
L 3309 0 
L 2731 0 
L 2731 519 
Q 2547 206 2267 57 
Q 1988 -91 1588 -91 
Q 1053 -91 734 211 
Q 416 513 416 1019 
Q 416 1603 808 1906 
Q 1200 2209 1959 2209 
L 2731 2209 
L 2731 2300 
Q 2728 2719 2518 2908 
Q 2309 3097 1850 3097 
Q 1556 3097 1256 3012 
Q 956 2928 672 2766 
L 672 3341 
Q 991 3463 1283 3523 
Q 1575 3584 1850 3584 
Q 2284 3584 2592 3456 
Q 2900 3328 3091 3072 
Q 3209 2916 3259 2686 
Q 3309 2456 3309 1997 
z
" transform="scale(0.015625)"/>
       <path id="DejaVuSansMono-6f" d="M 1925 3097 
Q 1488 3097 1263 2756 
Q 1038 2416 1038 1747 
Q 1038 1081 1263 739 
Q 1488 397 1925 397 
Q 2366 397 2591 739 
Q 2816 1081 2816 1747 
Q 2816 2416 2591 2756 
Q 2366 3097 1925 3097 
z
M 1925 3584 
Q 2653 3584 3039 3112 
Q 3425 2641 3425 1747 
Q 3425 850 3040 379 
Q 2656 -91 1925 -91 
Q 1197 -91 812 379 
Q 428 850 428 1747 
Q 428 2641 812 3112 
Q 1197 3584 1925 3584 
z
" transform="scale(0.015625)"/>
       <path id="DejaVuSansMono-6e" d="M 3284 2169 
L 3284 0 
L 2706 0 
L 2706 2169 
Q 2706 2641 2540 2862 
Q 2375 3084 2022 3084 
Q 1619 3084 1401 2798 
Q 1184 2513 1184 1978 
L 1184 0 
L 609 0 
L 609 3500 
L 1184 3500 
L 1184 2975 
Q 1338 3275 1600 3429 
Q 1863 3584 2222 3584 
Q 2756 3584 3020 3232 
Q 3284 2881 3284 2169 
z
" transform="scale(0.015625)"/>
       <path id="DejaVuSansMono-20" transform="scale(0.015625)"/>
       <path id="DejaVuSansMono-4d" d="M 269 4666 
L 1113 4666 
L 1919 2291 
L 2731 4666 
L 3578 4666 
L 3578 0 
L 2994 0 
L 2994 4122 
L 2163 1663 
L 1684 1663 
L 850 4122 
L 850 0 
L 269 0 
L 269 4666 
z
" transform="scale(0.015625)"/>
       <path id="DejaVuSansMono-65" d="M 3475 1894 
L 3475 1613 
L 984 1613 
L 984 1594 
Q 984 1022 1282 709 
Q 1581 397 2125 397 
Q 2400 397 2700 484 
Q 3000 572 3341 750 
L 3341 178 
Q 3013 44 2708 -23 
Q 2403 -91 2119 -91 
Q 1303 -91 843 398 
Q 384 888 384 1747 
Q 384 2584 834 3084 
Q 1284 3584 2034 3584 
Q 2703 3584 3089 3131 
Q 3475 2678 3475 1894 
z
M 2900 2063 
Q 2888 2569 2661 2833 
Q 2434 3097 2009 3097 
Q 1594 3097 1325 2822 
Q 1056 2547 1006 2059 
L 2900 2063 
z
" transform="scale(0.015625)"/>
       <path id="DejaVuSansMono-6d" d="M 2113 3144 
Q 2219 3369 2383 3476 
Q 2547 3584 2778 3584 
Q 3200 3584 3373 3257 
Q 3547 2931 3547 2028 
L 3547 0 
L 3022 0 
L 3022 2003 
Q 3022 2744 2939 2923 
Q 2856 3103 2638 3103 
Q 2388 3103 2295 2911 
Q 2203 2719 2203 2003 
L 2203 0 
L 1678 0 
L 1678 2003 
Q 1678 2753 1589 2928 
Q 1500 3103 1269 3103 
Q 1041 3103 952 2911 
Q 863 2719 863 2003 
L 863 0 
L 341 0 
L 341 3500 
L 863 3500 
L 863 3200 
Q 966 3388 1120 3486 
Q 1275 3584 1472 3584 
Q 1709 3584 1867 3475 
Q 2025 3366 2113 3144 
z
" transform="scale(0.015625)"/>
       <path id="DejaVuSansMono-72" d="M 3609 2778 
Q 3425 2922 3234 2987 
Q 3044 3053 2816 3053 
Q 2278 3053 1993 2715 
Q 1709 2378 1709 1741 
L 1709 0 
L 1131 0 
L 1131 3500 
L 1709 3500 
L 1709 2816 
Q 1853 3188 2151 3386 
Q 2450 3584 2859 3584 
Q 3072 3584 3256 3531 
Q 3441 3478 3609 3366 
L 3609 2778 
z
" transform="scale(0.015625)"/>
       <path id="DejaVuSansMono-79" d="M 2681 1125 
Q 2538 759 2316 163 
Q 2006 -663 1900 -844 
Q 1756 -1088 1540 -1209 
Q 1325 -1331 1038 -1331 
L 575 -1331 
L 575 -850 
L 916 -850 
Q 1169 -850 1312 -703 
Q 1456 -556 1678 56 
L 325 3500 
L 934 3500 
L 1972 763 
L 2994 3500 
L 3603 3500 
L 2681 1125 
z
" transform="scale(0.015625)"/>
      </defs>
      <use xlink:href="#DejaVuSansMono-41"/>
      <use xlink:href="#DejaVuSansMono-63" transform="translate(60.205078 0)"/>
      <use xlink:href="#DejaVuSansMono-74" transform="translate(120.410156 0)"/>
      <use xlink:href="#DejaVuSansMono-69" transform="translate(180.615234 0)"/>
      <use xlink:href="#DejaVuSansMono-76" transform="translate(240.820312 0)"/>
      <use xlink:href="#DejaVuSansMono-61" transform="translate(301.025391 0)"/>
      <use xlink:href="#DejaVuSansMono-74" transform="translate(361.230469 0)"/>
      <use xlink:href="#DejaVuSansMono-69" transform="translate(421.435547 0)"/>
      <use xlink:href="#DejaVuSansMono-6f" transform="translate(481.640625 0)"/>
      <use xlink:href="#DejaVuSansMono-6e" transform="translate(541.845703 0)"/>
      <use xlink:href="#DejaVuSansMono-20" transform="translate(602.050781 0)"/>
      <use xlink:href="#DejaVuSansMono-4d" transform="translate(662.255859 0)"/>
      <use xlink:href="#DejaVuSansMono-65" transform="translate(722.460938 0)"/>
      <use xlink:href="#DejaVuSansMono-6d" transform="translate(782.666016 0)"/>
      <use xlink:href="#DejaVuSansMono-6f" transform="translate(842.871094 0)"/>
      <use xlink:href="#DejaVuSansMono-72" transform="translate(903.076172 0)"/>
      <use xlink:href="#DejaVuSansMono-79" transform="translate(963.28125 0)"/>
     </g>
    </g>
    <g id="patch_29">
     <path d="M 57.774688 41.721094 
L 79.774687 41.721094 
L 79.774687 34.021094 
L 57.774688 34.021094 
z
" style="fill: #33cc66; stroke: #000000; stroke-linejoin: miter"/>
    </g>
    <g id="text_27">
     <!-- Model Weights -->
     <g transform="translate(88.574688 41.721094) scale(0.11 -0.11)">
      <defs>
       <path id="DejaVuSansMono-64" d="M 2681 3053 
L 2681 4863 
L 3256 4863 
L 3256 0 
L 2681 0 
L 2681 441 
Q 2538 181 2298 45 
Q 2059 -91 1747 -91 
Q 1113 -91 748 401 
Q 384 894 384 1759 
Q 384 2613 750 3098 
Q 1116 3584 1747 3584 
Q 2063 3584 2303 3448 
Q 2544 3313 2681 3053 
z
M 991 1747 
Q 991 1078 1203 737 
Q 1416 397 1831 397 
Q 2247 397 2464 740 
Q 2681 1084 2681 1747 
Q 2681 2413 2464 2755 
Q 2247 3097 1831 3097 
Q 1416 3097 1203 2756 
Q 991 2416 991 1747 
z
" transform="scale(0.015625)"/>
       <path id="DejaVuSansMono-6c" d="M 1997 1269 
Q 1997 881 2139 684 
Q 2281 488 2559 488 
L 3231 488 
L 3231 0 
L 2503 0 
Q 1988 0 1705 331 
Q 1422 663 1422 1269 
L 1422 4447 
L 500 4447 
L 500 4897 
L 1997 4897 
L 1997 1269 
z
" transform="scale(0.015625)"/>
       <path id="DejaVuSansMono-57" d="M 0 4666 
L 616 4666 
L 1063 878 
L 1594 3384 
L 2253 3384 
L 2791 872 
L 3238 4666 
L 3853 4666 
L 3156 0 
L 2559 0 
L 1925 2772 
L 1294 0 
L 697 0 
L 0 4666 
z
" transform="scale(0.015625)"/>
       <path id="DejaVuSansMono-67" d="M 2681 1778 
Q 2681 2425 2470 2761 
Q 2259 3097 1856 3097 
Q 1434 3097 1212 2761 
Q 991 2425 991 1778 
Q 991 1131 1214 792 
Q 1438 453 1863 453 
Q 2259 453 2470 793 
Q 2681 1134 2681 1778 
z
M 3256 225 
Q 3256 -563 2884 -969 
Q 2513 -1375 1791 -1375 
Q 1553 -1375 1293 -1331 
Q 1034 -1288 775 -1203 
L 775 -634 
Q 1081 -778 1331 -847 
Q 1581 -916 1791 -916 
Q 2256 -916 2468 -662 
Q 2681 -409 2681 141 
L 2681 166 
L 2681 556 
Q 2544 263 2306 119 
Q 2069 -25 1728 -25 
Q 1116 -25 750 465 
Q 384 956 384 1778 
Q 384 2603 750 3093 
Q 1116 3584 1728 3584 
Q 2066 3584 2300 3450 
Q 2534 3316 2681 3034 
L 2681 3488 
L 3256 3488 
L 3256 225 
z
" transform="scale(0.015625)"/>
       <path id="DejaVuSansMono-68" d="M 3284 2169 
L 3284 0 
L 2706 0 
L 2706 2169 
Q 2706 2641 2540 2862 
Q 2375 3084 2022 3084 
Q 1619 3084 1401 2798 
Q 1184 2513 1184 1978 
L 1184 0 
L 609 0 
L 609 4863 
L 1184 4863 
L 1184 2975 
Q 1338 3275 1600 3429 
Q 1863 3584 2222 3584 
Q 2756 3584 3020 3232 
Q 3284 2881 3284 2169 
z
" transform="scale(0.015625)"/>
       <path id="DejaVuSansMono-73" d="M 3041 3378 
L 3041 2816 
Q 2794 2959 2544 3031 
Q 2294 3103 2034 3103 
Q 1644 3103 1451 2976 
Q 1259 2850 1259 2591 
Q 1259 2356 1403 2240 
Q 1547 2125 2119 2016 
L 2350 1972 
Q 2778 1891 2998 1647 
Q 3219 1403 3219 1013 
Q 3219 494 2850 201 
Q 2481 -91 1825 -91 
Q 1566 -91 1281 -36 
Q 997 19 666 128 
L 666 722 
Q 988 556 1281 473 
Q 1575 391 1838 391 
Q 2219 391 2428 545 
Q 2638 700 2638 978 
Q 2638 1378 1872 1531 
L 1847 1538 
L 1631 1581 
Q 1134 1678 906 1908 
Q 678 2138 678 2534 
Q 678 3038 1018 3311 
Q 1359 3584 1991 3584 
Q 2272 3584 2531 3532 
Q 2791 3481 3041 3378 
z
" transform="scale(0.015625)"/>
      </defs>
      <use xlink:href="#DejaVuSansMono-4d"/>
      <use xlink:href="#DejaVuSansMono-6f" transform="translate(60.205078 0)"/>
      <use xlink:href="#DejaVuSansMono-64" transform="translate(120.410156 0)"/>
      <use xlink:href="#DejaVuSansMono-65" transform="translate(180.615234 0)"/>
      <use xlink:href="#DejaVuSansMono-6c" transform="translate(240.820312 0)"/>
      <use xlink:href="#DejaVuSansMono-20" transform="translate(301.025391 0)"/>
      <use xlink:href="#DejaVuSansMono-57" transform="translate(361.230469 0)"/>
      <use xlink:href="#DejaVuSansMono-65" transform="translate(421.435547 0)"/>
      <use xlink:href="#DejaVuSansMono-69" transform="translate(481.640625 0)"/>
      <use xlink:href="#DejaVuSansMono-67" transform="translate(541.845703 0)"/>
      <use xlink:href="#DejaVuSansMono-68" transform="translate(602.050781 0)"/>
      <use xlink:href="#DejaVuSansMono-74" transform="translate(662.255859 0)"/>
      <use xlink:href="#DejaVuSansMono-73" transform="translate(722.460938 0)"/>
     </g>
    </g>
    <g id="patch_30">
     <path d="M 223.154531 25.516719 
L 245.154531 25.516719 
L 245.154531 17.816719 
L 223.154531 17.816719 
z
" style="fill: #ff0066; stroke: #000000; stroke-linejoin: miter"/>
    </g>
    <g id="text_28">
     <!-- Gradients -->
     <g transform="translate(253.954531 25.516719) scale(0.11 -0.11)">
      <defs>
       <path id="DejaVuSansMono-47" d="M 3450 384 
Q 3197 150 2880 29 
Q 2563 -91 2194 -91 
Q 1306 -91 812 545 
Q 319 1181 319 2328 
Q 319 3472 819 4111 
Q 1319 4750 2209 4750 
Q 2503 4750 2772 4667 
Q 3041 4584 3291 4416 
L 3291 3769 
Q 3038 4009 2772 4123 
Q 2506 4238 2209 4238 
Q 1594 4238 1286 3761 
Q 978 3284 978 2328 
Q 978 1356 1276 889 
Q 1575 422 2194 422 
Q 2403 422 2561 470 
Q 2719 519 2847 622 
L 2847 1875 
L 2169 1875 
L 2169 2394 
L 3450 2394 
L 3450 384 
z
" transform="scale(0.015625)"/>
      </defs>
      <use xlink:href="#DejaVuSansMono-47"/>
      <use xlink:href="#DejaVuSansMono-72" transform="translate(60.205078 0)"/>
      <use xlink:href="#DejaVuSansMono-61" transform="translate(120.410156 0)"/>
      <use xlink:href="#DejaVuSansMono-64" transform="translate(180.615234 0)"/>
      <use xlink:href="#DejaVuSansMono-69" transform="translate(240.820312 0)"/>
      <use xlink:href="#DejaVuSansMono-65" transform="translate(301.025391 0)"/>
      <use xlink:href="#DejaVuSansMono-6e" transform="translate(361.230469 0)"/>
      <use xlink:href="#DejaVuSansMono-74" transform="translate(421.435547 0)"/>
      <use xlink:href="#DejaVuSansMono-73" transform="translate(481.640625 0)"/>
     </g>
    </g>
    <g id="patch_31">
     <path d="M 223.154531 41.721094 
L 245.154531 41.721094 
L 245.154531 34.021094 
L 223.154531 34.021094 
z
" style="fill: #ffaa00; stroke: #000000; stroke-linejoin: miter"/>
    </g>
    <g id="text_29">
     <!-- Optimizer States -->
     <g transform="translate(253.954531 41.721094) scale(0.11 -0.11)">
      <defs>
       <path id="DejaVuSansMono-4f" d="M 2828 2328 
Q 2828 3356 2617 3797 
Q 2406 4238 1925 4238 
Q 1447 4238 1236 3797 
Q 1025 3356 1025 2328 
Q 1025 1303 1236 862 
Q 1447 422 1925 422 
Q 2406 422 2617 861 
Q 2828 1300 2828 2328 
z
M 3488 2328 
Q 3488 1109 3102 509 
Q 2716 -91 1925 -91 
Q 1134 -91 750 506 
Q 366 1103 366 2328 
Q 366 3550 752 4150 
Q 1138 4750 1925 4750 
Q 2716 4750 3102 4150 
Q 3488 3550 3488 2328 
z
" transform="scale(0.015625)"/>
       <path id="DejaVuSansMono-70" d="M 1172 441 
L 1172 -1331 
L 594 -1331 
L 594 3500 
L 1172 3500 
L 1172 3053 
Q 1316 3313 1555 3448 
Q 1794 3584 2106 3584 
Q 2741 3584 3102 3093 
Q 3463 2603 3463 1734 
Q 3463 881 3100 395 
Q 2738 -91 2106 -91 
Q 1788 -91 1548 45 
Q 1309 181 1172 441 
z
M 2859 1747 
Q 2859 2416 2648 2756 
Q 2438 3097 2022 3097 
Q 1603 3097 1387 2755 
Q 1172 2413 1172 1747 
Q 1172 1084 1387 740 
Q 1603 397 2022 397 
Q 2438 397 2648 737 
Q 2859 1078 2859 1747 
z
" transform="scale(0.015625)"/>
       <path id="DejaVuSansMono-7a" d="M 709 3506 
L 3250 3506 
L 3250 2981 
L 1241 469 
L 3250 469 
L 3250 0 
L 634 0 
L 634 531 
L 2644 3047 
L 709 3047 
L 709 3506 
z
" transform="scale(0.015625)"/>
       <path id="DejaVuSansMono-53" d="M 3163 4506 
L 3163 3866 
Q 2875 4050 2586 4144 
Q 2297 4238 2003 4238 
Q 1556 4238 1297 4030 
Q 1038 3822 1038 3469 
Q 1038 3159 1208 2996 
Q 1378 2834 1844 2725 
L 2175 2650 
Q 2831 2497 3131 2169 
Q 3431 1841 3431 1275 
Q 3431 609 3018 259 
Q 2606 -91 1819 -91 
Q 1491 -91 1159 -20 
Q 828 50 494 191 
L 494 863 
Q 853 634 1173 528 
Q 1494 422 1819 422 
Q 2297 422 2562 636 
Q 2828 850 2828 1234 
Q 2828 1584 2645 1768 
Q 2463 1953 2009 2053 
L 1672 2131 
Q 1022 2278 728 2575 
Q 434 2872 434 3372 
Q 434 3997 854 4373 
Q 1275 4750 1972 4750 
Q 2241 4750 2537 4689 
Q 2834 4628 3163 4506 
z
" transform="scale(0.015625)"/>
      </defs>
      <use xlink:href="#DejaVuSansMono-4f"/>
      <use xlink:href="#DejaVuSansMono-70" transform="translate(60.205078 0)"/>
      <use xlink:href="#DejaVuSansMono-74" transform="translate(120.410156 0)"/>
      <use xlink:href="#DejaVuSansMono-69" transform="translate(180.615234 0)"/>
      <use xlink:href="#DejaVuSansMono-6d" transform="translate(240.820312 0)"/>
      <use xlink:href="#DejaVuSansMono-69" transform="translate(301.025391 0)"/>
      <use xlink:href="#DejaVuSansMono-7a" transform="translate(361.230469 0)"/>
      <use xlink:href="#DejaVuSansMono-65" transform="translate(421.435547 0)"/>
      <use xlink:href="#DejaVuSansMono-72" transform="translate(481.640625 0)"/>
      <use xlink:href="#DejaVuSansMono-20" transform="translate(541.845703 0)"/>
      <use xlink:href="#DejaVuSansMono-53" transform="translate(602.050781 0)"/>
      <use xlink:href="#DejaVuSansMono-74" transform="translate(662.255859 0)"/>
      <use xlink:href="#DejaVuSansMono-61" transform="translate(722.460938 0)"/>
      <use xlink:href="#DejaVuSansMono-74" transform="translate(782.666016 0)"/>
      <use xlink:href="#DejaVuSansMono-65" transform="translate(842.871094 0)"/>
      <use xlink:href="#DejaVuSansMono-73" transform="translate(903.076172 0)"/>
     </g>
    </g>
   </g>
  </g>
 </g>
 <defs>
  <clipPath id="pd3208c2146">
   <rect x="47.874688" y="7.2" width="654.128103" height="377.44"/>
  </clipPath>
 </defs>
</svg>
