<?xml version="1.0" encoding="utf-8" standalone="no"?>
<!DOCTYPE svg PUBLIC "-//W3C//DTD SVG 1.1//EN"
  "http://www.w3.org/Graphics/SVG/1.1/DTD/svg11.dtd">
<svg xmlns:xlink="http://www.w3.org/1999/xlink" width="712.495pt" height="424.185pt" viewBox="0 0 712.495 424.185" xmlns="http://www.w3.org/2000/svg" version="1.1">
 <metadata>
  <rdf:RDF xmlns:dc="http://purl.org/dc/elements/1.1/" xmlns:cc="http://creativecommons.org/ns#" xmlns:rdf="http://www.w3.org/1999/02/22-rdf-syntax-ns#">
   <cc:Work>
    <dc:type rdf:resource="http://purl.org/dc/dcmitype/StillImage"/>
    <dc:date>2026-02-06T10:25:52.862798</dc:date>
    <dc:format>image/svg+xml</dc:format>
    <dc:creator>
     <cc:Agent>
      <dc:title>Matplotlib v3.10.8, https://matplotlib.org/</dc:title>
     </cc:Agent>
    </dc:creator>
   </cc:Work>
  </rdf:RDF>
 </metadata>
 <defs>
  <style type="text/css">*{stroke-linejoin: round; stroke-linecap: butt}</style>
 </defs>
 <g id="figure_1">
  <g id="patch_1">
   <path d="M -0 424.185 
L 712.495 424.185 
L 712.495 0 
L -0 0 
z
" style="fill: #ffffff"/>
  </g>
  <g id="axes_1">
   <g id="patch_2">
    <path d="M 53.895 384.64 
L 705.295 384.64 
L 705.295 7.2 
L 53.895 7.2 
z
" style="fill: #ffffff"/>
   </g>
   <g id="matplotlib.axis_1">
    <g id="xtick_1">
     <g id="line2d_1">
      <defs>
       <path id="me8944f6316" d="M 0 0 
L 0 3.5 
" style="stroke: #000000; stroke-width: 0.8"/>
      </defs>
      <g>
       <use xlink:href="#me8944f6316" x="83.504091" y="384.64" style="stroke: #000000; stroke-width: 0.8"/>
      </g>
     </g>
     <g id="text_1">
      <!-- 128 -->
      <g transform="translate(74.473622 399.291562) scale(0.1 -0.1)">
       <defs>
        <path id="DejaVuSansMono-31" d="M 844 531 
L 1825 531 
L 1825 4097 
L 769 3859 
L 769 4434 
L 1819 4666 
L 2450 4666 
L 2450 531 
L 3419 531 
L 3419 0 
L 844 0 
L 844 531 
z
" transform="scale(0.015625)"/>
        <path id="DejaVuSansMono-32" d="M 1166 531 
L 3309 531 
L 3309 0 
L 475 0 
L 475 531 
Q 1059 1147 1496 1619 
Q 1934 2091 2100 2284 
Q 2413 2666 2522 2902 
Q 2631 3138 2631 3384 
Q 2631 3775 2401 3997 
Q 2172 4219 1772 4219 
Q 1488 4219 1175 4116 
Q 863 4013 513 3803 
L 513 4441 
Q 834 4594 1145 4672 
Q 1456 4750 1759 4750 
Q 2444 4750 2861 4386 
Q 3278 4022 3278 3431 
Q 3278 3131 3139 2831 
Q 3000 2531 2688 2169 
Q 2513 1966 2180 1606 
Q 1847 1247 1166 531 
z
" transform="scale(0.015625)"/>
        <path id="DejaVuSansMono-38" d="M 1925 2216 
Q 1503 2216 1273 1980 
Q 1044 1744 1044 1313 
Q 1044 881 1276 642 
Q 1509 403 1925 403 
Q 2350 403 2579 639 
Q 2809 875 2809 1313 
Q 2809 1741 2576 1978 
Q 2344 2216 1925 2216 
z
M 1375 2478 
Q 972 2581 745 2862 
Q 519 3144 519 3541 
Q 519 4097 897 4423 
Q 1275 4750 1925 4750 
Q 2578 4750 2956 4423 
Q 3334 4097 3334 3541 
Q 3334 3144 3107 2862 
Q 2881 2581 2478 2478 
Q 2947 2375 3195 2062 
Q 3444 1750 3444 1253 
Q 3444 622 3041 265 
Q 2638 -91 1925 -91 
Q 1213 -91 811 264 
Q 409 619 409 1247 
Q 409 1747 657 2061 
Q 906 2375 1375 2478 
z
M 1147 3481 
Q 1147 3106 1347 2909 
Q 1547 2713 1925 2713 
Q 2306 2713 2506 2909 
Q 2706 3106 2706 3481 
Q 2706 3863 2507 4063 
Q 2309 4263 1925 4263 
Q 1547 4263 1347 4061 
Q 1147 3859 1147 3481 
z
" transform="scale(0.015625)"/>
       </defs>
       <use xlink:href="#DejaVuSansMono-31"/>
       <use xlink:href="#DejaVuSansMono-32" transform="translate(60.205078 0)"/>
       <use xlink:href="#DejaVuSansMono-38" transform="translate(120.410156 0)"/>
      </g>
     </g>
    </g>
    <g id="xtick_2">
     <g id="line2d_2">
      <g>
       <use xlink:href="#me8944f6316" x="201.940455" y="384.64" style="stroke: #000000; stroke-width: 0.8"/>
      </g>
     </g>
     <g id="text_2">
      <!-- 256 -->
      <g transform="translate(192.909986 399.291562) scale(0.1 -0.1)">
       <defs>
        <path id="DejaVuSansMono-35" d="M 647 4666 
L 3009 4666 
L 3009 4134 
L 1222 4134 
L 1222 2988 
Q 1356 3038 1492 3061 
Q 1628 3084 1766 3084 
Q 2491 3084 2916 2656 
Q 3341 2228 3341 1497 
Q 3341 759 2895 334 
Q 2450 -91 1678 -91 
Q 1306 -91 998 -41 
Q 691 9 447 109 
L 447 750 
Q 734 594 1025 517 
Q 1316 441 1619 441 
Q 2141 441 2423 716 
Q 2706 991 2706 1497 
Q 2706 1997 2414 2275 
Q 2122 2553 1600 2553 
Q 1347 2553 1106 2495 
Q 866 2438 647 2322 
L 647 4666 
z
" transform="scale(0.015625)"/>
        <path id="DejaVuSansMono-36" d="M 3097 4563 
L 3097 3981 
Q 2900 4097 2678 4158 
Q 2456 4219 2216 4219 
Q 1616 4219 1306 3767 
Q 997 3316 997 2438 
Q 1147 2750 1412 2917 
Q 1678 3084 2022 3084 
Q 2697 3084 3067 2670 
Q 3438 2256 3438 1497 
Q 3438 741 3056 325 
Q 2675 -91 1984 -91 
Q 1172 -91 794 492 
Q 416 1075 416 2328 
Q 416 3509 870 4129 
Q 1325 4750 2188 4750 
Q 2419 4750 2650 4701 
Q 2881 4653 3097 4563 
z
M 1972 2591 
Q 1569 2591 1337 2300 
Q 1106 2009 1106 1497 
Q 1106 984 1337 693 
Q 1569 403 1972 403 
Q 2391 403 2603 679 
Q 2816 956 2816 1497 
Q 2816 2041 2603 2316 
Q 2391 2591 1972 2591 
z
" transform="scale(0.015625)"/>
       </defs>
       <use xlink:href="#DejaVuSansMono-32"/>
       <use xlink:href="#DejaVuSansMono-35" transform="translate(60.205078 0)"/>
       <use xlink:href="#DejaVuSansMono-36" transform="translate(120.410156 0)"/>
      </g>
     </g>
    </g>
    <g id="xtick_3">
     <g id="line2d_3">
      <g>
       <use xlink:href="#me8944f6316" x="320.376818" y="384.64" style="stroke: #000000; stroke-width: 0.8"/>
      </g>
     </g>
     <g id="text_3">
      <!-- 384 -->
      <g transform="translate(311.346349 399.291562) scale(0.1 -0.1)">
       <defs>
        <path id="DejaVuSansMono-33" d="M 2425 2497 
Q 2884 2375 3128 2064 
Q 3372 1753 3372 1288 
Q 3372 644 2939 276 
Q 2506 -91 1741 -91 
Q 1419 -91 1084 -31 
Q 750 28 428 141 
L 428 769 
Q 747 603 1056 522 
Q 1366 441 1672 441 
Q 2191 441 2469 675 
Q 2747 909 2747 1350 
Q 2747 1756 2469 1995 
Q 2191 2234 1716 2234 
L 1234 2234 
L 1234 2753 
L 1716 2753 
Q 2150 2753 2394 2943 
Q 2638 3134 2638 3475 
Q 2638 3834 2411 4026 
Q 2184 4219 1766 4219 
Q 1488 4219 1191 4156 
Q 894 4094 569 3969 
L 569 4550 
Q 947 4650 1242 4700 
Q 1538 4750 1766 4750 
Q 2447 4750 2855 4408 
Q 3263 4066 3263 3500 
Q 3263 3116 3048 2859 
Q 2834 2603 2425 2497 
z
" transform="scale(0.015625)"/>
        <path id="DejaVuSansMono-34" d="M 2297 4091 
L 825 1625 
L 2297 1625 
L 2297 4091 
z
M 2194 4666 
L 2925 4666 
L 2925 1625 
L 3547 1625 
L 3547 1113 
L 2925 1113 
L 2925 0 
L 2297 0 
L 2297 1113 
L 319 1113 
L 319 1709 
L 2194 4666 
z
" transform="scale(0.015625)"/>
       </defs>
       <use xlink:href="#DejaVuSansMono-33"/>
       <use xlink:href="#DejaVuSansMono-38" transform="translate(60.205078 0)"/>
       <use xlink:href="#DejaVuSansMono-34" transform="translate(120.410156 0)"/>
      </g>
     </g>
    </g>
    <g id="xtick_4">
     <g id="line2d_4">
      <g>
       <use xlink:href="#me8944f6316" x="438.813182" y="384.64" style="stroke: #000000; stroke-width: 0.8"/>
      </g>
     </g>
     <g id="text_4">
      <!-- 512 -->
      <g transform="translate(429.782713 399.291562) scale(0.1 -0.1)">
       <use xlink:href="#DejaVuSansMono-35"/>
       <use xlink:href="#DejaVuSansMono-31" transform="translate(60.205078 0)"/>
       <use xlink:href="#DejaVuSansMono-32" transform="translate(120.410156 0)"/>
      </g>
     </g>
    </g>
    <g id="xtick_5">
     <g id="line2d_5">
      <g>
       <use xlink:href="#me8944f6316" x="557.249545" y="384.64" style="stroke: #000000; stroke-width: 0.8"/>
      </g>
     </g>
     <g id="text_5">
      <!-- 640 -->
      <g transform="translate(548.219077 399.291562) scale(0.1 -0.1)">
       <defs>
        <path id="DejaVuSansMono-30" d="M 1509 2344 
Q 1509 2516 1629 2641 
Q 1750 2766 1919 2766 
Q 2094 2766 2219 2641 
Q 2344 2516 2344 2344 
Q 2344 2169 2220 2047 
Q 2097 1925 1919 1925 
Q 1744 1925 1626 2044 
Q 1509 2163 1509 2344 
z
M 1925 4250 
Q 1484 4250 1267 3775 
Q 1050 3300 1050 2328 
Q 1050 1359 1267 884 
Q 1484 409 1925 409 
Q 2369 409 2586 884 
Q 2803 1359 2803 2328 
Q 2803 3300 2586 3775 
Q 2369 4250 1925 4250 
z
M 1925 4750 
Q 2672 4750 3055 4137 
Q 3438 3525 3438 2328 
Q 3438 1134 3055 521 
Q 2672 -91 1925 -91 
Q 1178 -91 797 521 
Q 416 1134 416 2328 
Q 416 3525 797 4137 
Q 1178 4750 1925 4750 
z
" transform="scale(0.015625)"/>
       </defs>
       <use xlink:href="#DejaVuSansMono-36"/>
       <use xlink:href="#DejaVuSansMono-34" transform="translate(60.205078 0)"/>
       <use xlink:href="#DejaVuSansMono-30" transform="translate(120.410156 0)"/>
      </g>
     </g>
    </g>
    <g id="xtick_6">
     <g id="line2d_6">
      <g>
       <use xlink:href="#me8944f6316" x="675.685909" y="384.64" style="stroke: #000000; stroke-width: 0.8"/>
      </g>
     </g>
     <g id="text_6">
      <!-- 768 -->
      <g transform="translate(666.65544 399.291562) scale(0.1 -0.1)">
       <defs>
        <path id="DejaVuSansMono-37" d="M 434 4666 
L 3372 4666 
L 3372 4397 
L 1703 0 
L 1044 0 
L 2669 4134 
L 434 4134 
L 434 4666 
z
" transform="scale(0.015625)"/>
       </defs>
       <use xlink:href="#DejaVuSansMono-37"/>
       <use xlink:href="#DejaVuSansMono-36" transform="translate(60.205078 0)"/>
       <use xlink:href="#DejaVuSansMono-38" transform="translate(120.410156 0)"/>
      </g>
     </g>
    </g>
    <g id="text_7">
     <!-- Sequence Length -->
     <g transform="translate(325.412188 414.489375) scale(0.12 -0.12)">
      <defs>
       <path id="DejaVuSansMono-Bold-53" d="M 1594 2047 
Q 897 2313 650 2605 
Q 403 2897 403 3391 
Q 403 4025 809 4387 
Q 1216 4750 1925 4750 
Q 2247 4750 2569 4676 
Q 2891 4603 3206 4459 
L 3206 3559 
Q 2909 3769 2603 3878 
Q 2297 3988 1997 3988 
Q 1663 3988 1484 3853 
Q 1306 3719 1306 3469 
Q 1306 3275 1436 3148 
Q 1566 3022 1978 2869 
L 2375 2719 
Q 2938 2513 3203 2172 
Q 3469 1831 3469 1313 
Q 3469 606 3051 257 
Q 2634 -91 1791 -91 
Q 1444 -91 1095 -8 
Q 747 75 422 238 
L 422 1191 
Q 791 928 1136 800 
Q 1481 672 1819 672 
Q 2159 672 2346 826 
Q 2534 981 2534 1259 
Q 2534 1469 2409 1626 
Q 2284 1784 2047 1875 
L 1594 2047 
z
" transform="scale(0.015625)"/>
       <path id="DejaVuSansMono-Bold-65" d="M 3444 172 
Q 3125 41 2794 -25 
Q 2463 -91 2094 -91 
Q 1216 -91 752 379 
Q 288 850 288 1734 
Q 288 2591 734 3087 
Q 1181 3584 1953 3584 
Q 2731 3584 3161 3123 
Q 3591 2663 3591 1825 
L 3591 1453 
L 1219 1453 
Q 1222 1041 1462 837 
Q 1703 634 2181 634 
Q 2497 634 2803 725 
Q 3109 816 3444 1013 
L 3444 172 
z
M 2669 2141 
Q 2663 2503 2483 2689 
Q 2303 2875 1953 2875 
Q 1638 2875 1450 2683 
Q 1263 2491 1228 2138 
L 2669 2141 
z
" transform="scale(0.015625)"/>
       <path id="DejaVuSansMono-Bold-71" d="M 1197 1753 
Q 1197 1247 1365 959 
Q 1534 672 1831 672 
Q 2128 672 2300 959 
Q 2472 1247 2472 1753 
Q 2472 2259 2300 2546 
Q 2128 2834 1831 2834 
Q 1534 2834 1365 2546 
Q 1197 2259 1197 1753 
z
M 2472 494 
Q 2303 200 2079 54 
Q 1856 -91 1575 -91 
Q 953 -91 617 384 
Q 281 859 281 1747 
Q 281 2622 612 3103 
Q 944 3584 1544 3584 
Q 1859 3584 2092 3431 
Q 2325 3278 2472 2975 
L 2472 3500 
L 3384 3500 
L 3384 -1331 
L 2472 -1331 
L 2472 494 
z
" transform="scale(0.015625)"/>
       <path id="DejaVuSansMono-Bold-75" d="M 500 1222 
L 500 3500 
L 1416 3500 
L 1416 1363 
Q 1416 984 1522 821 
Q 1628 659 1875 659 
Q 2122 659 2261 878 
Q 2400 1097 2400 1491 
L 2400 3500 
L 3316 3500 
L 3316 0 
L 2400 0 
L 2400 519 
Q 2303 228 2070 68 
Q 1838 -91 1509 -91 
Q 1009 -91 754 240 
Q 500 572 500 1222 
z
" transform="scale(0.015625)"/>
       <path id="DejaVuSansMono-Bold-6e" d="M 3347 2272 
L 3347 0 
L 2438 0 
L 2438 2131 
Q 2438 2513 2330 2677 
Q 2222 2841 1978 2841 
Q 1731 2841 1589 2619 
Q 1447 2397 1447 2003 
L 1447 0 
L 538 0 
L 538 3500 
L 1447 3500 
L 1447 2975 
Q 1544 3266 1778 3425 
Q 2013 3584 2344 3584 
Q 2841 3584 3094 3254 
Q 3347 2925 3347 2272 
z
" transform="scale(0.015625)"/>
       <path id="DejaVuSansMono-Bold-63" d="M 3316 178 
Q 3084 44 2818 -23 
Q 2553 -91 2247 -91 
Q 1438 -91 981 396 
Q 525 884 525 1747 
Q 525 2613 984 3102 
Q 1444 3591 2253 3591 
Q 2534 3591 2795 3525 
Q 3056 3459 3316 3322 
L 3316 2484 
Q 3116 2656 2877 2748 
Q 2638 2841 2381 2841 
Q 1934 2841 1693 2556 
Q 1453 2272 1453 1747 
Q 1453 1222 1693 940 
Q 1934 659 2381 659 
Q 2647 659 2878 748 
Q 3109 838 3316 1019 
L 3316 178 
z
" transform="scale(0.015625)"/>
       <path id="DejaVuSansMono-Bold-20" transform="scale(0.015625)"/>
       <path id="DejaVuSansMono-Bold-4c" d="M 703 0 
L 703 4666 
L 1625 4666 
L 1625 813 
L 3597 813 
L 3597 0 
L 703 0 
z
" transform="scale(0.015625)"/>
       <path id="DejaVuSansMono-Bold-67" d="M 2509 1806 
Q 2509 2275 2331 2558 
Q 2153 2841 1863 2841 
Q 1575 2841 1398 2559 
Q 1222 2278 1222 1806 
Q 1222 1331 1398 1050 
Q 1575 769 1863 769 
Q 2153 769 2331 1051 
Q 2509 1334 2509 1806 
z
M 3425 263 
Q 3425 -578 3045 -951 
Q 2666 -1325 1813 -1325 
Q 1525 -1325 1244 -1283 
Q 963 -1241 672 -1153 
L 672 -313 
Q 931 -456 1200 -525 
Q 1469 -594 1753 -594 
Q 2141 -594 2325 -411 
Q 2509 -228 2509 159 
L 2509 538 
Q 2375 288 2153 166 
Q 1931 44 1613 44 
Q 1013 44 659 512 
Q 306 981 306 1784 
Q 306 2616 659 3103 
Q 1013 3591 1606 3591 
Q 1906 3591 2140 3450 
Q 2375 3309 2509 3053 
L 2509 3500 
L 3425 3500 
L 3425 263 
z
" transform="scale(0.015625)"/>
       <path id="DejaVuSansMono-Bold-74" d="M 2156 4494 
L 2156 3500 
L 3353 3500 
L 3353 2797 
L 2156 2797 
L 2156 1141 
Q 2156 906 2270 804 
Q 2384 703 2650 703 
L 3353 703 
L 3353 0 
L 2584 0 
Q 1797 0 1519 251 
Q 1241 503 1241 1184 
L 1241 2797 
L 347 2797 
L 347 3500 
L 1241 3500 
L 1241 4494 
L 2156 4494 
z
" transform="scale(0.015625)"/>
       <path id="DejaVuSansMono-Bold-68" d="M 3347 2272 
L 3347 0 
L 2438 0 
L 2438 2131 
Q 2438 2509 2330 2671 
Q 2222 2834 1978 2834 
Q 1728 2834 1587 2614 
Q 1447 2394 1447 2003 
L 1447 0 
L 538 0 
L 538 4863 
L 1447 4863 
L 1447 2975 
Q 1544 3266 1778 3425 
Q 2013 3584 2344 3584 
Q 2841 3584 3094 3254 
Q 3347 2925 3347 2272 
z
" transform="scale(0.015625)"/>
      </defs>
      <use xlink:href="#DejaVuSansMono-Bold-53"/>
      <use xlink:href="#DejaVuSansMono-Bold-65" transform="translate(60.205078 0)"/>
      <use xlink:href="#DejaVuSansMono-Bold-71" transform="translate(120.410156 0)"/>
      <use xlink:href="#DejaVuSansMono-Bold-75" transform="translate(180.615234 0)"/>
      <use xlink:href="#DejaVuSansMono-Bold-65" transform="translate(240.820312 0)"/>
      <use xlink:href="#DejaVuSansMono-Bold-6e" transform="translate(301.025391 0)"/>
      <use xlink:href="#DejaVuSansMono-Bold-63" transform="translate(361.230469 0)"/>
      <use xlink:href="#DejaVuSansMono-Bold-65" transform="translate(421.435547 0)"/>
      <use xlink:href="#DejaVuSansMono-Bold-20" transform="translate(481.640625 0)"/>
      <use xlink:href="#DejaVuSansMono-Bold-4c" transform="translate(541.845703 0)"/>
      <use xlink:href="#DejaVuSansMono-Bold-65" transform="translate(602.050781 0)"/>
      <use xlink:href="#DejaVuSansMono-Bold-6e" transform="translate(662.255859 0)"/>
      <use xlink:href="#DejaVuSansMono-Bold-67" transform="translate(722.460938 0)"/>
      <use xlink:href="#DejaVuSansMono-Bold-74" transform="translate(782.666016 0)"/>
      <use xlink:href="#DejaVuSansMono-Bold-68" transform="translate(842.871094 0)"/>
     </g>
    </g>
   </g>
   <g id="matplotlib.axis_2">
    <g id="ytick_1">
     <g id="line2d_7">
      <path d="M 53.895 384.64 
L 705.295 384.64 
" clip-path="url(#p74a1c602bb)" style="fill: none; stroke: #b0b0b0; stroke-opacity: 0.3; stroke-width: 0.8; stroke-linecap: square"/>
     </g>
     <g id="line2d_8">
      <defs>
       <path id="mf5b8459e51" d="M 0 0 
L -3.5 0 
" style="stroke: #000000; stroke-width: 0.8"/>
      </defs>
      <g>
       <use xlink:href="#mf5b8459e51" x="53.895" y="384.64" style="stroke: #000000; stroke-width: 0.8"/>
      </g>
     </g>
     <g id="text_8">
      <!-- 0.0 -->
      <g transform="translate(28.834063 388.465781) scale(0.1 -0.1)">
       <defs>
        <path id="DejaVuSansMono-2e" d="M 1528 953 
L 2316 953 
L 2316 0 
L 1528 0 
L 1528 953 
z
" transform="scale(0.015625)"/>
       </defs>
       <use xlink:href="#DejaVuSansMono-30"/>
       <use xlink:href="#DejaVuSansMono-2e" transform="translate(60.205078 0)"/>
       <use xlink:href="#DejaVuSansMono-30" transform="translate(120.410156 0)"/>
      </g>
     </g>
    </g>
    <g id="ytick_2">
     <g id="line2d_9">
      <path d="M 53.895 339.706667 
L 705.295 339.706667 
" clip-path="url(#p74a1c602bb)" style="fill: none; stroke: #b0b0b0; stroke-opacity: 0.3; stroke-width: 0.8; stroke-linecap: square"/>
     </g>
     <g id="line2d_10">
      <g>
       <use xlink:href="#mf5b8459e51" x="53.895" y="339.706667" style="stroke: #000000; stroke-width: 0.8"/>
      </g>
     </g>
     <g id="text_9">
      <!-- 2.5 -->
      <g transform="translate(28.834063 343.532448) scale(0.1 -0.1)">
       <use xlink:href="#DejaVuSansMono-32"/>
       <use xlink:href="#DejaVuSansMono-2e" transform="translate(60.205078 0)"/>
       <use xlink:href="#DejaVuSansMono-35" transform="translate(120.410156 0)"/>
      </g>
     </g>
    </g>
    <g id="ytick_3">
     <g id="line2d_11">
      <path d="M 53.895 294.773333 
L 705.295 294.773333 
" clip-path="url(#p74a1c602bb)" style="fill: none; stroke: #b0b0b0; stroke-opacity: 0.3; stroke-width: 0.8; stroke-linecap: square"/>
     </g>
     <g id="line2d_12">
      <g>
       <use xlink:href="#mf5b8459e51" x="53.895" y="294.773333" style="stroke: #000000; stroke-width: 0.8"/>
      </g>
     </g>
     <g id="text_10">
      <!-- 5.0 -->
      <g transform="translate(28.834063 298.599115) scale(0.1 -0.1)">
       <use xlink:href="#DejaVuSansMono-35"/>
       <use xlink:href="#DejaVuSansMono-2e" transform="translate(60.205078 0)"/>
       <use xlink:href="#DejaVuSansMono-30" transform="translate(120.410156 0)"/>
      </g>
     </g>
    </g>
    <g id="ytick_4">
     <g id="line2d_13">
      <path d="M 53.895 249.84 
L 705.295 249.84 
" clip-path="url(#p74a1c602bb)" style="fill: none; stroke: #b0b0b0; stroke-opacity: 0.3; stroke-width: 0.8; stroke-linecap: square"/>
     </g>
     <g id="line2d_14">
      <g>
       <use xlink:href="#mf5b8459e51" x="53.895" y="249.84" style="stroke: #000000; stroke-width: 0.8"/>
      </g>
     </g>
     <g id="text_11">
      <!-- 7.5 -->
      <g transform="translate(28.834063 253.665781) scale(0.1 -0.1)">
       <use xlink:href="#DejaVuSansMono-37"/>
       <use xlink:href="#DejaVuSansMono-2e" transform="translate(60.205078 0)"/>
       <use xlink:href="#DejaVuSansMono-35" transform="translate(120.410156 0)"/>
      </g>
     </g>
    </g>
    <g id="ytick_5">
     <g id="line2d_15">
      <path d="M 53.895 204.906667 
L 705.295 204.906667 
" clip-path="url(#p74a1c602bb)" style="fill: none; stroke: #b0b0b0; stroke-opacity: 0.3; stroke-width: 0.8; stroke-linecap: square"/>
     </g>
     <g id="line2d_16">
      <g>
       <use xlink:href="#mf5b8459e51" x="53.895" y="204.906667" style="stroke: #000000; stroke-width: 0.8"/>
      </g>
     </g>
     <g id="text_12">
      <!-- 10.0 -->
      <g transform="translate(22.81375 208.732448) scale(0.1 -0.1)">
       <use xlink:href="#DejaVuSansMono-31"/>
       <use xlink:href="#DejaVuSansMono-30" transform="translate(60.205078 0)"/>
       <use xlink:href="#DejaVuSansMono-2e" transform="translate(120.410156 0)"/>
       <use xlink:href="#DejaVuSansMono-30" transform="translate(180.615234 0)"/>
      </g>
     </g>
    </g>
    <g id="ytick_6">
     <g id="line2d_17">
      <path d="M 53.895 159.973333 
L 705.295 159.973333 
" clip-path="url(#p74a1c602bb)" style="fill: none; stroke: #b0b0b0; stroke-opacity: 0.3; stroke-width: 0.8; stroke-linecap: square"/>
     </g>
     <g id="line2d_18">
      <g>
       <use xlink:href="#mf5b8459e51" x="53.895" y="159.973333" style="stroke: #000000; stroke-width: 0.8"/>
      </g>
     </g>
     <g id="text_13">
      <!-- 12.5 -->
      <g transform="translate(22.81375 163.799115) scale(0.1 -0.1)">
       <use xlink:href="#DejaVuSansMono-31"/>
       <use xlink:href="#DejaVuSansMono-32" transform="translate(60.205078 0)"/>
       <use xlink:href="#DejaVuSansMono-2e" transform="translate(120.410156 0)"/>
       <use xlink:href="#DejaVuSansMono-35" transform="translate(180.615234 0)"/>
      </g>
     </g>
    </g>
    <g id="ytick_7">
     <g id="line2d_19">
      <path d="M 53.895 115.04 
L 705.295 115.04 
" clip-path="url(#p74a1c602bb)" style="fill: none; stroke: #b0b0b0; stroke-opacity: 0.3; stroke-width: 0.8; stroke-linecap: square"/>
     </g>
     <g id="line2d_20">
      <g>
       <use xlink:href="#mf5b8459e51" x="53.895" y="115.04" style="stroke: #000000; stroke-width: 0.8"/>
      </g>
     </g>
     <g id="text_14">
      <!-- 15.0 -->
      <g transform="translate(22.81375 118.865781) scale(0.1 -0.1)">
       <use xlink:href="#DejaVuSansMono-31"/>
       <use xlink:href="#DejaVuSansMono-35" transform="translate(60.205078 0)"/>
       <use xlink:href="#DejaVuSansMono-2e" transform="translate(120.410156 0)"/>
       <use xlink:href="#DejaVuSansMono-30" transform="translate(180.615234 0)"/>
      </g>
     </g>
    </g>
    <g id="ytick_8">
     <g id="line2d_21">
      <path d="M 53.895 70.106667 
L 705.295 70.106667 
" clip-path="url(#p74a1c602bb)" style="fill: none; stroke: #b0b0b0; stroke-opacity: 0.3; stroke-width: 0.8; stroke-linecap: square"/>
     </g>
     <g id="line2d_22">
      <g>
       <use xlink:href="#mf5b8459e51" x="53.895" y="70.106667" style="stroke: #000000; stroke-width: 0.8"/>
      </g>
     </g>
     <g id="text_15">
      <!-- 17.5 -->
      <g transform="translate(22.81375 73.932448) scale(0.1 -0.1)">
       <use xlink:href="#DejaVuSansMono-31"/>
       <use xlink:href="#DejaVuSansMono-37" transform="translate(60.205078 0)"/>
       <use xlink:href="#DejaVuSansMono-2e" transform="translate(120.410156 0)"/>
       <use xlink:href="#DejaVuSansMono-35" transform="translate(180.615234 0)"/>
      </g>
     </g>
    </g>
    <g id="ytick_9">
     <g id="line2d_23">
      <path d="M 53.895 25.173333 
L 705.295 25.173333 
" clip-path="url(#p74a1c602bb)" style="fill: none; stroke: #b0b0b0; stroke-opacity: 0.3; stroke-width: 0.8; stroke-linecap: square"/>
     </g>
     <g id="line2d_24">
      <g>
       <use xlink:href="#mf5b8459e51" x="53.895" y="25.173333" style="stroke: #000000; stroke-width: 0.8"/>
      </g>
     </g>
     <g id="text_16">
      <!-- 20.0 -->
      <g transform="translate(22.81375 28.999115) scale(0.1 -0.1)">
       <use xlink:href="#DejaVuSansMono-32"/>
       <use xlink:href="#DejaVuSansMono-30" transform="translate(60.205078 0)"/>
       <use xlink:href="#DejaVuSansMono-2e" transform="translate(120.410156 0)"/>
       <use xlink:href="#DejaVuSansMono-30" transform="translate(180.615234 0)"/>
      </g>
     </g>
    </g>
    <g id="text_17">
     <!-- Execution Time (s) -->
     <g transform="translate(16.318125 260.939375) rotate(-90) scale(0.12 -0.12)">
      <defs>
       <path id="DejaVuSansMono-Bold-45" d="M 3431 0 
L 525 0 
L 525 4666 
L 3431 4666 
L 3431 3853 
L 1447 3853 
L 1447 2847 
L 3244 2847 
L 3244 2034 
L 1447 2034 
L 1447 813 
L 3431 813 
L 3431 0 
z
" transform="scale(0.015625)"/>
       <path id="DejaVuSansMono-Bold-78" d="M 3578 3500 
L 2400 1825 
L 3681 0 
L 2613 0 
L 1925 1178 
L 1241 0 
L 172 0 
L 1466 1825 
L 275 3500 
L 1344 3500 
L 1925 2456 
L 2509 3500 
L 3578 3500 
z
" transform="scale(0.015625)"/>
       <path id="DejaVuSansMono-Bold-69" d="M 691 3500 
L 2503 3500 
L 2503 703 
L 3641 703 
L 3641 0 
L 447 0 
L 447 703 
L 1588 703 
L 1588 2797 
L 691 2797 
L 691 3500 
z
M 1588 5203 
L 2503 5203 
L 2503 4134 
L 1588 4134 
L 1588 5203 
z
" transform="scale(0.015625)"/>
       <path id="DejaVuSansMono-Bold-6f" d="M 1925 2841 
Q 1597 2841 1409 2552 
Q 1222 2263 1222 1747 
Q 1222 1231 1409 942 
Q 1597 653 1925 653 
Q 2256 653 2443 942 
Q 2631 1231 2631 1747 
Q 2631 2263 2443 2552 
Q 2256 2841 1925 2841 
z
M 306 1747 
Q 306 2594 745 3089 
Q 1184 3584 1925 3584 
Q 2669 3584 3108 3089 
Q 3547 2594 3547 1747 
Q 3547 900 3108 404 
Q 2669 -91 1925 -91 
Q 1184 -91 745 404 
Q 306 900 306 1747 
z
" transform="scale(0.015625)"/>
       <path id="DejaVuSansMono-Bold-54" d="M 2388 0 
L 1466 0 
L 1466 3859 
L 281 3859 
L 281 4666 
L 3572 4666 
L 3572 3859 
L 2388 3859 
L 2388 0 
z
" transform="scale(0.015625)"/>
       <path id="DejaVuSansMono-Bold-6d" d="M 2156 3150 
Q 2259 3372 2418 3478 
Q 2578 3584 2809 3584 
Q 3263 3584 3436 3271 
Q 3609 2959 3609 1972 
L 3609 0 
L 2859 0 
L 2859 2247 
Q 2859 2638 2800 2769 
Q 2741 2900 2584 2900 
Q 2428 2900 2365 2765 
Q 2303 2631 2303 2247 
L 2303 0 
L 1563 0 
L 1563 2247 
Q 1563 2631 1500 2765 
Q 1438 2900 1281 2900 
Q 1125 2900 1065 2769 
Q 1006 2638 1006 2247 
L 1006 0 
L 256 0 
L 256 3500 
L 922 3500 
L 922 3138 
Q 1000 3344 1172 3464 
Q 1344 3584 1556 3584 
Q 1769 3584 1944 3457 
Q 2119 3331 2156 3150 
z
" transform="scale(0.015625)"/>
       <path id="DejaVuSansMono-Bold-28" d="M 2888 4856 
Q 2475 4109 2275 3409 
Q 2075 2709 2075 2009 
Q 2075 1316 2275 611 
Q 2475 -94 2888 -844 
L 2175 -844 
Q 1678 -122 1437 579 
Q 1197 1281 1197 2009 
Q 1197 2734 1439 3439 
Q 1681 4144 2175 4856 
L 2888 4856 
z
" transform="scale(0.015625)"/>
       <path id="DejaVuSansMono-Bold-73" d="M 3097 3391 
L 3097 2591 
Q 2844 2753 2570 2836 
Q 2297 2919 2022 2919 
Q 1716 2919 1559 2830 
Q 1403 2741 1403 2566 
Q 1403 2316 2072 2159 
L 2106 2150 
L 2369 2088 
Q 2869 1969 3101 1705 
Q 3334 1441 3334 991 
Q 3334 450 2979 179 
Q 2625 -91 1913 -91 
Q 1597 -91 1265 -36 
Q 934 19 594 128 
L 594 928 
Q 897 756 1211 665 
Q 1525 575 1819 575 
Q 2141 575 2306 669 
Q 2472 763 2472 941 
Q 2472 1116 2355 1209 
Q 2238 1303 1797 1409 
L 1544 1466 
Q 1019 1584 778 1837 
Q 538 2091 538 2516 
Q 538 3022 903 3303 
Q 1269 3584 1931 3584 
Q 2228 3584 2523 3536 
Q 2819 3488 3097 3391 
z
" transform="scale(0.015625)"/>
       <path id="DejaVuSansMono-Bold-29" d="M 966 4856 
L 1678 4856 
Q 2172 4144 2414 3439 
Q 2656 2734 2656 2009 
Q 2656 1281 2415 579 
Q 2175 -122 1678 -844 
L 966 -844 
Q 1378 -94 1578 611 
Q 1778 1316 1778 2009 
Q 1778 2709 1578 3409 
Q 1378 4109 966 4856 
z
" transform="scale(0.015625)"/>
      </defs>
      <use xlink:href="#DejaVuSansMono-Bold-45"/>
      <use xlink:href="#DejaVuSansMono-Bold-78" transform="translate(60.205078 0)"/>
      <use xlink:href="#DejaVuSansMono-Bold-65" transform="translate(120.410156 0)"/>
      <use xlink:href="#DejaVuSansMono-Bold-63" transform="translate(180.615234 0)"/>
      <use xlink:href="#DejaVuSansMono-Bold-75" transform="translate(240.820312 0)"/>
      <use xlink:href="#DejaVuSansMono-Bold-74" transform="translate(301.025391 0)"/>
      <use xlink:href="#DejaVuSansMono-Bold-69" transform="translate(361.230469 0)"/>
      <use xlink:href="#DejaVuSansMono-Bold-6f" transform="translate(421.435547 0)"/>
      <use xlink:href="#DejaVuSansMono-Bold-6e" transform="translate(481.640625 0)"/>
      <use xlink:href="#DejaVuSansMono-Bold-20" transform="translate(541.845703 0)"/>
      <use xlink:href="#DejaVuSansMono-Bold-54" transform="translate(602.050781 0)"/>
      <use xlink:href="#DejaVuSansMono-Bold-69" transform="translate(662.255859 0)"/>
      <use xlink:href="#DejaVuSansMono-Bold-6d" transform="translate(722.460938 0)"/>
      <use xlink:href="#DejaVuSansMono-Bold-65" transform="translate(782.666016 0)"/>
      <use xlink:href="#DejaVuSansMono-Bold-20" transform="translate(842.871094 0)"/>
      <use xlink:href="#DejaVuSansMono-Bold-28" transform="translate(903.076172 0)"/>
      <use xlink:href="#DejaVuSansMono-Bold-73" transform="translate(963.28125 0)"/>
      <use xlink:href="#DejaVuSansMono-Bold-29" transform="translate(1023.486328 0)"/>
     </g>
    </g>
   </g>
   <g id="line2d_25">
    <path d="M 83.504091 266.016 
L 201.940455 239.056 
L 320.376818 195.92 
L 438.813182 120.432 
" clip-path="url(#p74a1c602bb)" style="fill: none; stroke: #0066ff; stroke-width: 2; stroke-linecap: square"/>
    <defs>
     <path id="m33c5b4bd36" d="M 0 4 
C 1.060812 4 2.078319 3.578535 2.828427 2.828427 
C 3.578535 2.078319 4 1.060812 4 0 
C 4 -1.060812 3.578535 -2.078319 2.828427 -2.828427 
C 2.078319 -3.578535 1.060812 -4 0 -4 
C -1.060812 -4 -2.078319 -3.578535 -2.828427 -2.828427 
C -3.578535 -2.078319 -4 -1.060812 -4 0 
C -4 1.060812 -3.578535 2.078319 -2.828427 2.828427 
C -2.078319 3.578535 -1.060812 4 0 4 
z
" style="stroke: #0066ff"/>
    </defs>
    <g clip-path="url(#p74a1c602bb)">
     <use xlink:href="#m33c5b4bd36" x="83.504091" y="266.016" style="fill: #0066ff; stroke: #0066ff"/>
     <use xlink:href="#m33c5b4bd36" x="201.940455" y="239.056" style="fill: #0066ff; stroke: #0066ff"/>
     <use xlink:href="#m33c5b4bd36" x="320.376818" y="195.92" style="fill: #0066ff; stroke: #0066ff"/>
     <use xlink:href="#m33c5b4bd36" x="438.813182" y="120.432" style="fill: #0066ff; stroke: #0066ff"/>
    </g>
   </g>
   <g id="line2d_26">
    <path d="M 83.504091 264.218667 
L 201.940455 237.258667 
L 320.376818 188.730667 
L 438.813182 115.04 
" clip-path="url(#p74a1c602bb)" style="fill: none; stroke: #33cc66; stroke-width: 2; stroke-linecap: square"/>
    <defs>
     <path id="m06f9c27af4" d="M 0 4 
C 1.060812 4 2.078319 3.578535 2.828427 2.828427 
C 3.578535 2.078319 4 1.060812 4 0 
C 4 -1.060812 3.578535 -2.078319 2.828427 -2.828427 
C 2.078319 -3.578535 1.060812 -4 0 -4 
C -1.060812 -4 -2.078319 -3.578535 -2.828427 -2.828427 
C -3.578535 -2.078319 -4 -1.060812 -4 0 
C -4 1.060812 -3.578535 2.078319 -2.828427 2.828427 
C -2.078319 3.578535 -1.060812 4 0 4 
z
" style="stroke: #33cc66"/>
    </defs>
    <g clip-path="url(#p74a1c602bb)">
     <use xlink:href="#m06f9c27af4" x="83.504091" y="264.218667" style="fill: #33cc66; stroke: #33cc66"/>
     <use xlink:href="#m06f9c27af4" x="201.940455" y="237.258667" style="fill: #33cc66; stroke: #33cc66"/>
     <use xlink:href="#m06f9c27af4" x="320.376818" y="188.730667" style="fill: #33cc66; stroke: #33cc66"/>
     <use xlink:href="#m06f9c27af4" x="438.813182" y="115.04" style="fill: #33cc66; stroke: #33cc66"/>
    </g>
   </g>
   <g id="line2d_27">
    <path d="M 83.504091 318.138667 
L 201.940455 301.962667 
L 320.376818 262.421333 
L 438.813182 231.866667 
L 557.249545 147.392 
L 675.685909 64.714667 
" clip-path="url(#p74a1c602bb)" style="fill: none; stroke: #ff0066; stroke-width: 2; stroke-linecap: square"/>
    <defs>
     <path id="m652f921108" d="M 0 4 
C 1.060812 4 2.078319 3.578535 2.828427 2.828427 
C 3.578535 2.078319 4 1.060812 4 0 
C 4 -1.060812 3.578535 -2.078319 2.828427 -2.828427 
C 2.078319 -3.578535 1.060812 -4 0 -4 
C -1.060812 -4 -2.078319 -3.578535 -2.828427 -2.828427 
C -3.578535 -2.078319 -4 -1.060812 -4 0 
C -4 1.060812 -3.578535 2.078319 -2.828427 2.828427 
C -2.078319 3.578535 -1.060812 4 0 4 
z
" style="stroke: #ff0066"/>
    </defs>
    <g clip-path="url(#p74a1c602bb)">
     <use xlink:href="#m652f921108" x="83.504091" y="318.138667" style="fill: #ff0066; stroke: #ff0066"/>
     <use xlink:href="#m652f921108" x="201.940455" y="301.962667" style="fill: #ff0066; stroke: #ff0066"/>
     <use xlink:href="#m652f921108" x="320.376818" y="262.421333" style="fill: #ff0066; stroke: #ff0066"/>
     <use xlink:href="#m652f921108" x="438.813182" y="231.866667" style="fill: #ff0066; stroke: #ff0066"/>
     <use xlink:href="#m652f921108" x="557.249545" y="147.392" style="fill: #ff0066; stroke: #ff0066"/>
     <use xlink:href="#m652f921108" x="675.685909" y="64.714667" style="fill: #ff0066; stroke: #ff0066"/>
    </g>
   </g>
   <g id="patch_3">
    <path d="M 53.895 384.64 
L 53.895 7.2 
" style="fill: none; stroke: #000000; stroke-width: 0.8; stroke-linejoin: miter; stroke-linecap: square"/>
   </g>
   <g id="patch_4">
    <path d="M 705.295 384.64 
L 705.295 7.2 
" style="fill: none; stroke: #000000; stroke-width: 0.8; stroke-linejoin: miter; stroke-linecap: square"/>
   </g>
   <g id="patch_5">
    <path d="M 53.895 384.64 
L 705.295 384.64 
" style="fill: none; stroke: #000000; stroke-width: 0.8; stroke-linejoin: miter; stroke-linecap: square"/>
   </g>
   <g id="patch_6">
    <path d="M 53.895 7.2 
L 705.295 7.2 
" style="fill: none; stroke: #000000; stroke-width: 0.8; stroke-linejoin: miter; stroke-linecap: square"/>
   </g>
   <g id="legend_1">
    <g id="patch_7">
     <path d="M 62.295 69.915 
L 245.1825 69.915 
Q 247.5825 69.915 247.5825 67.515 
L 247.5825 15.6 
Q 247.5825 13.2 245.1825 13.2 
L 62.295 13.2 
Q 59.895 13.2 59.895 15.6 
L 59.895 67.515 
Q 59.895 69.915 62.295 69.915 
z
" style="fill: #ffffff; opacity: 0.8; stroke: #cccccc; stroke-linejoin: miter"/>
    </g>
    <g id="line2d_28">
     <path d="M 64.695 22.981875 
L 76.695 22.981875 
L 88.695 22.981875 
" style="fill: none; stroke: #0066ff; stroke-width: 2; stroke-linecap: square"/>
     <g>
      <use xlink:href="#m33c5b4bd36" x="76.695" y="22.981875" style="fill: #0066ff; stroke: #0066ff"/>
     </g>
    </g>
    <g id="text_18">
     <!-- PyTorch (Eager Mode) -->
     <g transform="translate(98.295 27.181875) scale(0.12 -0.12)">
      <defs>
       <path id="DejaVuSansMono-50" d="M 1247 4147 
L 1247 2394 
L 1978 2394 
Q 2416 2394 2661 2625 
Q 2906 2856 2906 3272 
Q 2906 3688 2662 3917 
Q 2419 4147 1978 4147 
L 1247 4147 
z
M 616 4666 
L 1978 4666 
Q 2759 4666 3162 4311 
Q 3566 3956 3566 3272 
Q 3566 2581 3164 2228 
Q 2763 1875 1978 1875 
L 1247 1875 
L 1247 0 
L 616 0 
L 616 4666 
z
" transform="scale(0.015625)"/>
       <path id="DejaVuSansMono-79" d="M 2681 1125 
Q 2538 759 2316 163 
Q 2006 -663 1900 -844 
Q 1756 -1088 1540 -1209 
Q 1325 -1331 1038 -1331 
L 575 -1331 
L 575 -850 
L 916 -850 
Q 1169 -850 1312 -703 
Q 1456 -556 1678 56 
L 325 3500 
L 934 3500 
L 1972 763 
L 2994 3500 
L 3603 3500 
L 2681 1125 
z
" transform="scale(0.015625)"/>
       <path id="DejaVuSansMono-54" d="M 147 4666 
L 3706 4666 
L 3706 4134 
L 2247 4134 
L 2247 0 
L 1613 0 
L 1613 4134 
L 147 4134 
L 147 4666 
z
" transform="scale(0.015625)"/>
       <path id="DejaVuSansMono-6f" d="M 1925 3097 
Q 1488 3097 1263 2756 
Q 1038 2416 1038 1747 
Q 1038 1081 1263 739 
Q 1488 397 1925 397 
Q 2366 397 2591 739 
Q 2816 1081 2816 1747 
Q 2816 2416 2591 2756 
Q 2366 3097 1925 3097 
z
M 1925 3584 
Q 2653 3584 3039 3112 
Q 3425 2641 3425 1747 
Q 3425 850 3040 379 
Q 2656 -91 1925 -91 
Q 1197 -91 812 379 
Q 428 850 428 1747 
Q 428 2641 812 3112 
Q 1197 3584 1925 3584 
z
" transform="scale(0.015625)"/>
       <path id="DejaVuSansMono-72" d="M 3609 2778 
Q 3425 2922 3234 2987 
Q 3044 3053 2816 3053 
Q 2278 3053 1993 2715 
Q 1709 2378 1709 1741 
L 1709 0 
L 1131 0 
L 1131 3500 
L 1709 3500 
L 1709 2816 
Q 1853 3188 2151 3386 
Q 2450 3584 2859 3584 
Q 3072 3584 3256 3531 
Q 3441 3478 3609 3366 
L 3609 2778 
z
" transform="scale(0.015625)"/>
       <path id="DejaVuSansMono-63" d="M 3316 178 
Q 3084 44 2839 -23 
Q 2594 -91 2338 -91 
Q 1525 -91 1067 396 
Q 609 884 609 1747 
Q 609 2609 1067 3096 
Q 1525 3584 2338 3584 
Q 2591 3584 2831 3518 
Q 3072 3453 3316 3316 
L 3316 2713 
Q 3088 2916 2858 3006 
Q 2628 3097 2338 3097 
Q 1797 3097 1506 2747 
Q 1216 2397 1216 1747 
Q 1216 1100 1508 748 
Q 1800 397 2338 397 
Q 2638 397 2875 489 
Q 3113 581 3316 775 
L 3316 178 
z
" transform="scale(0.015625)"/>
       <path id="DejaVuSansMono-68" d="M 3284 2169 
L 3284 0 
L 2706 0 
L 2706 2169 
Q 2706 2641 2540 2862 
Q 2375 3084 2022 3084 
Q 1619 3084 1401 2798 
Q 1184 2513 1184 1978 
L 1184 0 
L 609 0 
L 609 4863 
L 1184 4863 
L 1184 2975 
Q 1338 3275 1600 3429 
Q 1863 3584 2222 3584 
Q 2756 3584 3020 3232 
Q 3284 2881 3284 2169 
z
" transform="scale(0.015625)"/>
       <path id="DejaVuSansMono-20" transform="scale(0.015625)"/>
       <path id="DejaVuSansMono-28" d="M 2766 4856 
Q 2350 4144 2145 3436 
Q 1941 2728 1941 2009 
Q 1941 1294 2145 584 
Q 2350 -125 2766 -844 
L 2266 -844 
Q 1794 -100 1562 604 
Q 1331 1309 1331 2009 
Q 1331 2706 1562 3412 
Q 1794 4119 2266 4856 
L 2766 4856 
z
" transform="scale(0.015625)"/>
       <path id="DejaVuSansMono-45" d="M 616 4666 
L 3384 4666 
L 3384 4134 
L 1247 4134 
L 1247 2753 
L 3291 2753 
L 3291 2222 
L 1247 2222 
L 1247 531 
L 3444 531 
L 3444 0 
L 616 0 
L 616 4666 
z
" transform="scale(0.015625)"/>
       <path id="DejaVuSansMono-61" d="M 2194 1759 
L 2003 1759 
Q 1500 1759 1245 1582 
Q 991 1406 991 1056 
Q 991 741 1181 566 
Q 1372 391 1709 391 
Q 2184 391 2456 720 
Q 2728 1050 2731 1631 
L 2731 1759 
L 2194 1759 
z
M 3309 1997 
L 3309 0 
L 2731 0 
L 2731 519 
Q 2547 206 2267 57 
Q 1988 -91 1588 -91 
Q 1053 -91 734 211 
Q 416 513 416 1019 
Q 416 1603 808 1906 
Q 1200 2209 1959 2209 
L 2731 2209 
L 2731 2300 
Q 2728 2719 2518 2908 
Q 2309 3097 1850 3097 
Q 1556 3097 1256 3012 
Q 956 2928 672 2766 
L 672 3341 
Q 991 3463 1283 3523 
Q 1575 3584 1850 3584 
Q 2284 3584 2592 3456 
Q 2900 3328 3091 3072 
Q 3209 2916 3259 2686 
Q 3309 2456 3309 1997 
z
" transform="scale(0.015625)"/>
       <path id="DejaVuSansMono-67" d="M 2681 1778 
Q 2681 2425 2470 2761 
Q 2259 3097 1856 3097 
Q 1434 3097 1212 2761 
Q 991 2425 991 1778 
Q 991 1131 1214 792 
Q 1438 453 1863 453 
Q 2259 453 2470 793 
Q 2681 1134 2681 1778 
z
M 3256 225 
Q 3256 -563 2884 -969 
Q 2513 -1375 1791 -1375 
Q 1553 -1375 1293 -1331 
Q 1034 -1288 775 -1203 
L 775 -634 
Q 1081 -778 1331 -847 
Q 1581 -916 1791 -916 
Q 2256 -916 2468 -662 
Q 2681 -409 2681 141 
L 2681 166 
L 2681 556 
Q 2544 263 2306 119 
Q 2069 -25 1728 -25 
Q 1116 -25 750 465 
Q 384 956 384 1778 
Q 384 2603 750 3093 
Q 1116 3584 1728 3584 
Q 2066 3584 2300 3450 
Q 2534 3316 2681 3034 
L 2681 3488 
L 3256 3488 
L 3256 225 
z
" transform="scale(0.015625)"/>
       <path id="DejaVuSansMono-65" d="M 3475 1894 
L 3475 1613 
L 984 1613 
L 984 1594 
Q 984 1022 1282 709 
Q 1581 397 2125 397 
Q 2400 397 2700 484 
Q 3000 572 3341 750 
L 3341 178 
Q 3013 44 2708 -23 
Q 2403 -91 2119 -91 
Q 1303 -91 843 398 
Q 384 888 384 1747 
Q 384 2584 834 3084 
Q 1284 3584 2034 3584 
Q 2703 3584 3089 3131 
Q 3475 2678 3475 1894 
z
M 2900 2063 
Q 2888 2569 2661 2833 
Q 2434 3097 2009 3097 
Q 1594 3097 1325 2822 
Q 1056 2547 1006 2059 
L 2900 2063 
z
" transform="scale(0.015625)"/>
       <path id="DejaVuSansMono-4d" d="M 269 4666 
L 1113 4666 
L 1919 2291 
L 2731 4666 
L 3578 4666 
L 3578 0 
L 2994 0 
L 2994 4122 
L 2163 1663 
L 1684 1663 
L 850 4122 
L 850 0 
L 269 0 
L 269 4666 
z
" transform="scale(0.015625)"/>
       <path id="DejaVuSansMono-64" d="M 2681 3053 
L 2681 4863 
L 3256 4863 
L 3256 0 
L 2681 0 
L 2681 441 
Q 2538 181 2298 45 
Q 2059 -91 1747 -91 
Q 1113 -91 748 401 
Q 384 894 384 1759 
Q 384 2613 750 3098 
Q 1116 3584 1747 3584 
Q 2063 3584 2303 3448 
Q 2544 3313 2681 3053 
z
M 991 1747 
Q 991 1078 1203 737 
Q 1416 397 1831 397 
Q 2247 397 2464 740 
Q 2681 1084 2681 1747 
Q 2681 2413 2464 2755 
Q 2247 3097 1831 3097 
Q 1416 3097 1203 2756 
Q 991 2416 991 1747 
z
" transform="scale(0.015625)"/>
       <path id="DejaVuSansMono-29" d="M 1088 4856 
L 1588 4856 
Q 2059 4119 2290 3412 
Q 2522 2706 2522 2009 
Q 2522 1306 2290 600 
Q 2059 -106 1588 -844 
L 1088 -844 
Q 1503 -119 1708 590 
Q 1913 1300 1913 2009 
Q 1913 2722 1708 3431 
Q 1503 4141 1088 4856 
z
" transform="scale(0.015625)"/>
      </defs>
      <use xlink:href="#DejaVuSansMono-50"/>
      <use xlink:href="#DejaVuSansMono-79" transform="translate(60.205078 0)"/>
      <use xlink:href="#DejaVuSansMono-54" transform="translate(120.410156 0)"/>
      <use xlink:href="#DejaVuSansMono-6f" transform="translate(180.615234 0)"/>
      <use xlink:href="#DejaVuSansMono-72" transform="translate(240.820312 0)"/>
      <use xlink:href="#DejaVuSansMono-63" transform="translate(301.025391 0)"/>
      <use xlink:href="#DejaVuSansMono-68" transform="translate(361.230469 0)"/>
      <use xlink:href="#DejaVuSansMono-20" transform="translate(421.435547 0)"/>
      <use xlink:href="#DejaVuSansMono-28" transform="translate(481.640625 0)"/>
      <use xlink:href="#DejaVuSansMono-45" transform="translate(541.845703 0)"/>
      <use xlink:href="#DejaVuSansMono-61" transform="translate(602.050781 0)"/>
      <use xlink:href="#DejaVuSansMono-67" transform="translate(662.255859 0)"/>
      <use xlink:href="#DejaVuSansMono-65" transform="translate(722.460938 0)"/>
      <use xlink:href="#DejaVuSansMono-72" transform="translate(782.666016 0)"/>
      <use xlink:href="#DejaVuSansMono-20" transform="translate(842.871094 0)"/>
      <use xlink:href="#DejaVuSansMono-4d" transform="translate(903.076172 0)"/>
      <use xlink:href="#DejaVuSansMono-6f" transform="translate(963.28125 0)"/>
      <use xlink:href="#DejaVuSansMono-64" transform="translate(1023.486328 0)"/>
      <use xlink:href="#DejaVuSansMono-65" transform="translate(1083.691406 0)"/>
      <use xlink:href="#DejaVuSansMono-29" transform="translate(1143.896484 0)"/>
     </g>
    </g>
    <g id="line2d_29">
     <path d="M 64.695 40.741875 
L 76.695 40.741875 
L 88.695 40.741875 
" style="fill: none; stroke: #33cc66; stroke-width: 2; stroke-linecap: square"/>
     <g>
      <use xlink:href="#m06f9c27af4" x="76.695" y="40.741875" style="fill: #33cc66; stroke: #33cc66"/>
     </g>
    </g>
    <g id="text_19">
     <!-- PyTorch (Inductor) -->
     <g transform="translate(98.295 44.941875) scale(0.12 -0.12)">
      <defs>
       <path id="DejaVuSansMono-49" d="M 628 4666 
L 3219 4666 
L 3219 4134 
L 2241 4134 
L 2241 531 
L 3219 531 
L 3219 0 
L 628 0 
L 628 531 
L 1606 531 
L 1606 4134 
L 628 4134 
L 628 4666 
z
" transform="scale(0.015625)"/>
       <path id="DejaVuSansMono-6e" d="M 3284 2169 
L 3284 0 
L 2706 0 
L 2706 2169 
Q 2706 2641 2540 2862 
Q 2375 3084 2022 3084 
Q 1619 3084 1401 2798 
Q 1184 2513 1184 1978 
L 1184 0 
L 609 0 
L 609 3500 
L 1184 3500 
L 1184 2975 
Q 1338 3275 1600 3429 
Q 1863 3584 2222 3584 
Q 2756 3584 3020 3232 
Q 3284 2881 3284 2169 
z
" transform="scale(0.015625)"/>
       <path id="DejaVuSansMono-75" d="M 609 1325 
L 609 3494 
L 1184 3494 
L 1184 1325 
Q 1184 853 1351 631 
Q 1519 409 1869 409 
Q 2275 409 2490 695 
Q 2706 981 2706 1516 
L 2706 3494 
L 3284 3494 
L 3284 0 
L 2706 0 
L 2706 525 
Q 2553 222 2289 65 
Q 2025 -91 1672 -91 
Q 1134 -91 871 261 
Q 609 613 609 1325 
z
" transform="scale(0.015625)"/>
       <path id="DejaVuSansMono-74" d="M 1919 4494 
L 1919 3500 
L 3225 3500 
L 3225 3053 
L 1919 3053 
L 1919 1153 
Q 1919 766 2066 612 
Q 2213 459 2578 459 
L 3225 459 
L 3225 0 
L 2522 0 
Q 1875 0 1609 259 
Q 1344 519 1344 1153 
L 1344 3053 
L 409 3053 
L 409 3500 
L 1344 3500 
L 1344 4494 
L 1919 4494 
z
" transform="scale(0.015625)"/>
      </defs>
      <use xlink:href="#DejaVuSansMono-50"/>
      <use xlink:href="#DejaVuSansMono-79" transform="translate(60.205078 0)"/>
      <use xlink:href="#DejaVuSansMono-54" transform="translate(120.410156 0)"/>
      <use xlink:href="#DejaVuSansMono-6f" transform="translate(180.615234 0)"/>
      <use xlink:href="#DejaVuSansMono-72" transform="translate(240.820312 0)"/>
      <use xlink:href="#DejaVuSansMono-63" transform="translate(301.025391 0)"/>
      <use xlink:href="#DejaVuSansMono-68" transform="translate(361.230469 0)"/>
      <use xlink:href="#DejaVuSansMono-20" transform="translate(421.435547 0)"/>
      <use xlink:href="#DejaVuSansMono-28" transform="translate(481.640625 0)"/>
      <use xlink:href="#DejaVuSansMono-49" transform="translate(541.845703 0)"/>
      <use xlink:href="#DejaVuSansMono-6e" transform="translate(602.050781 0)"/>
      <use xlink:href="#DejaVuSansMono-64" transform="translate(662.255859 0)"/>
      <use xlink:href="#DejaVuSansMono-75" transform="translate(722.460938 0)"/>
      <use xlink:href="#DejaVuSansMono-63" transform="translate(782.666016 0)"/>
      <use xlink:href="#DejaVuSansMono-74" transform="translate(842.871094 0)"/>
      <use xlink:href="#DejaVuSansMono-6f" transform="translate(903.076172 0)"/>
      <use xlink:href="#DejaVuSansMono-72" transform="translate(963.28125 0)"/>
      <use xlink:href="#DejaVuSansMono-29" transform="translate(1023.486328 0)"/>
     </g>
    </g>
    <g id="line2d_30">
     <path d="M 64.695 58.419375 
L 76.695 58.419375 
L 88.695 58.419375 
" style="fill: none; stroke: #ff0066; stroke-width: 2; stroke-linecap: square"/>
     <g>
      <use xlink:href="#m652f921108" x="76.695" y="58.419375" style="fill: #ff0066; stroke: #ff0066"/>
     </g>
    </g>
    <g id="text_20">
     <!-- Optimized -->
     <g transform="translate(98.295 62.619375) scale(0.12 -0.12)">
      <defs>
       <path id="DejaVuSansMono-4f" d="M 2828 2328 
Q 2828 3356 2617 3797 
Q 2406 4238 1925 4238 
Q 1447 4238 1236 3797 
Q 1025 3356 1025 2328 
Q 1025 1303 1236 862 
Q 1447 422 1925 422 
Q 2406 422 2617 861 
Q 2828 1300 2828 2328 
z
M 3488 2328 
Q 3488 1109 3102 509 
Q 2716 -91 1925 -91 
Q 1134 -91 750 506 
Q 366 1103 366 2328 
Q 366 3550 752 4150 
Q 1138 4750 1925 4750 
Q 2716 4750 3102 4150 
Q 3488 3550 3488 2328 
z
" transform="scale(0.015625)"/>
       <path id="DejaVuSansMono-70" d="M 1172 441 
L 1172 -1331 
L 594 -1331 
L 594 3500 
L 1172 3500 
L 1172 3053 
Q 1316 3313 1555 3448 
Q 1794 3584 2106 3584 
Q 2741 3584 3102 3093 
Q 3463 2603 3463 1734 
Q 3463 881 3100 395 
Q 2738 -91 2106 -91 
Q 1788 -91 1548 45 
Q 1309 181 1172 441 
z
M 2859 1747 
Q 2859 2416 2648 2756 
Q 2438 3097 2022 3097 
Q 1603 3097 1387 2755 
Q 1172 2413 1172 1747 
Q 1172 1084 1387 740 
Q 1603 397 2022 397 
Q 2438 397 2648 737 
Q 2859 1078 2859 1747 
z
" transform="scale(0.015625)"/>
       <path id="DejaVuSansMono-69" d="M 800 3500 
L 2272 3500 
L 2272 447 
L 3413 447 
L 3413 0 
L 556 0 
L 556 447 
L 1697 447 
L 1697 3053 
L 800 3053 
L 800 3500 
z
M 1697 4863 
L 2272 4863 
L 2272 4134 
L 1697 4134 
L 1697 4863 
z
" transform="scale(0.015625)"/>
       <path id="DejaVuSansMono-6d" d="M 2113 3144 
Q 2219 3369 2383 3476 
Q 2547 3584 2778 3584 
Q 3200 3584 3373 3257 
Q 3547 2931 3547 2028 
L 3547 0 
L 3022 0 
L 3022 2003 
Q 3022 2744 2939 2923 
Q 2856 3103 2638 3103 
Q 2388 3103 2295 2911 
Q 2203 2719 2203 2003 
L 2203 0 
L 1678 0 
L 1678 2003 
Q 1678 2753 1589 2928 
Q 1500 3103 1269 3103 
Q 1041 3103 952 2911 
Q 863 2719 863 2003 
L 863 0 
L 341 0 
L 341 3500 
L 863 3500 
L 863 3200 
Q 966 3388 1120 3486 
Q 1275 3584 1472 3584 
Q 1709 3584 1867 3475 
Q 2025 3366 2113 3144 
z
" transform="scale(0.015625)"/>
       <path id="DejaVuSansMono-7a" d="M 709 3506 
L 3250 3506 
L 3250 2981 
L 1241 469 
L 3250 469 
L 3250 0 
L 634 0 
L 634 531 
L 2644 3047 
L 709 3047 
L 709 3506 
z
" transform="scale(0.015625)"/>
      </defs>
      <use xlink:href="#DejaVuSansMono-4f"/>
      <use xlink:href="#DejaVuSansMono-70" transform="translate(60.205078 0)"/>
      <use xlink:href="#DejaVuSansMono-74" transform="translate(120.410156 0)"/>
      <use xlink:href="#DejaVuSansMono-69" transform="translate(180.615234 0)"/>
      <use xlink:href="#DejaVuSansMono-6d" transform="translate(240.820312 0)"/>
      <use xlink:href="#DejaVuSansMono-69" transform="translate(301.025391 0)"/>
      <use xlink:href="#DejaVuSansMono-7a" transform="translate(361.230469 0)"/>
      <use xlink:href="#DejaVuSansMono-65" transform="translate(421.435547 0)"/>
      <use xlink:href="#DejaVuSansMono-64" transform="translate(481.640625 0)"/>
     </g>
    </g>
   </g>
  </g>
 </g>
 <defs>
  <clipPath id="p74a1c602bb">
   <rect x="53.895" y="7.2" width="651.4" height="377.44"/>
  </clipPath>
 </defs>
</svg>
